G04 #@! TF.GenerationSoftware,KiCad,Pcbnew,(5.1.5)-3*
G04 #@! TF.CreationDate,2020-03-11T21:27:21-07:00*
G04 #@! TF.ProjectId,lab3,6c616233-2e6b-4696-9361-645f70636258,v01*
G04 #@! TF.SameCoordinates,Original*
G04 #@! TF.FileFunction,Soldermask,Top*
G04 #@! TF.FilePolarity,Negative*
%FSLAX46Y46*%
G04 Gerber Fmt 4.6, Leading zero omitted, Abs format (unit mm)*
G04 Created by KiCad (PCBNEW (5.1.5)-3) date 2020-03-11 21:27:21*
%MOMM*%
%LPD*%
G04 APERTURE LIST*
%ADD10C,0.100000*%
G04 APERTURE END LIST*
D10*
G36*
X163455953Y-101187148D02*
G01*
X163934842Y-101282404D01*
X164475676Y-101506425D01*
X164962413Y-101831652D01*
X165376348Y-102245587D01*
X165701575Y-102732324D01*
X165925596Y-103273158D01*
X166039800Y-103847304D01*
X166039800Y-104432696D01*
X165925596Y-105006842D01*
X165701575Y-105547676D01*
X165376348Y-106034413D01*
X164962413Y-106448348D01*
X164475676Y-106773575D01*
X163934842Y-106997596D01*
X163455953Y-107092852D01*
X163360697Y-107111800D01*
X162775303Y-107111800D01*
X162680047Y-107092852D01*
X162201158Y-106997596D01*
X161660324Y-106773575D01*
X161173587Y-106448348D01*
X160759652Y-106034413D01*
X160434425Y-105547676D01*
X160210404Y-105006842D01*
X160096200Y-104432696D01*
X160096200Y-103847304D01*
X160210404Y-103273158D01*
X160434425Y-102732324D01*
X160759652Y-102245587D01*
X161173587Y-101831652D01*
X161660324Y-101506425D01*
X162201158Y-101282404D01*
X162680047Y-101187148D01*
X162775303Y-101168200D01*
X163360697Y-101168200D01*
X163455953Y-101187148D01*
G37*
G36*
X138055953Y-101187148D02*
G01*
X138534842Y-101282404D01*
X139075676Y-101506425D01*
X139562413Y-101831652D01*
X139976348Y-102245587D01*
X140301575Y-102732324D01*
X140525596Y-103273158D01*
X140639800Y-103847304D01*
X140639800Y-104432696D01*
X140525596Y-105006842D01*
X140301575Y-105547676D01*
X139976348Y-106034413D01*
X139562413Y-106448348D01*
X139075676Y-106773575D01*
X138534842Y-106997596D01*
X138055953Y-107092852D01*
X137960697Y-107111800D01*
X137375303Y-107111800D01*
X137280047Y-107092852D01*
X136801158Y-106997596D01*
X136260324Y-106773575D01*
X135773587Y-106448348D01*
X135359652Y-106034413D01*
X135034425Y-105547676D01*
X134810404Y-105006842D01*
X134696200Y-104432696D01*
X134696200Y-103847304D01*
X134810404Y-103273158D01*
X135034425Y-102732324D01*
X135359652Y-102245587D01*
X135773587Y-101831652D01*
X136260324Y-101506425D01*
X136801158Y-101282404D01*
X137280047Y-101187148D01*
X137375303Y-101168200D01*
X137960697Y-101168200D01*
X138055953Y-101187148D01*
G37*
G36*
X145158041Y-104262555D02*
G01*
X145282849Y-104314252D01*
X145395173Y-104389305D01*
X145490695Y-104484827D01*
X145565748Y-104597151D01*
X145617445Y-104721959D01*
X145643800Y-104854455D01*
X145643800Y-104989545D01*
X145617445Y-105122041D01*
X145565748Y-105246849D01*
X145490695Y-105359173D01*
X145395173Y-105454695D01*
X145282849Y-105529748D01*
X145158041Y-105581445D01*
X145025545Y-105607800D01*
X144890455Y-105607800D01*
X144757959Y-105581445D01*
X144633151Y-105529748D01*
X144520827Y-105454695D01*
X144425305Y-105359173D01*
X144350252Y-105246849D01*
X144298555Y-105122041D01*
X144272200Y-104989545D01*
X144272200Y-104854455D01*
X144298555Y-104721959D01*
X144350252Y-104597151D01*
X144425305Y-104484827D01*
X144520827Y-104389305D01*
X144633151Y-104314252D01*
X144757959Y-104262555D01*
X144890455Y-104236200D01*
X145025545Y-104236200D01*
X145158041Y-104262555D01*
G37*
G36*
X146758041Y-99162555D02*
G01*
X146882849Y-99214252D01*
X146995173Y-99289305D01*
X147090695Y-99384827D01*
X147165748Y-99497151D01*
X147217445Y-99621959D01*
X147243800Y-99754455D01*
X147243800Y-99889545D01*
X147217445Y-100022041D01*
X147165748Y-100146849D01*
X147090695Y-100259173D01*
X146995173Y-100354695D01*
X146882849Y-100429748D01*
X146758041Y-100481445D01*
X146625545Y-100507800D01*
X146490455Y-100507800D01*
X146357959Y-100481445D01*
X146233151Y-100429748D01*
X146120827Y-100354695D01*
X146025305Y-100259173D01*
X145950252Y-100146849D01*
X145898555Y-100022041D01*
X145872200Y-99889545D01*
X145872200Y-99754455D01*
X145898555Y-99621959D01*
X145950252Y-99497151D01*
X146025305Y-99384827D01*
X146120827Y-99289305D01*
X146233151Y-99214252D01*
X146357959Y-99162555D01*
X146490455Y-99136200D01*
X146625545Y-99136200D01*
X146758041Y-99162555D01*
G37*
G36*
X141474800Y-97920800D02*
G01*
X140973200Y-97920800D01*
X140973200Y-97319200D01*
X141474800Y-97319200D01*
X141474800Y-97920800D01*
G37*
G36*
X163058800Y-97870800D02*
G01*
X161457200Y-97870800D01*
X161457200Y-95169200D01*
X163058800Y-95169200D01*
X163058800Y-97870800D01*
G37*
G36*
X160058800Y-97870800D02*
G01*
X158457200Y-97870800D01*
X158457200Y-95169200D01*
X160058800Y-95169200D01*
X160058800Y-97870800D01*
G37*
G36*
X153127000Y-94274053D02*
G01*
X153263637Y-94330649D01*
X153386607Y-94412815D01*
X153491185Y-94517393D01*
X153573351Y-94640363D01*
X153629947Y-94777000D01*
X153658800Y-94922053D01*
X153658800Y-95069947D01*
X153629947Y-95215000D01*
X153573351Y-95351637D01*
X153491185Y-95474607D01*
X153386607Y-95579185D01*
X153263637Y-95661351D01*
X153127000Y-95717947D01*
X152981947Y-95746800D01*
X152834053Y-95746800D01*
X152689000Y-95717947D01*
X152552363Y-95661351D01*
X152429393Y-95579185D01*
X152324815Y-95474607D01*
X152242649Y-95351637D01*
X152186053Y-95215000D01*
X152157200Y-95069947D01*
X152157200Y-94922053D01*
X152186053Y-94777000D01*
X152242649Y-94640363D01*
X152324815Y-94517393D01*
X152429393Y-94412815D01*
X152552363Y-94330649D01*
X152689000Y-94274053D01*
X152834053Y-94245200D01*
X152981947Y-94245200D01*
X153127000Y-94274053D01*
G37*
G36*
X155027000Y-94274053D02*
G01*
X155163637Y-94330649D01*
X155286607Y-94412815D01*
X155391185Y-94517393D01*
X155473351Y-94640363D01*
X155529947Y-94777000D01*
X155558800Y-94922053D01*
X155558800Y-95069947D01*
X155529947Y-95215000D01*
X155473351Y-95351637D01*
X155391185Y-95474607D01*
X155286607Y-95579185D01*
X155163637Y-95661351D01*
X155027000Y-95717947D01*
X154881947Y-95746800D01*
X154734053Y-95746800D01*
X154589000Y-95717947D01*
X154452363Y-95661351D01*
X154329393Y-95579185D01*
X154224815Y-95474607D01*
X154142649Y-95351637D01*
X154086053Y-95215000D01*
X154057200Y-95069947D01*
X154057200Y-94922053D01*
X154086053Y-94777000D01*
X154142649Y-94640363D01*
X154224815Y-94517393D01*
X154329393Y-94412815D01*
X154452363Y-94330649D01*
X154589000Y-94274053D01*
X154734053Y-94245200D01*
X154881947Y-94245200D01*
X155027000Y-94274053D01*
G37*
G36*
X141474800Y-95720800D02*
G01*
X140973200Y-95720800D01*
X140973200Y-95119200D01*
X141474800Y-95119200D01*
X141474800Y-95720800D01*
G37*
G36*
X151048800Y-94010800D02*
G01*
X149847200Y-94010800D01*
X149847200Y-93309200D01*
X151048800Y-93309200D01*
X151048800Y-94010800D01*
G37*
G36*
X148348800Y-94010800D02*
G01*
X147147200Y-94010800D01*
X147147200Y-93309200D01*
X148348800Y-93309200D01*
X148348800Y-94010800D01*
G37*
G36*
X160747000Y-91856053D02*
G01*
X160883637Y-91912649D01*
X161006607Y-91994815D01*
X161111185Y-92099393D01*
X161193351Y-92222363D01*
X161249947Y-92359000D01*
X161278800Y-92504053D01*
X161278800Y-92651947D01*
X161249947Y-92797000D01*
X161193351Y-92933637D01*
X161111185Y-93056607D01*
X161006607Y-93161185D01*
X160883637Y-93243351D01*
X160747000Y-93299947D01*
X160601947Y-93328800D01*
X160454053Y-93328800D01*
X160309000Y-93299947D01*
X160172363Y-93243351D01*
X160049393Y-93161185D01*
X159944815Y-93056607D01*
X159862649Y-92933637D01*
X159806053Y-92797000D01*
X159777200Y-92651947D01*
X159777200Y-92504053D01*
X159806053Y-92359000D01*
X159862649Y-92222363D01*
X159944815Y-92099393D01*
X160049393Y-91994815D01*
X160172363Y-91912649D01*
X160309000Y-91856053D01*
X160454053Y-91827200D01*
X160601947Y-91827200D01*
X160747000Y-91856053D01*
G37*
G36*
X151048800Y-93060800D02*
G01*
X149847200Y-93060800D01*
X149847200Y-92359200D01*
X151048800Y-92359200D01*
X151048800Y-93060800D01*
G37*
G36*
X148348800Y-93060800D02*
G01*
X147147200Y-93060800D01*
X147147200Y-92359200D01*
X148348800Y-92359200D01*
X148348800Y-93060800D01*
G37*
G36*
X148348800Y-92110800D02*
G01*
X147147200Y-92110800D01*
X147147200Y-91409200D01*
X148348800Y-91409200D01*
X148348800Y-92110800D01*
G37*
G36*
X151048800Y-92110800D02*
G01*
X149847200Y-92110800D01*
X149847200Y-91409200D01*
X151048800Y-91409200D01*
X151048800Y-92110800D01*
G37*
G36*
X160747000Y-89956053D02*
G01*
X160883637Y-90012649D01*
X161006607Y-90094815D01*
X161111185Y-90199393D01*
X161193351Y-90322363D01*
X161249947Y-90459000D01*
X161278800Y-90604053D01*
X161278800Y-90751947D01*
X161249947Y-90897000D01*
X161193351Y-91033637D01*
X161111185Y-91156607D01*
X161006607Y-91261185D01*
X160883637Y-91343351D01*
X160747000Y-91399947D01*
X160601947Y-91428800D01*
X160454053Y-91428800D01*
X160309000Y-91399947D01*
X160172363Y-91343351D01*
X160049393Y-91261185D01*
X159944815Y-91156607D01*
X159862649Y-91033637D01*
X159806053Y-90897000D01*
X159777200Y-90751947D01*
X159777200Y-90604053D01*
X159806053Y-90459000D01*
X159862649Y-90322363D01*
X159944815Y-90199393D01*
X160049393Y-90094815D01*
X160172363Y-90012649D01*
X160309000Y-89956053D01*
X160454053Y-89927200D01*
X160601947Y-89927200D01*
X160747000Y-89956053D01*
G37*
G36*
X144734169Y-88589895D02*
G01*
X144843655Y-88635246D01*
X144889006Y-88654031D01*
X144944821Y-88691325D01*
X145028354Y-88747140D01*
X145146860Y-88865646D01*
X145202675Y-88949179D01*
X145239969Y-89004994D01*
X145239969Y-89004995D01*
X145304105Y-89159831D01*
X145336800Y-89324203D01*
X145336800Y-89491797D01*
X145304105Y-89656169D01*
X145258754Y-89765655D01*
X145239969Y-89811006D01*
X145202675Y-89866821D01*
X145146860Y-89950354D01*
X145028354Y-90068860D01*
X144944821Y-90124675D01*
X144889006Y-90161969D01*
X144843655Y-90180754D01*
X144734169Y-90226105D01*
X144569797Y-90258800D01*
X144402203Y-90258800D01*
X144237831Y-90226105D01*
X144128345Y-90180754D01*
X144082994Y-90161969D01*
X144027179Y-90124675D01*
X143943646Y-90068860D01*
X143825140Y-89950354D01*
X143769325Y-89866821D01*
X143732031Y-89811006D01*
X143713246Y-89765655D01*
X143667895Y-89656169D01*
X143635200Y-89491797D01*
X143635200Y-89324203D01*
X143667895Y-89159831D01*
X143732031Y-89004995D01*
X143732031Y-89004994D01*
X143769325Y-88949179D01*
X143825140Y-88865646D01*
X143943646Y-88747140D01*
X144027179Y-88691325D01*
X144082994Y-88654031D01*
X144128345Y-88635246D01*
X144237831Y-88589895D01*
X144402203Y-88557200D01*
X144569797Y-88557200D01*
X144734169Y-88589895D01*
G37*
G36*
X142234169Y-88589895D02*
G01*
X142343655Y-88635246D01*
X142389006Y-88654031D01*
X142444821Y-88691325D01*
X142528354Y-88747140D01*
X142646860Y-88865646D01*
X142702675Y-88949179D01*
X142739969Y-89004994D01*
X142739969Y-89004995D01*
X142804105Y-89159831D01*
X142836800Y-89324203D01*
X142836800Y-89491797D01*
X142804105Y-89656169D01*
X142758754Y-89765655D01*
X142739969Y-89811006D01*
X142702675Y-89866821D01*
X142646860Y-89950354D01*
X142528354Y-90068860D01*
X142444821Y-90124675D01*
X142389006Y-90161969D01*
X142343655Y-90180754D01*
X142234169Y-90226105D01*
X142069797Y-90258800D01*
X141902203Y-90258800D01*
X141737831Y-90226105D01*
X141628345Y-90180754D01*
X141582994Y-90161969D01*
X141527179Y-90124675D01*
X141443646Y-90068860D01*
X141325140Y-89950354D01*
X141269325Y-89866821D01*
X141232031Y-89811006D01*
X141213246Y-89765655D01*
X141167895Y-89656169D01*
X141135200Y-89491797D01*
X141135200Y-89324203D01*
X141167895Y-89159831D01*
X141232031Y-89004995D01*
X141232031Y-89004994D01*
X141269325Y-88949179D01*
X141325140Y-88865646D01*
X141443646Y-88747140D01*
X141527179Y-88691325D01*
X141582994Y-88654031D01*
X141628345Y-88635246D01*
X141737831Y-88589895D01*
X141902203Y-88557200D01*
X142069797Y-88557200D01*
X142234169Y-88589895D01*
G37*
G36*
X153196169Y-86557895D02*
G01*
X153305655Y-86603246D01*
X153351006Y-86622031D01*
X153406821Y-86659325D01*
X153490354Y-86715140D01*
X153608860Y-86833646D01*
X153664675Y-86917179D01*
X153701969Y-86972994D01*
X153701969Y-86972995D01*
X153766105Y-87127831D01*
X153798800Y-87292203D01*
X153798800Y-87459797D01*
X153766105Y-87624169D01*
X153720754Y-87733655D01*
X153701969Y-87779006D01*
X153664675Y-87834821D01*
X153608860Y-87918354D01*
X153490354Y-88036860D01*
X153406821Y-88092675D01*
X153351006Y-88129969D01*
X153305655Y-88148754D01*
X153196169Y-88194105D01*
X153031797Y-88226800D01*
X152864203Y-88226800D01*
X152699831Y-88194105D01*
X152590345Y-88148754D01*
X152544994Y-88129969D01*
X152489179Y-88092675D01*
X152405646Y-88036860D01*
X152287140Y-87918354D01*
X152231325Y-87834821D01*
X152194031Y-87779006D01*
X152175246Y-87733655D01*
X152129895Y-87624169D01*
X152097200Y-87459797D01*
X152097200Y-87292203D01*
X152129895Y-87127831D01*
X152194031Y-86972995D01*
X152194031Y-86972994D01*
X152231325Y-86917179D01*
X152287140Y-86833646D01*
X152405646Y-86715140D01*
X152489179Y-86659325D01*
X152544994Y-86622031D01*
X152590345Y-86603246D01*
X152699831Y-86557895D01*
X152864203Y-86525200D01*
X153031797Y-86525200D01*
X153196169Y-86557895D01*
G37*
G36*
X155696169Y-86557895D02*
G01*
X155805655Y-86603246D01*
X155851006Y-86622031D01*
X155906821Y-86659325D01*
X155990354Y-86715140D01*
X156108860Y-86833646D01*
X156164675Y-86917179D01*
X156201969Y-86972994D01*
X156201969Y-86972995D01*
X156266105Y-87127831D01*
X156298800Y-87292203D01*
X156298800Y-87459797D01*
X156266105Y-87624169D01*
X156220754Y-87733655D01*
X156201969Y-87779006D01*
X156164675Y-87834821D01*
X156108860Y-87918354D01*
X155990354Y-88036860D01*
X155906821Y-88092675D01*
X155851006Y-88129969D01*
X155805655Y-88148754D01*
X155696169Y-88194105D01*
X155531797Y-88226800D01*
X155364203Y-88226800D01*
X155199831Y-88194105D01*
X155090345Y-88148754D01*
X155044994Y-88129969D01*
X154989179Y-88092675D01*
X154905646Y-88036860D01*
X154787140Y-87918354D01*
X154731325Y-87834821D01*
X154694031Y-87779006D01*
X154675246Y-87733655D01*
X154629895Y-87624169D01*
X154597200Y-87459797D01*
X154597200Y-87292203D01*
X154629895Y-87127831D01*
X154694031Y-86972995D01*
X154694031Y-86972994D01*
X154731325Y-86917179D01*
X154787140Y-86833646D01*
X154905646Y-86715140D01*
X154989179Y-86659325D01*
X155044994Y-86622031D01*
X155090345Y-86603246D01*
X155199831Y-86557895D01*
X155364203Y-86525200D01*
X155531797Y-86525200D01*
X155696169Y-86557895D01*
G37*
G36*
X158847000Y-84368053D02*
G01*
X158983637Y-84424649D01*
X159106607Y-84506815D01*
X159211185Y-84611393D01*
X159293351Y-84734363D01*
X159349947Y-84871000D01*
X159378800Y-85016053D01*
X159378800Y-85163947D01*
X159349947Y-85309000D01*
X159293351Y-85445637D01*
X159211185Y-85568607D01*
X159106607Y-85673185D01*
X158983637Y-85755351D01*
X158847000Y-85811947D01*
X158701947Y-85840800D01*
X158554053Y-85840800D01*
X158409000Y-85811947D01*
X158272363Y-85755351D01*
X158149393Y-85673185D01*
X158044815Y-85568607D01*
X157962649Y-85445637D01*
X157906053Y-85309000D01*
X157877200Y-85163947D01*
X157877200Y-85016053D01*
X157906053Y-84871000D01*
X157962649Y-84734363D01*
X158044815Y-84611393D01*
X158149393Y-84506815D01*
X158272363Y-84424649D01*
X158409000Y-84368053D01*
X158554053Y-84339200D01*
X158701947Y-84339200D01*
X158847000Y-84368053D01*
G37*
G36*
X160747000Y-84368053D02*
G01*
X160883637Y-84424649D01*
X161006607Y-84506815D01*
X161111185Y-84611393D01*
X161193351Y-84734363D01*
X161249947Y-84871000D01*
X161278800Y-85016053D01*
X161278800Y-85163947D01*
X161249947Y-85309000D01*
X161193351Y-85445637D01*
X161111185Y-85568607D01*
X161006607Y-85673185D01*
X160883637Y-85755351D01*
X160747000Y-85811947D01*
X160601947Y-85840800D01*
X160454053Y-85840800D01*
X160309000Y-85811947D01*
X160172363Y-85755351D01*
X160049393Y-85673185D01*
X159944815Y-85568607D01*
X159862649Y-85445637D01*
X159806053Y-85309000D01*
X159777200Y-85163947D01*
X159777200Y-85016053D01*
X159806053Y-84871000D01*
X159862649Y-84734363D01*
X159944815Y-84611393D01*
X160049393Y-84506815D01*
X160172363Y-84424649D01*
X160309000Y-84368053D01*
X160454053Y-84339200D01*
X160601947Y-84339200D01*
X160747000Y-84368053D01*
G37*
G36*
X141472169Y-82079895D02*
G01*
X141581655Y-82125246D01*
X141627006Y-82144031D01*
X141682821Y-82181325D01*
X141766354Y-82237140D01*
X141884860Y-82355646D01*
X141940675Y-82439179D01*
X141977969Y-82494994D01*
X141977969Y-82494995D01*
X142042105Y-82649831D01*
X142074800Y-82814203D01*
X142074800Y-82981797D01*
X142042105Y-83146169D01*
X141996754Y-83255655D01*
X141977969Y-83301006D01*
X141940675Y-83356821D01*
X141884860Y-83440354D01*
X141766354Y-83558860D01*
X141682821Y-83614675D01*
X141627006Y-83651969D01*
X141581655Y-83670754D01*
X141472169Y-83716105D01*
X141307797Y-83748800D01*
X141140203Y-83748800D01*
X140975831Y-83716105D01*
X140866345Y-83670754D01*
X140820994Y-83651969D01*
X140765179Y-83614675D01*
X140681646Y-83558860D01*
X140563140Y-83440354D01*
X140507325Y-83356821D01*
X140470031Y-83301006D01*
X140451246Y-83255655D01*
X140405895Y-83146169D01*
X140373200Y-82981797D01*
X140373200Y-82814203D01*
X140405895Y-82649831D01*
X140470031Y-82494995D01*
X140470031Y-82494994D01*
X140507325Y-82439179D01*
X140563140Y-82355646D01*
X140681646Y-82237140D01*
X140765179Y-82181325D01*
X140820994Y-82144031D01*
X140866345Y-82125246D01*
X140975831Y-82079895D01*
X141140203Y-82047200D01*
X141307797Y-82047200D01*
X141472169Y-82079895D01*
G37*
G36*
X154934169Y-79699895D02*
G01*
X155043655Y-79745246D01*
X155089006Y-79764031D01*
X155144821Y-79801325D01*
X155228354Y-79857140D01*
X155346860Y-79975646D01*
X155402675Y-80059179D01*
X155439969Y-80114994D01*
X155439969Y-80114995D01*
X155504105Y-80269831D01*
X155536800Y-80434203D01*
X155536800Y-80601797D01*
X155504105Y-80766169D01*
X155458754Y-80875655D01*
X155439969Y-80921006D01*
X155402675Y-80976821D01*
X155346860Y-81060354D01*
X155228354Y-81178860D01*
X155144821Y-81234675D01*
X155089006Y-81271969D01*
X155043655Y-81290754D01*
X154934169Y-81336105D01*
X154769797Y-81368800D01*
X154602203Y-81368800D01*
X154437831Y-81336105D01*
X154328345Y-81290754D01*
X154282994Y-81271969D01*
X154227179Y-81234675D01*
X154143646Y-81178860D01*
X154025140Y-81060354D01*
X153969325Y-80976821D01*
X153932031Y-80921006D01*
X153913246Y-80875655D01*
X153867895Y-80766169D01*
X153835200Y-80601797D01*
X153835200Y-80434203D01*
X153867895Y-80269831D01*
X153932031Y-80114995D01*
X153932031Y-80114994D01*
X153969325Y-80059179D01*
X154025140Y-79975646D01*
X154143646Y-79857140D01*
X154227179Y-79801325D01*
X154282994Y-79764031D01*
X154328345Y-79745246D01*
X154437831Y-79699895D01*
X154602203Y-79667200D01*
X154769797Y-79667200D01*
X154934169Y-79699895D01*
G37*
G36*
X144934169Y-79699895D02*
G01*
X145043655Y-79745246D01*
X145089006Y-79764031D01*
X145144821Y-79801325D01*
X145228354Y-79857140D01*
X145346860Y-79975646D01*
X145402675Y-80059179D01*
X145439969Y-80114994D01*
X145439969Y-80114995D01*
X145504105Y-80269831D01*
X145536800Y-80434203D01*
X145536800Y-80601797D01*
X145504105Y-80766169D01*
X145458754Y-80875655D01*
X145439969Y-80921006D01*
X145402675Y-80976821D01*
X145346860Y-81060354D01*
X145228354Y-81178860D01*
X145144821Y-81234675D01*
X145089006Y-81271969D01*
X145043655Y-81290754D01*
X144934169Y-81336105D01*
X144769797Y-81368800D01*
X144602203Y-81368800D01*
X144437831Y-81336105D01*
X144328345Y-81290754D01*
X144282994Y-81271969D01*
X144227179Y-81234675D01*
X144143646Y-81178860D01*
X144025140Y-81060354D01*
X143969325Y-80976821D01*
X143932031Y-80921006D01*
X143913246Y-80875655D01*
X143867895Y-80766169D01*
X143835200Y-80601797D01*
X143835200Y-80434203D01*
X143867895Y-80269831D01*
X143932031Y-80114995D01*
X143932031Y-80114994D01*
X143969325Y-80059179D01*
X144025140Y-79975646D01*
X144143646Y-79857140D01*
X144227179Y-79801325D01*
X144282994Y-79764031D01*
X144328345Y-79745246D01*
X144437831Y-79699895D01*
X144602203Y-79667200D01*
X144769797Y-79667200D01*
X144934169Y-79699895D01*
G37*
G36*
X149957000Y-73192053D02*
G01*
X150093637Y-73248649D01*
X150216607Y-73330815D01*
X150321185Y-73435393D01*
X150403351Y-73558363D01*
X150459947Y-73695000D01*
X150488800Y-73840053D01*
X150488800Y-73987947D01*
X150459947Y-74133000D01*
X150403351Y-74269637D01*
X150321185Y-74392607D01*
X150216607Y-74497185D01*
X150093637Y-74579351D01*
X149957000Y-74635947D01*
X149811947Y-74664800D01*
X149664053Y-74664800D01*
X149519000Y-74635947D01*
X149382363Y-74579351D01*
X149259393Y-74497185D01*
X149154815Y-74392607D01*
X149072649Y-74269637D01*
X149016053Y-74133000D01*
X148987200Y-73987947D01*
X148987200Y-73840053D01*
X149016053Y-73695000D01*
X149072649Y-73558363D01*
X149154815Y-73435393D01*
X149259393Y-73330815D01*
X149382363Y-73248649D01*
X149519000Y-73192053D01*
X149664053Y-73163200D01*
X149811947Y-73163200D01*
X149957000Y-73192053D01*
G37*
G36*
X151857000Y-73192053D02*
G01*
X151993637Y-73248649D01*
X152116607Y-73330815D01*
X152221185Y-73435393D01*
X152303351Y-73558363D01*
X152359947Y-73695000D01*
X152388800Y-73840053D01*
X152388800Y-73987947D01*
X152359947Y-74133000D01*
X152303351Y-74269637D01*
X152221185Y-74392607D01*
X152116607Y-74497185D01*
X151993637Y-74579351D01*
X151857000Y-74635947D01*
X151711947Y-74664800D01*
X151564053Y-74664800D01*
X151419000Y-74635947D01*
X151282363Y-74579351D01*
X151159393Y-74497185D01*
X151054815Y-74392607D01*
X150972649Y-74269637D01*
X150916053Y-74133000D01*
X150887200Y-73987947D01*
X150887200Y-73840053D01*
X150916053Y-73695000D01*
X150972649Y-73558363D01*
X151054815Y-73435393D01*
X151159393Y-73330815D01*
X151282363Y-73248649D01*
X151419000Y-73192053D01*
X151564053Y-73163200D01*
X151711947Y-73163200D01*
X151857000Y-73192053D01*
G37*
G36*
X141472169Y-72079895D02*
G01*
X141581655Y-72125246D01*
X141627006Y-72144031D01*
X141682821Y-72181325D01*
X141766354Y-72237140D01*
X141884860Y-72355646D01*
X141940675Y-72439179D01*
X141977969Y-72494994D01*
X141977969Y-72494995D01*
X142042105Y-72649831D01*
X142074800Y-72814203D01*
X142074800Y-72981797D01*
X142042105Y-73146169D01*
X141999656Y-73248649D01*
X141977969Y-73301006D01*
X141958051Y-73330815D01*
X141884860Y-73440354D01*
X141766354Y-73558860D01*
X141682821Y-73614675D01*
X141627006Y-73651969D01*
X141581655Y-73670754D01*
X141472169Y-73716105D01*
X141307797Y-73748800D01*
X141140203Y-73748800D01*
X140975831Y-73716105D01*
X140866345Y-73670754D01*
X140820994Y-73651969D01*
X140765179Y-73614675D01*
X140681646Y-73558860D01*
X140563140Y-73440354D01*
X140489949Y-73330815D01*
X140470031Y-73301006D01*
X140448344Y-73248649D01*
X140405895Y-73146169D01*
X140373200Y-72981797D01*
X140373200Y-72814203D01*
X140405895Y-72649831D01*
X140470031Y-72494995D01*
X140470031Y-72494994D01*
X140507325Y-72439179D01*
X140563140Y-72355646D01*
X140681646Y-72237140D01*
X140765179Y-72181325D01*
X140820994Y-72144031D01*
X140866345Y-72125246D01*
X140975831Y-72079895D01*
X141140203Y-72047200D01*
X141307797Y-72047200D01*
X141472169Y-72079895D01*
G37*
G36*
X154976800Y-71656800D02*
G01*
X153775200Y-71656800D01*
X153775200Y-69055200D01*
X154976800Y-69055200D01*
X154976800Y-71656800D01*
G37*
G36*
X152476800Y-71656800D02*
G01*
X151275200Y-71656800D01*
X151275200Y-69055200D01*
X152476800Y-69055200D01*
X152476800Y-71656800D01*
G37*
G36*
X150476800Y-71656800D02*
G01*
X149275200Y-71656800D01*
X149275200Y-69055200D01*
X150476800Y-69055200D01*
X150476800Y-71656800D01*
G37*
G36*
X147976800Y-71656800D02*
G01*
X146775200Y-71656800D01*
X146775200Y-69055200D01*
X147976800Y-69055200D01*
X147976800Y-71656800D01*
G37*
G36*
X145372190Y-65819681D02*
G01*
X145560842Y-65876908D01*
X145734705Y-65969839D01*
X145887096Y-66094904D01*
X146012161Y-66247295D01*
X146105092Y-66421157D01*
X146162319Y-66609809D01*
X146176800Y-66756838D01*
X146176800Y-68455162D01*
X146162319Y-68602191D01*
X146105092Y-68790843D01*
X146012161Y-68964705D01*
X145887096Y-69117096D01*
X145734705Y-69242161D01*
X145560843Y-69335092D01*
X145372191Y-69392319D01*
X145176000Y-69411642D01*
X144979810Y-69392319D01*
X144791158Y-69335092D01*
X144617296Y-69242161D01*
X144464905Y-69117096D01*
X144339840Y-68964705D01*
X144246909Y-68790843D01*
X144189682Y-68602191D01*
X144175201Y-68455162D01*
X144175200Y-66756839D01*
X144189681Y-66609810D01*
X144246908Y-66421158D01*
X144339839Y-66247295D01*
X144464904Y-66094904D01*
X144617295Y-65969839D01*
X144791157Y-65876908D01*
X144979809Y-65819681D01*
X145176000Y-65800358D01*
X145372190Y-65819681D01*
G37*
G36*
X156772190Y-65819681D02*
G01*
X156960842Y-65876908D01*
X157134705Y-65969839D01*
X157287096Y-66094904D01*
X157412161Y-66247295D01*
X157505092Y-66421157D01*
X157562319Y-66609809D01*
X157576800Y-66756838D01*
X157576800Y-68455162D01*
X157562319Y-68602191D01*
X157505092Y-68790843D01*
X157412161Y-68964705D01*
X157287096Y-69117096D01*
X157134705Y-69242161D01*
X156960843Y-69335092D01*
X156772191Y-69392319D01*
X156576000Y-69411642D01*
X156379810Y-69392319D01*
X156191158Y-69335092D01*
X156017296Y-69242161D01*
X155864905Y-69117096D01*
X155739840Y-68964705D01*
X155646909Y-68790843D01*
X155589682Y-68602191D01*
X155575201Y-68455162D01*
X155575200Y-66756839D01*
X155589681Y-66609810D01*
X155646908Y-66421158D01*
X155739839Y-66247295D01*
X155864904Y-66094904D01*
X156017295Y-65969839D01*
X156191157Y-65876908D01*
X156379809Y-65819681D01*
X156576000Y-65800358D01*
X156772190Y-65819681D01*
G37*
G36*
X148751247Y-67028288D02*
G01*
X148860586Y-67073578D01*
X148958988Y-67139328D01*
X149042672Y-67223012D01*
X149108422Y-67321414D01*
X149153712Y-67430753D01*
X149176800Y-67546826D01*
X149176800Y-67665174D01*
X149153712Y-67781247D01*
X149108422Y-67890586D01*
X149042672Y-67988988D01*
X148958988Y-68072672D01*
X148860586Y-68138422D01*
X148751247Y-68183712D01*
X148635174Y-68206800D01*
X148516826Y-68206800D01*
X148400753Y-68183712D01*
X148291414Y-68138422D01*
X148193012Y-68072672D01*
X148109328Y-67988988D01*
X148043578Y-67890586D01*
X147998288Y-67781247D01*
X147975200Y-67665174D01*
X147975200Y-67546826D01*
X147998288Y-67430753D01*
X148043578Y-67321414D01*
X148109328Y-67223012D01*
X148193012Y-67139328D01*
X148291414Y-67073578D01*
X148400753Y-67028288D01*
X148516826Y-67005200D01*
X148635174Y-67005200D01*
X148751247Y-67028288D01*
G37*
G36*
X153351247Y-67028288D02*
G01*
X153460586Y-67073578D01*
X153558988Y-67139328D01*
X153642672Y-67223012D01*
X153708422Y-67321414D01*
X153753712Y-67430753D01*
X153776800Y-67546826D01*
X153776800Y-67665174D01*
X153753712Y-67781247D01*
X153708422Y-67890586D01*
X153642672Y-67988988D01*
X153558988Y-68072672D01*
X153460586Y-68138422D01*
X153351247Y-68183712D01*
X153235174Y-68206800D01*
X153116826Y-68206800D01*
X153000753Y-68183712D01*
X152891414Y-68138422D01*
X152793012Y-68072672D01*
X152709328Y-67988988D01*
X152643578Y-67890586D01*
X152598288Y-67781247D01*
X152575200Y-67665174D01*
X152575200Y-67546826D01*
X152598288Y-67430753D01*
X152643578Y-67321414D01*
X152709328Y-67223012D01*
X152793012Y-67139328D01*
X152891414Y-67073578D01*
X153000753Y-67028288D01*
X153116826Y-67005200D01*
X153235174Y-67005200D01*
X153351247Y-67028288D01*
G37*
M02*
