  0
SECTION
  2
HEADER
  9
$ACADVER
  1
AC1014
  9
$HANDSEED
  5
FFFF
  9
$MEASUREMENT
 70
     1
  0
ENDSEC
  0
SECTION
  2
TABLES
  0
TABLE
  2
VPORT
  5
8
330
0
100
AcDbSymbolTable
 70
     4
  0
VPORT
  5
2E
330
8
100
AcDbSymbolTableRecord
100
AcDbViewportTableRecord
  2
*ACTIVE
 70
     0
 10
0.0
 20
0.0
 11
1.0
 21
1.0
 12
210.0
 22
148.5
 13
0.0
 23
0.0
 14
10.0
 24
10.0
 15
10.0
 25
10.0
 16
0.0
 26
0.0
 36
1.0
 17
0.0
 27
0.0
 37
0.0
 40
341.0
 41
1.24
 42
50.0
 43
0.0
 44
0.0
 50
0.0
 51
0.0
 71
     0
 72
   100
 73
     1
 74
     3
 75
     0
 76
     0
 77
     0
 78
     0
  0
ENDTAB
  0
TABLE
  2
LTYPE
  5
5
330
0
100
AcDbSymbolTable
 70
     1
  0
LTYPE
  5
14
330
5
100
AcDbSymbolTableRecord
100
AcDbLinetypeTableRecord
  2
BYBLOCK
 70
     0
  3

 72
    65
 73
     0
 40
0.0
  0
LTYPE
  5
15
330
5
100
AcDbSymbolTableRecord
100
AcDbLinetypeTableRecord
  2
BYLAYER
 70
     0
  3

 72
    65
 73
     0
 40
0.0
  0
LTYPE
  5
16
330
5
100
AcDbSymbolTableRecord
100
AcDbLinetypeTableRecord
  2
CONTINUOUS
 70
     0
  3
Solid line
 72
    65
 73
     0
 40
0.0
  0
ENDTAB
  0
TABLE
  2
LAYER
  5
2
100
AcDbSymbolTable
 70
1
  0
LAYER
  5
50
100
AcDbSymbolTableRecord
100
AcDbLayerTableRecord
  2
0
 70
0
  6
CONTINUOUS
  0
ENDTAB
  0
TABLE
  2
STYLE
  5
3
330
0
100
AcDbSymbolTable
 70
     1
  0
STYLE
  5
11
330
3
100
AcDbSymbolTableRecord
100
AcDbTextStyleTableRecord
  2
STANDARD
 70
     0
 40
0.0
 41
1.0
 50
0.0
 71
     0
 42
2.5
  3
txt
  4

  0
ENDTAB
  0
TABLE
  2
VIEW
  5
6
330
0
100
AcDbSymbolTable
 70
     0
  0
ENDTAB
  0
TABLE
  2
UCS
  5
7
330
0
100
AcDbSymbolTable
 70
     0
  0
ENDTAB
  0
TABLE
  2
APPID
  5
9
330
0
100
AcDbSymbolTable
 70
     2
  0
APPID
  5
12
330
9
100
AcDbSymbolTableRecord
100
AcDbRegAppTableRecord
  2
ACAD
 70
     0
  0
ENDTAB
  0
TABLE
  2
DIMSTYLE
  5
A
330
0
100
AcDbSymbolTable
 70
     1
  0
DIMSTYLE
105
27
330
A
100
AcDbSymbolTableRecord
100
AcDbDimStyleTableRecord
  2
ISO-25
 70
     0
  3

  4

  5

  6

  7

 40
1.0
 41
2.5
 42
0.625
 43
3.75
 44
1.25
 45
0.0
 46
0.0
 47
0.0
 48
0.0
140
2.5
141
2.5
142
0.0
143
0.03937007874016
144
1.0
145
0.0
146
1.0
147
0.625
 71
     0
 72
     0
 73
     0
 74
     0
 75
     0
 76
     0
 77
     1
 78
     8
170
     0
171
     3
172
     1
173
     0
174
     0
175
     0
176
     0
177
     0
178
     0
270
     2
271
     2
272
     2
273
     2
274
     3
340
11
275
     0
280
     0
281
     0
282
     0
283
     0
284
     8
285
     0
286
     0
287
     3
288
     0
  0
ENDTAB
  0
TABLE
  2
BLOCK_RECORD
  5
1
330
0
100
AcDbSymbolTable
 70
     1
  0
BLOCK_RECORD
  5
1F
330
1
100
AcDbSymbolTableRecord
100
AcDbBlockTableRecord
  2
*MODEL_SPACE
  0
BLOCK_RECORD
  5
1B
330
1
100
AcDbSymbolTableRecord
100
AcDbBlockTableRecord
  2
*PAPER_SPACE
  0
ENDTAB
  0
ENDSEC
  0
SECTION
  2
BLOCKS
  0
BLOCK
  5
20
330
1F
100
AcDbEntity
  8
0
100
AcDbBlockBegin
  2
*MODEL_SPACE
 70
     0
 10
0.0
 20
0.0
 30
0.0
  3
*MODEL_SPACE
  1

  0
ENDBLK
  5
21
330
1F
100
AcDbEntity
  8
0
100
AcDbBlockEnd
  0
BLOCK
  5
1C
330
1B
100
AcDbEntity
 67
     1
  8
0
100
AcDbBlockBegin
  2
*PAPER_SPACE
  1

  0
ENDBLK
  5
1D
330
1B
100
AcDbEntity
 67
     1
  8
0
100
AcDbBlockEnd
  0
ENDSEC
  0
SECTION
  2
ENTITIES
  0
SPLINE
  5
100
100
AcDbEntity
  8
0
 62
7
100
AcDbSpline
 70
8
 71
3
 72
8
 73
4
 74
0
 40
0
 40
0
 40
0
 40
0
 40
1
 40
1
 40
1
 40
1
 10
42.333321
 20
24.166494
 30
0.0
 10
42.333321
 20
22.509639
 30
0.0
 10
43.676465
 20
21.166493
 30
0.0
 10
45.333320
 20
21.166493
 30
0.0
  0
SPLINE
  5
101
100
AcDbEntity
  8
0
 62
7
100
AcDbSpline
 70
8
 71
3
 72
8
 73
4
 74
0
 40
0
 40
0
 40
0
 40
0
 40
1
 40
1
 40
1
 40
1
 10
71.083314
 20
21.166493
 30
0.0
 10
72.740169
 20
21.166493
 30
0.0
 10
74.083313
 20
22.509639
 30
0.0
 10
74.083313
 20
24.166494
 30
0.0
  0
LWPOLYLINE
  5
102
100
AcDbEntity
  8
0
 62
7
100
AcDbPolyline
 90
2
 70
0
 10
45.333320
 20
21.166493
 30
0.0
 10
71.083314
 20
21.166493
 30
0.0
  0
LWPOLYLINE
  5
103
100
AcDbEntity
  8
0
 62
7
100
AcDbPolyline
 90
2
 70
0
 10
74.083313
 20
24.166494
 30
0.0
 10
74.083313
 20
26.224031
 30
0.0
  0
LWPOLYLINE
  5
104
100
AcDbEntity
  8
0
 62
7
100
AcDbPolyline
 90
17
 70
0
 10
73.368313
 20
26.166492
 30
0.0
 10
73.413425
 20
26.166717
 30
0.0
 10
73.458510
 20
26.167511
 30
0.0
 10
73.503563
 20
26.168569
 30
0.0
 10
73.548579
 20
26.170156
 30
0.0
 10
73.593548
 20
26.172273
 30
0.0
 10
73.638466
 20
26.174654
 30
0.0
 10
73.683326
 20
26.177591
 30
0.0
 10
73.728120
 20
26.180978
 30
0.0
 10
73.772843
 20
26.184814
 30
0.0
 10
73.817486
 20
26.189101
 30
0.0
 10
73.862044
 20
26.193810
 30
0.0
 10
73.906510
 20
26.198970
 30
0.0
 10
73.950875
 20
26.204579
 30
0.0
 10
73.995135
 20
26.210638
 30
0.0
 10
74.039283
 20
26.217146
 30
0.0
 10
74.083313
 20
26.224105
 30
0.0
  0
LWPOLYLINE
  5
105
100
AcDbEntity
  8
0
 62
7
100
AcDbPolyline
 90
17
 70
0
 10
73.368313
 20
26.166492
 30
0.0
 10
73.270187
 20
26.166492
 30
0.0
 10
73.172064
 20
26.166492
 30
0.0
 10
73.073938
 20
26.166492
 30
0.0
 10
72.975815
 20
26.166492
 30
0.0
 10
72.877689
 20
26.166492
 30
0.0
 10
72.779563
 20
26.166492
 30
0.0
 10
72.681439
 20
26.166492
 30
0.0
 10
72.583313
 20
26.166492
 30
0.0
 10
72.485187
 20
26.166492
 30
0.0
 10
72.387064
 20
26.166492
 30
0.0
 10
72.288938
 20
26.166492
 30
0.0
 10
72.190812
 20
26.166492
 30
0.0
 10
72.092689
 20
26.166492
 30
0.0
 10
71.994563
 20
26.166492
 30
0.0
 10
71.896439
 20
26.166492
 30
0.0
 10
71.798313
 20
26.166492
 30
0.0
  0
LWPOLYLINE
  5
106
100
AcDbEntity
  8
0
 62
7
100
AcDbPolyline
 90
33
 70
0
 10
71.798313
 20
30.666492
 30
0.0
 10
71.472974
 20
30.654877
 30
0.0
 10
71.157032
 20
30.620780
 30
0.0
 10
70.852089
 20
30.565337
 30
0.0
 10
70.559744
 20
30.489677
 30
0.0
 10
70.281592
 20
30.394929
 30
0.0
 10
70.019237
 20
30.282227
 30
0.0
 10
69.774278
 20
30.152701
 30
0.0
 10
69.548313
 20
30.007481
 30
0.0
 10
69.342944
 20
29.847702
 30
0.0
 10
69.159765
 20
29.674488
 30
0.0
 10
69.000382
 20
29.488975
 30
0.0
 10
68.866389
 20
29.292294
 30
0.0
 10
68.759389
 20
29.085573
 30
0.0
 10
68.680980
 20
28.869945
 30
0.0
 10
68.632762
 20
28.646542
 30
0.0
 10
68.616332
 20
28.416492
 30
0.0
 10
68.632762
 20
28.186442
 30
0.0
 10
68.680980
 20
27.963039
 30
0.0
 10
68.759389
 20
27.747411
 30
0.0
 10
68.866389
 20
27.540690
 30
0.0
 10
69.000382
 20
27.344009
 30
0.0
 10
69.159765
 20
27.158497
 30
0.0
 10
69.342944
 20
26.985282
 30
0.0
 10
69.548313
 20
26.825503
 30
0.0
 10
69.774278
 20
26.680283
 30
0.0
 10
70.019237
 20
26.550757
 30
0.0
 10
70.281592
 20
26.438055
 30
0.0
 10
70.559744
 20
26.343308
 30
0.0
 10
70.852089
 20
26.267647
 30
0.0
 10
71.157032
 20
26.212204
 30
0.0
 10
71.472974
 20
26.178107
 30
0.0
 10
71.798313
 20
26.166492
 30
0.0
  0
LWPOLYLINE
  5
107
100
AcDbEntity
  8
0
 62
7
100
AcDbPolyline
 90
17
 70
0
 10
71.798313
 20
30.666492
 30
0.0
 10
71.896439
 20
30.666492
 30
0.0
 10
71.994563
 20
30.666492
 30
0.0
 10
72.092689
 20
30.666492
 30
0.0
 10
72.190812
 20
30.666492
 30
0.0
 10
72.288938
 20
30.666492
 30
0.0
 10
72.387064
 20
30.666492
 30
0.0
 10
72.485187
 20
30.666492
 30
0.0
 10
72.583313
 20
30.666492
 30
0.0
 10
72.681439
 20
30.666492
 30
0.0
 10
72.779563
 20
30.666492
 30
0.0
 10
72.877689
 20
30.666492
 30
0.0
 10
72.975815
 20
30.666492
 30
0.0
 10
73.073938
 20
30.666492
 30
0.0
 10
73.172064
 20
30.666492
 30
0.0
 10
73.270187
 20
30.666492
 30
0.0
 10
73.368313
 20
30.666492
 30
0.0
  0
LWPOLYLINE
  5
108
100
AcDbEntity
  8
0
 62
7
100
AcDbPolyline
 90
17
 70
0
 10
74.083313
 20
30.608953
 30
0.0
 10
74.039283
 20
30.615912
 30
0.0
 10
73.995135
 20
30.622421
 30
0.0
 10
73.950875
 20
30.628480
 30
0.0
 10
73.906510
 20
30.634089
 30
0.0
 10
73.862044
 20
30.639248
 30
0.0
 10
73.817486
 20
30.643984
 30
0.0
 10
73.772843
 20
30.648244
 30
0.0
 10
73.728120
 20
30.652080
 30
0.0
 10
73.683326
 20
30.655467
 30
0.0
 10
73.638466
 20
30.658404
 30
0.0
 10
73.593548
 20
30.660785
 30
0.0
 10
73.548579
 20
30.662902
 30
0.0
 10
73.503563
 20
30.664489
 30
0.0
 10
73.458510
 20
30.665548
 30
0.0
 10
73.413425
 20
30.666341
 30
0.0
 10
73.368313
 20
30.666566
 30
0.0
  0
SPLINE
  5
109
100
AcDbEntity
  8
0
 62
7
100
AcDbSpline
 70
8
 71
3
 72
8
 73
4
 74
0
 40
0
 40
0
 40
0
 40
0
 40
1
 40
1
 40
1
 40
1
 10
74.083313
 20
43.391486
 30
0.0
 10
74.083313
 20
52.159014
 30
0.0
 10
66.975834
 20
59.266487
 30
0.0
 10
58.208317
 20
59.266487
 30
0.0
  0
SPLINE
  5
10a
100
AcDbEntity
  8
0
 62
7
100
AcDbSpline
 70
8
 71
3
 72
8
 73
4
 74
0
 40
0
 40
0
 40
0
 40
0
 40
1
 40
1
 40
1
 40
1
 10
58.208317
 20
59.266487
 30
0.0
 10
49.440800
 20
59.266487
 30
0.0
 10
42.333321
 20
52.159014
 30
0.0
 10
42.333321
 20
43.391486
 30
0.0
  0
LWPOLYLINE
  5
10b
100
AcDbEntity
  8
0
 62
7
100
AcDbPolyline
 90
2
 70
0
 10
74.083313
 20
30.608953
 30
0.0
 10
74.083313
 20
43.391486
 30
0.0
  0
LWPOLYLINE
  5
10c
100
AcDbEntity
  8
0
 62
7
100
AcDbPolyline
 90
2
 70
0
 10
42.333321
 20
43.391486
 30
0.0
 10
42.333321
 20
30.608953
 30
0.0
  0
LWPOLYLINE
  5
10d
100
AcDbEntity
  8
0
 62
7
100
AcDbPolyline
 90
17
 70
0
 10
43.048321
 20
30.666492
 30
0.0
 10
43.003209
 20
30.666267
 30
0.0
 10
42.958124
 20
30.665474
 30
0.0
 10
42.913071
 20
30.664415
 30
0.0
 10
42.868055
 20
30.662828
 30
0.0
 10
42.823086
 20
30.660711
 30
0.0
 10
42.778168
 20
30.658330
 30
0.0
 10
42.733308
 20
30.655393
 30
0.0
 10
42.688514
 20
30.652006
 30
0.0
 10
42.643791
 20
30.648170
 30
0.0
 10
42.599148
 20
30.643910
 30
0.0
 10
42.554590
 20
30.639174
 30
0.0
 10
42.510124
 20
30.634015
 30
0.0
 10
42.465759
 20
30.628405
 30
0.0
 10
42.421499
 20
30.622347
 30
0.0
 10
42.377351
 20
30.615838
 30
0.0
 10
42.333321
 20
30.608879
 30
0.0
  0
LWPOLYLINE
  5
10e
100
AcDbEntity
  8
0
 62
7
100
AcDbPolyline
 90
17
 70
0
 10
43.048321
 20
30.666492
 30
0.0
 10
43.146447
 20
30.666492
 30
0.0
 10
43.244570
 20
30.666492
 30
0.0
 10
43.342696
 20
30.666492
 30
0.0
 10
43.440822
 20
30.666492
 30
0.0
 10
43.538945
 20
30.666492
 30
0.0
 10
43.637071
 20
30.666492
 30
0.0
 10
43.735195
 20
30.666492
 30
0.0
 10
43.833321
 20
30.666492
 30
0.0
 10
43.931447
 20
30.666492
 30
0.0
 10
44.029570
 20
30.666492
 30
0.0
 10
44.127696
 20
30.666492
 30
0.0
 10
44.225819
 20
30.666492
 30
0.0
 10
44.323945
 20
30.666492
 30
0.0
 10
44.422071
 20
30.666492
 30
0.0
 10
44.520195
 20
30.666492
 30
0.0
 10
44.618321
 20
30.666492
 30
0.0
  0
LWPOLYLINE
  5
10f
100
AcDbEntity
  8
0
 62
7
100
AcDbPolyline
 90
33
 70
0
 10
44.618321
 20
26.166492
 30
0.0
 10
44.943660
 20
26.178107
 30
0.0
 10
45.259602
 20
26.212204
 30
0.0
 10
45.564545
 20
26.267647
 30
0.0
 10
45.856890
 20
26.343308
 30
0.0
 10
46.135042
 20
26.438055
 30
0.0
 10
46.397397
 20
26.550757
 30
0.0
 10
46.642356
 20
26.680283
 30
0.0
 10
46.868321
 20
26.825503
 30
0.0
 10
47.073690
 20
26.985282
 30
0.0
 10
47.256869
 20
27.158497
 30
0.0
 10
47.416252
 20
27.344009
 30
0.0
 10
47.550245
 20
27.540690
 30
0.0
 10
47.657245
 20
27.747411
 30
0.0
 10
47.735654
 20
27.963039
 30
0.0
 10
47.783872
 20
28.186442
 30
0.0
 10
47.800302
 20
28.416492
 30
0.0
 10
47.783872
 20
28.646542
 30
0.0
 10
47.735654
 20
28.869945
 30
0.0
 10
47.657245
 20
29.085573
 30
0.0
 10
47.550245
 20
29.292294
 30
0.0
 10
47.416252
 20
29.488975
 30
0.0
 10
47.256869
 20
29.674488
 30
0.0
 10
47.073690
 20
29.847702
 30
0.0
 10
46.868321
 20
30.007481
 30
0.0
 10
46.642356
 20
30.152701
 30
0.0
 10
46.397397
 20
30.282227
 30
0.0
 10
46.135042
 20
30.394929
 30
0.0
 10
45.856890
 20
30.489677
 30
0.0
 10
45.564545
 20
30.565337
 30
0.0
 10
45.259602
 20
30.620780
 30
0.0
 10
44.943660
 20
30.654877
 30
0.0
 10
44.618321
 20
30.666492
 30
0.0
  0
LWPOLYLINE
  5
110
100
AcDbEntity
  8
0
 62
7
100
AcDbPolyline
 90
17
 70
0
 10
44.618321
 20
26.166492
 30
0.0
 10
44.520195
 20
26.166492
 30
0.0
 10
44.422071
 20
26.166492
 30
0.0
 10
44.323945
 20
26.166492
 30
0.0
 10
44.225819
 20
26.166492
 30
0.0
 10
44.127696
 20
26.166492
 30
0.0
 10
44.029570
 20
26.166492
 30
0.0
 10
43.931447
 20
26.166492
 30
0.0
 10
43.833321
 20
26.166492
 30
0.0
 10
43.735195
 20
26.166492
 30
0.0
 10
43.637071
 20
26.166492
 30
0.0
 10
43.538945
 20
26.166492
 30
0.0
 10
43.440822
 20
26.166492
 30
0.0
 10
43.342696
 20
26.166492
 30
0.0
 10
43.244570
 20
26.166492
 30
0.0
 10
43.146447
 20
26.166492
 30
0.0
 10
43.048321
 20
26.166492
 30
0.0
  0
LWPOLYLINE
  5
111
100
AcDbEntity
  8
0
 62
7
100
AcDbPolyline
 90
17
 70
0
 10
42.333321
 20
26.224031
 30
0.0
 10
42.377351
 20
26.217072
 30
0.0
 10
42.421499
 20
26.210564
 30
0.0
 10
42.465759
 20
26.204505
 30
0.0
 10
42.510124
 20
26.198895
 30
0.0
 10
42.554590
 20
26.193736
 30
0.0
 10
42.599148
 20
26.189026
 30
0.0
 10
42.643791
 20
26.184740
 30
0.0
 10
42.688514
 20
26.180904
 30
0.0
 10
42.733308
 20
26.177517
 30
0.0
 10
42.778168
 20
26.174580
 30
0.0
 10
42.823086
 20
26.172199
 30
0.0
 10
42.868055
 20
26.170082
 30
0.0
 10
42.913071
 20
26.168495
 30
0.0
 10
42.958124
 20
26.167436
 30
0.0
 10
43.003209
 20
26.166643
 30
0.0
 10
43.048321
 20
26.166418
 30
0.0
  0
LWPOLYLINE
  5
112
100
AcDbEntity
  8
0
 62
7
100
AcDbPolyline
 90
2
 70
0
 10
42.333321
 20
26.224031
 30
0.0
 10
42.333321
 20
24.166494
 30
0.0
  0
ENDSEC
  0
SECTION
  2
OBJECTS
  0
DICTIONARY
  5
C
330
0
100
AcDbDictionary
  3
ACAD_GROUP
350
D
  3
ACAD_MLINESTYLE
350
17
  0
DICTIONARY
  5
D
330
C
100
AcDbDictionary
  0
DICTIONARY
  5
1A
330
C
100
AcDbDictionary
  0
DICTIONARY
  5
17
330
C
100
AcDbDictionary
  3
STANDARD
350
18
  0
DICTIONARY
  5
19
330
C
100
AcDbDictionary
  0
ENDSEC
  0
EOF
