G04 #@! TF.GenerationSoftware,KiCad,Pcbnew,(5.1.5)-3*
G04 #@! TF.CreationDate,2020-03-11T21:27:21-07:00*
G04 #@! TF.ProjectId,lab3,6c616233-2e6b-4696-9361-645f70636258,v01*
G04 #@! TF.SameCoordinates,Original*
G04 #@! TF.FileFunction,Copper,L1,Top*
G04 #@! TF.FilePolarity,Positive*
%FSLAX46Y46*%
G04 Gerber Fmt 4.6, Leading zero omitted, Abs format (unit mm)*
G04 Created by KiCad (PCBNEW (5.1.5)-3) date 2020-03-11 21:27:21*
%MOMM*%
%LPD*%
G04 APERTURE LIST*
%ADD10C,1.270000*%
%ADD11O,1.400000X1.400000*%
%ADD12C,1.400000*%
%ADD13O,1.600000X1.600000*%
%ADD14C,1.600000*%
%ADD15R,1.100000X0.600000*%
%ADD16O,1.900000X3.500000*%
%ADD17R,1.100000X2.500000*%
%ADD18R,1.500000X2.600000*%
%ADD19R,0.400000X0.500000*%
%ADD20C,5.842000*%
%ADD21C,0.800000*%
%ADD22C,0.250000*%
G04 APERTURE END LIST*
D10*
X146558000Y-99822000D03*
X144958000Y-104922000D03*
D11*
X154808000Y-94996000D03*
D12*
X152908000Y-94996000D03*
D11*
X158628000Y-85090000D03*
D12*
X160528000Y-85090000D03*
D11*
X149738000Y-73914000D03*
D12*
X151638000Y-73914000D03*
D11*
X160528000Y-92578000D03*
D12*
X160528000Y-90678000D03*
D13*
X141224000Y-82898000D03*
D14*
X141224000Y-72898000D03*
D13*
X144686000Y-80518000D03*
D14*
X154686000Y-80518000D03*
X152948000Y-87376000D03*
X155448000Y-87376000D03*
X144486000Y-89408000D03*
X141986000Y-89408000D03*
D15*
X150448000Y-92710000D03*
X150448000Y-93660000D03*
X150448000Y-91760000D03*
X147748000Y-93660000D03*
X147748000Y-92710000D03*
X147748000Y-91760000D03*
D16*
X156576000Y-67606000D03*
X145176000Y-67606000D03*
D17*
X154376000Y-70356000D03*
X147376000Y-70356000D03*
X151876000Y-70356000D03*
X149876000Y-70356000D03*
D18*
X162258000Y-96520000D03*
X159258000Y-96520000D03*
D19*
X141224000Y-97620000D03*
X141224000Y-95420000D03*
D20*
X137668000Y-104140000D03*
X163068000Y-104140000D03*
D21*
X150876000Y-89408000D03*
X145542000Y-91694000D03*
X154432000Y-73914000D03*
D22*
X150876000Y-91332000D02*
X150448000Y-91760000D01*
X150876000Y-89408000D02*
X150876000Y-91332000D01*
X141986000Y-83660000D02*
X141224000Y-82898000D01*
X141986000Y-89408000D02*
X141986000Y-83660000D01*
X141986000Y-89408000D02*
X141986000Y-92710000D01*
X145796000Y-92710000D02*
X147748000Y-92710000D01*
X141986000Y-92710000D02*
X145796000Y-92710000D01*
X160528000Y-90678000D02*
X160528000Y-85090000D01*
X160492948Y-84064999D02*
X156259001Y-84064999D01*
X156259001Y-84064999D02*
X153747999Y-86576001D01*
X160528000Y-84100051D02*
X160492948Y-84064999D01*
X153747999Y-86576001D02*
X152948000Y-87376000D01*
X160528000Y-85090000D02*
X160528000Y-84100051D01*
X143766000Y-70356000D02*
X147376000Y-70356000D01*
X141224000Y-72898000D02*
X143766000Y-70356000D01*
X147574000Y-76200000D02*
X147376000Y-76002000D01*
X156259001Y-76503001D02*
X155956000Y-76200000D01*
X147376000Y-76002000D02*
X147376000Y-70356000D01*
X155956000Y-76200000D02*
X147574000Y-76200000D01*
X156259001Y-84064999D02*
X156259001Y-76503001D01*
X151248000Y-92710000D02*
X150448000Y-92710000D01*
X152948000Y-91010000D02*
X151248000Y-92710000D01*
X152948000Y-87376000D02*
X152948000Y-91010000D01*
X147748000Y-83580000D02*
X144686000Y-80518000D01*
X147748000Y-91760000D02*
X147748000Y-83580000D01*
X147682000Y-91694000D02*
X147748000Y-91760000D01*
X145542000Y-91694000D02*
X147682000Y-91694000D01*
X154432000Y-70412000D02*
X154376000Y-70356000D01*
X154432000Y-73914000D02*
X154432000Y-70412000D01*
X158258000Y-96520000D02*
X159258000Y-96520000D01*
X156534000Y-98244000D02*
X158258000Y-96520000D01*
X156464000Y-97641949D02*
X156464000Y-98298000D01*
X154808000Y-94996000D02*
X154808000Y-95985949D01*
X154808000Y-95985949D02*
X156464000Y-97641949D01*
X156464000Y-98298000D02*
X156534000Y-98244000D01*
X156534000Y-102362000D02*
X156464000Y-98298000D01*
X160274000Y-102362000D02*
X160951408Y-103039409D01*
X156534000Y-102362000D02*
X160274000Y-102362000D01*
X162258000Y-94308000D02*
X160528000Y-92578000D01*
X162258000Y-96520000D02*
X162258000Y-94308000D01*
X149572999Y-92635001D02*
X149572999Y-85631001D01*
X149572999Y-85631001D02*
X153886001Y-81317999D01*
X148548000Y-93660000D02*
X149572999Y-92635001D01*
X153886001Y-81317999D02*
X154686000Y-80518000D01*
X147748000Y-93660000D02*
X148548000Y-93660000D01*
X146948000Y-93660000D02*
X147748000Y-93660000D01*
X142484000Y-93660000D02*
X146948000Y-93660000D01*
X141224000Y-94920000D02*
X142484000Y-93660000D01*
X141224000Y-95420000D02*
X141224000Y-94920000D01*
X141224000Y-98120000D02*
X141224000Y-97620000D01*
X142926000Y-99822000D02*
X141224000Y-98120000D01*
X146558000Y-99822000D02*
X142926000Y-99822000D01*
X141498000Y-104922000D02*
X139974000Y-104922000D01*
X144958000Y-104922000D02*
X141498000Y-104922000D01*
X139974000Y-104922000D02*
X139934298Y-104882298D01*
X156576000Y-66806000D02*
X156576000Y-67606000D01*
X155376000Y-65606000D02*
X156576000Y-66806000D01*
X146376000Y-65606000D02*
X155376000Y-65606000D01*
X145176000Y-66806000D02*
X146376000Y-65606000D01*
X145176000Y-67606000D02*
X145176000Y-66806000D01*
X151638000Y-70594000D02*
X151876000Y-70356000D01*
X151638000Y-73914000D02*
X151638000Y-70594000D01*
X149738000Y-70494000D02*
X149876000Y-70356000D01*
X149738000Y-73914000D02*
X149738000Y-70494000D01*
X158628000Y-89276000D02*
X152908000Y-94996000D01*
X158628000Y-85090000D02*
X158628000Y-89276000D01*
X150448000Y-94210000D02*
X150448000Y-93660000D01*
X151234000Y-94996000D02*
X150448000Y-94210000D01*
X152908000Y-94996000D02*
X151234000Y-94996000D01*
M02*
