M48
; DRILL file {KiCad (5.1.5)-3} date 4/8/2020 10:33:04 PM
; FORMAT={-:-/ absolute / inch / decimal}
; #@! TF.CreationDate,2020-04-08T22:33:04-07:00
; #@! TF.GenerationSoftware,Kicad,Pcbnew,(5.1.5)-3
; #@! TF.FileFunction,Plated,1,2,PTH
FMAT,2
INCH
T1C0.0157
T2C0.0276
T3C0.0354
T4C0.0394
%
G90
G05
T1
X2.03Y-3.33
X2.23Y-3.21
X2.25Y-3.51
X2.25Y-3.61
X2.26Y-3.39
X2.3Y-3.16
X2.31Y-3.1
X2.36Y-2.84
X2.52Y-3.03
X2.52Y-3.59
X2.55Y-3.49
X2.57Y-3.02
X2.57Y-3.72
X2.6Y-3.39
X2.62Y-3.59
X2.64Y-3.33
X2.69Y-3.19
X2.71Y-2.94
X2.72Y-3.0
X2.72Y-3.09
X2.72Y-3.14
X2.83Y-3.31
X2.84Y-3.24
X2.86Y-3.62
X2.89Y-3.03
T2
X2.2Y-2.5
X2.2Y-2.6575
X2.2709Y-2.5
X2.2709Y-2.6575
X2.8791Y-2.4925
X2.8791Y-2.65
X2.95Y-2.4925
X2.95Y-2.65
T3
X2.48Y-2.3
X2.58Y-2.3
X2.03Y-2.9
X2.03Y-3.0
X2.94Y-2.78
X3.04Y-2.78
T4
X2.53Y-2.44
X2.53Y-2.54
X2.53Y-2.64
X2.02Y-2.78
X2.12Y-2.78
X2.22Y-2.78
X2.48Y-2.79
X2.58Y-2.79
T0
M30
