G04 #@! TF.GenerationSoftware,KiCad,Pcbnew,(5.1.5)-3*
G04 #@! TF.CreationDate,2020-04-08T22:33:11-07:00*
G04 #@! TF.ProjectId,microbug,6d696372-6f62-4756-972e-6b696361645f,rev?*
G04 #@! TF.SameCoordinates,Original*
G04 #@! TF.FileFunction,Legend,Bot*
G04 #@! TF.FilePolarity,Positive*
%FSLAX46Y46*%
G04 Gerber Fmt 4.6, Leading zero omitted, Abs format (unit mm)*
G04 Created by KiCad (PCBNEW (5.1.5)-3) date 2020-04-08 22:33:11*
%MOMM*%
%LPD*%
G04 APERTURE LIST*
%ADD10C,0.120000*%
%ADD11C,0.150000*%
G04 APERTURE END LIST*
D10*
X60148000Y-94159000D02*
X58333000Y-94159000D01*
X60148000Y-94394000D02*
X60148000Y-94159000D01*
X64008000Y-94394000D02*
X60148000Y-94394000D01*
X67868000Y-94394000D02*
X67868000Y-94159000D01*
X64008000Y-94394000D02*
X67868000Y-94394000D01*
X60148000Y-81374000D02*
X60148000Y-81609000D01*
X64008000Y-81374000D02*
X60148000Y-81374000D01*
X67868000Y-81374000D02*
X67868000Y-81609000D01*
X64008000Y-81374000D02*
X67868000Y-81374000D01*
X75420000Y-64130000D02*
X75750000Y-64460000D01*
X75750000Y-64460000D02*
X75750000Y-68040000D01*
X72310000Y-66610000D02*
X72310000Y-64010000D01*
D11*
X60360000Y-80016000D02*
X66335000Y-80016000D01*
X61935000Y-74491000D02*
X66335000Y-74491000D01*
D10*
X55390000Y-66680000D02*
X55060000Y-66350000D01*
X55060000Y-66350000D02*
X55060000Y-62770000D01*
X58500000Y-64200000D02*
X58500000Y-66800000D01*
X71037267Y-74424000D02*
X70694733Y-74424000D01*
X71037267Y-73404000D02*
X70694733Y-73404000D01*
X57486733Y-74928000D02*
X57829267Y-74928000D01*
X57486733Y-75948000D02*
X57829267Y-75948000D01*
X52406733Y-65276000D02*
X52749267Y-65276000D01*
X52406733Y-66296000D02*
X52749267Y-66296000D01*
X70106000Y-64598733D02*
X70106000Y-64941267D01*
X69086000Y-64598733D02*
X69086000Y-64941267D01*
X70440733Y-59942000D02*
X70783267Y-59942000D01*
X70440733Y-60962000D02*
X70783267Y-60962000D01*
X60450000Y-64941267D02*
X60450000Y-64598733D01*
X61470000Y-64941267D02*
X61470000Y-64598733D01*
X58418000Y-70783267D02*
X58418000Y-70440733D01*
X59438000Y-70783267D02*
X59438000Y-70440733D01*
X72472733Y-78230000D02*
X72815267Y-78230000D01*
X72472733Y-79250000D02*
X72815267Y-79250000D01*
D11*
X56588000Y-84430000D02*
X54788000Y-84430000D01*
X56588000Y-90830000D02*
X56588000Y-84430000D01*
X54788000Y-90830000D02*
X56588000Y-90830000D01*
X71682000Y-90830000D02*
X73482000Y-90830000D01*
X71682000Y-84430000D02*
X71682000Y-90830000D01*
X73482000Y-84430000D02*
X71682000Y-84430000D01*
D10*
X65822000Y-59500000D02*
X65822000Y-59656000D01*
X65822000Y-57184000D02*
X65822000Y-57340000D01*
X63220870Y-59499837D02*
G75*
G03X65302961Y-59500000I1041130J1079837D01*
G01*
X63220870Y-57340163D02*
G75*
G02X65302961Y-57340000I1041130J-1079837D01*
G01*
X62589665Y-59498608D02*
G75*
G03X65822000Y-59655516I1672335J1078608D01*
G01*
X62589665Y-57341392D02*
G75*
G02X65822000Y-57184484I1672335J-1078608D01*
G01*
X71037267Y-70106000D02*
X70694733Y-70106000D01*
X71037267Y-69086000D02*
X70694733Y-69086000D01*
X71037267Y-72392000D02*
X70694733Y-72392000D01*
X71037267Y-71372000D02*
X70694733Y-71372000D01*
X72472733Y-75182000D02*
X72815267Y-75182000D01*
X72472733Y-76202000D02*
X72815267Y-76202000D01*
D11*
X64769904Y-94686380D02*
X64769904Y-95495904D01*
X64722285Y-95591142D01*
X64674666Y-95638761D01*
X64579428Y-95686380D01*
X64388952Y-95686380D01*
X64293714Y-95638761D01*
X64246095Y-95591142D01*
X64198476Y-95495904D01*
X64198476Y-94686380D01*
X63198476Y-95686380D02*
X63769904Y-95686380D01*
X63484190Y-95686380D02*
X63484190Y-94686380D01*
X63579428Y-94829238D01*
X63674666Y-94924476D01*
X63769904Y-94972095D01*
X75882380Y-64548095D02*
X76691904Y-64548095D01*
X76787142Y-64595714D01*
X76834761Y-64643333D01*
X76882380Y-64738571D01*
X76882380Y-64929047D01*
X76834761Y-65024285D01*
X76787142Y-65071904D01*
X76691904Y-65119523D01*
X75882380Y-65119523D01*
X76215714Y-66024285D02*
X76882380Y-66024285D01*
X75834761Y-65786190D02*
X76549047Y-65548095D01*
X76549047Y-66167142D01*
X64896904Y-80218380D02*
X64896904Y-81027904D01*
X64849285Y-81123142D01*
X64801666Y-81170761D01*
X64706428Y-81218380D01*
X64515952Y-81218380D01*
X64420714Y-81170761D01*
X64373095Y-81123142D01*
X64325476Y-81027904D01*
X64325476Y-80218380D01*
X63944523Y-80218380D02*
X63325476Y-80218380D01*
X63658809Y-80599333D01*
X63515952Y-80599333D01*
X63420714Y-80646952D01*
X63373095Y-80694571D01*
X63325476Y-80789809D01*
X63325476Y-81027904D01*
X63373095Y-81123142D01*
X63420714Y-81170761D01*
X63515952Y-81218380D01*
X63801666Y-81218380D01*
X63896904Y-81170761D01*
X63944523Y-81123142D01*
X54927619Y-66261904D02*
X54118095Y-66261904D01*
X54022857Y-66214285D01*
X53975238Y-66166666D01*
X53927619Y-66071428D01*
X53927619Y-65880952D01*
X53975238Y-65785714D01*
X54022857Y-65738095D01*
X54118095Y-65690476D01*
X54927619Y-65690476D01*
X54832380Y-65261904D02*
X54880000Y-65214285D01*
X54927619Y-65119047D01*
X54927619Y-64880952D01*
X54880000Y-64785714D01*
X54832380Y-64738095D01*
X54737142Y-64690476D01*
X54641904Y-64690476D01*
X54499047Y-64738095D01*
X53927619Y-65309523D01*
X53927619Y-64690476D01*
X71032666Y-72936380D02*
X71366000Y-72460190D01*
X71604095Y-72936380D02*
X71604095Y-71936380D01*
X71223142Y-71936380D01*
X71127904Y-71984000D01*
X71080285Y-72031619D01*
X71032666Y-72126857D01*
X71032666Y-72269714D01*
X71080285Y-72364952D01*
X71127904Y-72412571D01*
X71223142Y-72460190D01*
X71604095Y-72460190D01*
X70461238Y-72364952D02*
X70556476Y-72317333D01*
X70604095Y-72269714D01*
X70651714Y-72174476D01*
X70651714Y-72126857D01*
X70604095Y-72031619D01*
X70556476Y-71984000D01*
X70461238Y-71936380D01*
X70270761Y-71936380D01*
X70175523Y-71984000D01*
X70127904Y-72031619D01*
X70080285Y-72126857D01*
X70080285Y-72174476D01*
X70127904Y-72269714D01*
X70175523Y-72317333D01*
X70270761Y-72364952D01*
X70461238Y-72364952D01*
X70556476Y-72412571D01*
X70604095Y-72460190D01*
X70651714Y-72555428D01*
X70651714Y-72745904D01*
X70604095Y-72841142D01*
X70556476Y-72888761D01*
X70461238Y-72936380D01*
X70270761Y-72936380D01*
X70175523Y-72888761D01*
X70127904Y-72841142D01*
X70080285Y-72745904D01*
X70080285Y-72555428D01*
X70127904Y-72460190D01*
X70175523Y-72412571D01*
X70270761Y-72364952D01*
X57824666Y-77320380D02*
X58158000Y-76844190D01*
X58396095Y-77320380D02*
X58396095Y-76320380D01*
X58015142Y-76320380D01*
X57919904Y-76368000D01*
X57872285Y-76415619D01*
X57824666Y-76510857D01*
X57824666Y-76653714D01*
X57872285Y-76748952D01*
X57919904Y-76796571D01*
X58015142Y-76844190D01*
X58396095Y-76844190D01*
X57491333Y-76320380D02*
X56824666Y-76320380D01*
X57253238Y-77320380D01*
X52744666Y-67668380D02*
X53078000Y-67192190D01*
X53316095Y-67668380D02*
X53316095Y-66668380D01*
X52935142Y-66668380D01*
X52839904Y-66716000D01*
X52792285Y-66763619D01*
X52744666Y-66858857D01*
X52744666Y-67001714D01*
X52792285Y-67096952D01*
X52839904Y-67144571D01*
X52935142Y-67192190D01*
X53316095Y-67192190D01*
X51887523Y-66668380D02*
X52078000Y-66668380D01*
X52173238Y-66716000D01*
X52220857Y-66763619D01*
X52316095Y-66906476D01*
X52363714Y-67096952D01*
X52363714Y-67477904D01*
X52316095Y-67573142D01*
X52268476Y-67620761D01*
X52173238Y-67668380D01*
X51982761Y-67668380D01*
X51887523Y-67620761D01*
X51839904Y-67573142D01*
X51792285Y-67477904D01*
X51792285Y-67239809D01*
X51839904Y-67144571D01*
X51887523Y-67096952D01*
X51982761Y-67049333D01*
X52173238Y-67049333D01*
X52268476Y-67096952D01*
X52316095Y-67144571D01*
X52363714Y-67239809D01*
X68618380Y-64603333D02*
X68142190Y-64270000D01*
X68618380Y-64031904D02*
X67618380Y-64031904D01*
X67618380Y-64412857D01*
X67666000Y-64508095D01*
X67713619Y-64555714D01*
X67808857Y-64603333D01*
X67951714Y-64603333D01*
X68046952Y-64555714D01*
X68094571Y-64508095D01*
X68142190Y-64412857D01*
X68142190Y-64031904D01*
X67618380Y-65508095D02*
X67618380Y-65031904D01*
X68094571Y-64984285D01*
X68046952Y-65031904D01*
X67999333Y-65127142D01*
X67999333Y-65365238D01*
X68046952Y-65460476D01*
X68094571Y-65508095D01*
X68189809Y-65555714D01*
X68427904Y-65555714D01*
X68523142Y-65508095D01*
X68570761Y-65460476D01*
X68618380Y-65365238D01*
X68618380Y-65127142D01*
X68570761Y-65031904D01*
X68523142Y-64984285D01*
X70778666Y-62334380D02*
X71112000Y-61858190D01*
X71350095Y-62334380D02*
X71350095Y-61334380D01*
X70969142Y-61334380D01*
X70873904Y-61382000D01*
X70826285Y-61429619D01*
X70778666Y-61524857D01*
X70778666Y-61667714D01*
X70826285Y-61762952D01*
X70873904Y-61810571D01*
X70969142Y-61858190D01*
X71350095Y-61858190D01*
X69921523Y-61667714D02*
X69921523Y-62334380D01*
X70159619Y-61286761D02*
X70397714Y-62001047D01*
X69778666Y-62001047D01*
X62842380Y-64603333D02*
X62366190Y-64270000D01*
X62842380Y-64031904D02*
X61842380Y-64031904D01*
X61842380Y-64412857D01*
X61890000Y-64508095D01*
X61937619Y-64555714D01*
X62032857Y-64603333D01*
X62175714Y-64603333D01*
X62270952Y-64555714D01*
X62318571Y-64508095D01*
X62366190Y-64412857D01*
X62366190Y-64031904D01*
X61842380Y-64936666D02*
X61842380Y-65555714D01*
X62223333Y-65222380D01*
X62223333Y-65365238D01*
X62270952Y-65460476D01*
X62318571Y-65508095D01*
X62413809Y-65555714D01*
X62651904Y-65555714D01*
X62747142Y-65508095D01*
X62794761Y-65460476D01*
X62842380Y-65365238D01*
X62842380Y-65079523D01*
X62794761Y-64984285D01*
X62747142Y-64936666D01*
X60810380Y-70445333D02*
X60334190Y-70112000D01*
X60810380Y-69873904D02*
X59810380Y-69873904D01*
X59810380Y-70254857D01*
X59858000Y-70350095D01*
X59905619Y-70397714D01*
X60000857Y-70445333D01*
X60143714Y-70445333D01*
X60238952Y-70397714D01*
X60286571Y-70350095D01*
X60334190Y-70254857D01*
X60334190Y-69873904D01*
X59905619Y-70826285D02*
X59858000Y-70873904D01*
X59810380Y-70969142D01*
X59810380Y-71207238D01*
X59858000Y-71302476D01*
X59905619Y-71350095D01*
X60000857Y-71397714D01*
X60096095Y-71397714D01*
X60238952Y-71350095D01*
X60810380Y-70778666D01*
X60810380Y-71397714D01*
X72810666Y-80622380D02*
X73144000Y-80146190D01*
X73382095Y-80622380D02*
X73382095Y-79622380D01*
X73001142Y-79622380D01*
X72905904Y-79670000D01*
X72858285Y-79717619D01*
X72810666Y-79812857D01*
X72810666Y-79955714D01*
X72858285Y-80050952D01*
X72905904Y-80098571D01*
X73001142Y-80146190D01*
X73382095Y-80146190D01*
X71858285Y-80622380D02*
X72429714Y-80622380D01*
X72144000Y-80622380D02*
X72144000Y-79622380D01*
X72239238Y-79765238D01*
X72334476Y-79860476D01*
X72429714Y-79908095D01*
X57840380Y-86420476D02*
X56840380Y-86420476D01*
X57554666Y-86753809D01*
X56840380Y-87087142D01*
X57840380Y-87087142D01*
X56935619Y-87515714D02*
X56888000Y-87563333D01*
X56840380Y-87658571D01*
X56840380Y-87896666D01*
X56888000Y-87991904D01*
X56935619Y-88039523D01*
X57030857Y-88087142D01*
X57126095Y-88087142D01*
X57268952Y-88039523D01*
X57840380Y-87468095D01*
X57840380Y-88087142D01*
X71334380Y-87220476D02*
X70334380Y-87220476D01*
X71048666Y-87553809D01*
X70334380Y-87887142D01*
X71334380Y-87887142D01*
X71334380Y-88887142D02*
X71334380Y-88315714D01*
X71334380Y-88601428D02*
X70334380Y-88601428D01*
X70477238Y-88506190D01*
X70572476Y-88410952D01*
X70620095Y-88315714D01*
X65000095Y-55912380D02*
X65000095Y-54912380D01*
X64762000Y-54912380D01*
X64619142Y-54960000D01*
X64523904Y-55055238D01*
X64476285Y-55150476D01*
X64428666Y-55340952D01*
X64428666Y-55483809D01*
X64476285Y-55674285D01*
X64523904Y-55769523D01*
X64619142Y-55864761D01*
X64762000Y-55912380D01*
X65000095Y-55912380D01*
X64047714Y-55007619D02*
X64000095Y-54960000D01*
X63904857Y-54912380D01*
X63666761Y-54912380D01*
X63571523Y-54960000D01*
X63523904Y-55007619D01*
X63476285Y-55102857D01*
X63476285Y-55198095D01*
X63523904Y-55340952D01*
X64095333Y-55912380D01*
X63476285Y-55912380D01*
X71032666Y-68523142D02*
X71080285Y-68570761D01*
X71223142Y-68618380D01*
X71318380Y-68618380D01*
X71461238Y-68570761D01*
X71556476Y-68475523D01*
X71604095Y-68380285D01*
X71651714Y-68189809D01*
X71651714Y-68046952D01*
X71604095Y-67856476D01*
X71556476Y-67761238D01*
X71461238Y-67666000D01*
X71318380Y-67618380D01*
X71223142Y-67618380D01*
X71080285Y-67666000D01*
X71032666Y-67713619D01*
X70699333Y-67618380D02*
X70080285Y-67618380D01*
X70413619Y-67999333D01*
X70270761Y-67999333D01*
X70175523Y-68046952D01*
X70127904Y-68094571D01*
X70080285Y-68189809D01*
X70080285Y-68427904D01*
X70127904Y-68523142D01*
X70175523Y-68570761D01*
X70270761Y-68618380D01*
X70556476Y-68618380D01*
X70651714Y-68570761D01*
X70699333Y-68523142D01*
X71032666Y-70809142D02*
X71080285Y-70856761D01*
X71223142Y-70904380D01*
X71318380Y-70904380D01*
X71461238Y-70856761D01*
X71556476Y-70761523D01*
X71604095Y-70666285D01*
X71651714Y-70475809D01*
X71651714Y-70332952D01*
X71604095Y-70142476D01*
X71556476Y-70047238D01*
X71461238Y-69952000D01*
X71318380Y-69904380D01*
X71223142Y-69904380D01*
X71080285Y-69952000D01*
X71032666Y-69999619D01*
X70651714Y-69999619D02*
X70604095Y-69952000D01*
X70508857Y-69904380D01*
X70270761Y-69904380D01*
X70175523Y-69952000D01*
X70127904Y-69999619D01*
X70080285Y-70094857D01*
X70080285Y-70190095D01*
X70127904Y-70332952D01*
X70699333Y-70904380D01*
X70080285Y-70904380D01*
X72810666Y-77479142D02*
X72858285Y-77526761D01*
X73001142Y-77574380D01*
X73096380Y-77574380D01*
X73239238Y-77526761D01*
X73334476Y-77431523D01*
X73382095Y-77336285D01*
X73429714Y-77145809D01*
X73429714Y-77002952D01*
X73382095Y-76812476D01*
X73334476Y-76717238D01*
X73239238Y-76622000D01*
X73096380Y-76574380D01*
X73001142Y-76574380D01*
X72858285Y-76622000D01*
X72810666Y-76669619D01*
X71858285Y-77574380D02*
X72429714Y-77574380D01*
X72144000Y-77574380D02*
X72144000Y-76574380D01*
X72239238Y-76717238D01*
X72334476Y-76812476D01*
X72429714Y-76860095D01*
M02*
