G04 #@! TF.GenerationSoftware,KiCad,Pcbnew,(5.1.5)-3*
G04 #@! TF.CreationDate,2020-04-08T22:33:11-07:00*
G04 #@! TF.ProjectId,microbug,6d696372-6f62-4756-972e-6b696361645f,rev?*
G04 #@! TF.SameCoordinates,Original*
G04 #@! TF.FileFunction,Paste,Bot*
G04 #@! TF.FilePolarity,Positive*
%FSLAX46Y46*%
G04 Gerber Fmt 4.6, Leading zero omitted, Abs format (unit mm)*
G04 Created by KiCad (PCBNEW (5.1.5)-3) date 2020-04-08 22:33:11*
%MOMM*%
%LPD*%
G04 APERTURE LIST*
%ADD10C,0.100000*%
%ADD11R,1.500000X0.450000*%
%ADD12R,2.200000X2.200000*%
G04 APERTURE END LIST*
D10*
G36*
X69547703Y-93299722D02*
G01*
X69562264Y-93301882D01*
X69576543Y-93305459D01*
X69590403Y-93310418D01*
X69603710Y-93316712D01*
X69616336Y-93324280D01*
X69628159Y-93333048D01*
X69639066Y-93342934D01*
X69648952Y-93353841D01*
X69657720Y-93365664D01*
X69665288Y-93378290D01*
X69671582Y-93391597D01*
X69676541Y-93405457D01*
X69680118Y-93419736D01*
X69682278Y-93434297D01*
X69683000Y-93449000D01*
X69683000Y-93749000D01*
X69682278Y-93763703D01*
X69680118Y-93778264D01*
X69676541Y-93792543D01*
X69671582Y-93806403D01*
X69665288Y-93819710D01*
X69657720Y-93832336D01*
X69648952Y-93844159D01*
X69639066Y-93855066D01*
X69628159Y-93864952D01*
X69616336Y-93873720D01*
X69603710Y-93881288D01*
X69590403Y-93887582D01*
X69576543Y-93892541D01*
X69562264Y-93896118D01*
X69547703Y-93898278D01*
X69533000Y-93899000D01*
X67783000Y-93899000D01*
X67768297Y-93898278D01*
X67753736Y-93896118D01*
X67739457Y-93892541D01*
X67725597Y-93887582D01*
X67712290Y-93881288D01*
X67699664Y-93873720D01*
X67687841Y-93864952D01*
X67676934Y-93855066D01*
X67667048Y-93844159D01*
X67658280Y-93832336D01*
X67650712Y-93819710D01*
X67644418Y-93806403D01*
X67639459Y-93792543D01*
X67635882Y-93778264D01*
X67633722Y-93763703D01*
X67633000Y-93749000D01*
X67633000Y-93449000D01*
X67633722Y-93434297D01*
X67635882Y-93419736D01*
X67639459Y-93405457D01*
X67644418Y-93391597D01*
X67650712Y-93378290D01*
X67658280Y-93365664D01*
X67667048Y-93353841D01*
X67676934Y-93342934D01*
X67687841Y-93333048D01*
X67699664Y-93324280D01*
X67712290Y-93316712D01*
X67725597Y-93310418D01*
X67739457Y-93305459D01*
X67753736Y-93301882D01*
X67768297Y-93299722D01*
X67783000Y-93299000D01*
X69533000Y-93299000D01*
X69547703Y-93299722D01*
G37*
G36*
X69547703Y-92029722D02*
G01*
X69562264Y-92031882D01*
X69576543Y-92035459D01*
X69590403Y-92040418D01*
X69603710Y-92046712D01*
X69616336Y-92054280D01*
X69628159Y-92063048D01*
X69639066Y-92072934D01*
X69648952Y-92083841D01*
X69657720Y-92095664D01*
X69665288Y-92108290D01*
X69671582Y-92121597D01*
X69676541Y-92135457D01*
X69680118Y-92149736D01*
X69682278Y-92164297D01*
X69683000Y-92179000D01*
X69683000Y-92479000D01*
X69682278Y-92493703D01*
X69680118Y-92508264D01*
X69676541Y-92522543D01*
X69671582Y-92536403D01*
X69665288Y-92549710D01*
X69657720Y-92562336D01*
X69648952Y-92574159D01*
X69639066Y-92585066D01*
X69628159Y-92594952D01*
X69616336Y-92603720D01*
X69603710Y-92611288D01*
X69590403Y-92617582D01*
X69576543Y-92622541D01*
X69562264Y-92626118D01*
X69547703Y-92628278D01*
X69533000Y-92629000D01*
X67783000Y-92629000D01*
X67768297Y-92628278D01*
X67753736Y-92626118D01*
X67739457Y-92622541D01*
X67725597Y-92617582D01*
X67712290Y-92611288D01*
X67699664Y-92603720D01*
X67687841Y-92594952D01*
X67676934Y-92585066D01*
X67667048Y-92574159D01*
X67658280Y-92562336D01*
X67650712Y-92549710D01*
X67644418Y-92536403D01*
X67639459Y-92522543D01*
X67635882Y-92508264D01*
X67633722Y-92493703D01*
X67633000Y-92479000D01*
X67633000Y-92179000D01*
X67633722Y-92164297D01*
X67635882Y-92149736D01*
X67639459Y-92135457D01*
X67644418Y-92121597D01*
X67650712Y-92108290D01*
X67658280Y-92095664D01*
X67667048Y-92083841D01*
X67676934Y-92072934D01*
X67687841Y-92063048D01*
X67699664Y-92054280D01*
X67712290Y-92046712D01*
X67725597Y-92040418D01*
X67739457Y-92035459D01*
X67753736Y-92031882D01*
X67768297Y-92029722D01*
X67783000Y-92029000D01*
X69533000Y-92029000D01*
X69547703Y-92029722D01*
G37*
G36*
X69547703Y-90759722D02*
G01*
X69562264Y-90761882D01*
X69576543Y-90765459D01*
X69590403Y-90770418D01*
X69603710Y-90776712D01*
X69616336Y-90784280D01*
X69628159Y-90793048D01*
X69639066Y-90802934D01*
X69648952Y-90813841D01*
X69657720Y-90825664D01*
X69665288Y-90838290D01*
X69671582Y-90851597D01*
X69676541Y-90865457D01*
X69680118Y-90879736D01*
X69682278Y-90894297D01*
X69683000Y-90909000D01*
X69683000Y-91209000D01*
X69682278Y-91223703D01*
X69680118Y-91238264D01*
X69676541Y-91252543D01*
X69671582Y-91266403D01*
X69665288Y-91279710D01*
X69657720Y-91292336D01*
X69648952Y-91304159D01*
X69639066Y-91315066D01*
X69628159Y-91324952D01*
X69616336Y-91333720D01*
X69603710Y-91341288D01*
X69590403Y-91347582D01*
X69576543Y-91352541D01*
X69562264Y-91356118D01*
X69547703Y-91358278D01*
X69533000Y-91359000D01*
X67783000Y-91359000D01*
X67768297Y-91358278D01*
X67753736Y-91356118D01*
X67739457Y-91352541D01*
X67725597Y-91347582D01*
X67712290Y-91341288D01*
X67699664Y-91333720D01*
X67687841Y-91324952D01*
X67676934Y-91315066D01*
X67667048Y-91304159D01*
X67658280Y-91292336D01*
X67650712Y-91279710D01*
X67644418Y-91266403D01*
X67639459Y-91252543D01*
X67635882Y-91238264D01*
X67633722Y-91223703D01*
X67633000Y-91209000D01*
X67633000Y-90909000D01*
X67633722Y-90894297D01*
X67635882Y-90879736D01*
X67639459Y-90865457D01*
X67644418Y-90851597D01*
X67650712Y-90838290D01*
X67658280Y-90825664D01*
X67667048Y-90813841D01*
X67676934Y-90802934D01*
X67687841Y-90793048D01*
X67699664Y-90784280D01*
X67712290Y-90776712D01*
X67725597Y-90770418D01*
X67739457Y-90765459D01*
X67753736Y-90761882D01*
X67768297Y-90759722D01*
X67783000Y-90759000D01*
X69533000Y-90759000D01*
X69547703Y-90759722D01*
G37*
G36*
X69547703Y-89489722D02*
G01*
X69562264Y-89491882D01*
X69576543Y-89495459D01*
X69590403Y-89500418D01*
X69603710Y-89506712D01*
X69616336Y-89514280D01*
X69628159Y-89523048D01*
X69639066Y-89532934D01*
X69648952Y-89543841D01*
X69657720Y-89555664D01*
X69665288Y-89568290D01*
X69671582Y-89581597D01*
X69676541Y-89595457D01*
X69680118Y-89609736D01*
X69682278Y-89624297D01*
X69683000Y-89639000D01*
X69683000Y-89939000D01*
X69682278Y-89953703D01*
X69680118Y-89968264D01*
X69676541Y-89982543D01*
X69671582Y-89996403D01*
X69665288Y-90009710D01*
X69657720Y-90022336D01*
X69648952Y-90034159D01*
X69639066Y-90045066D01*
X69628159Y-90054952D01*
X69616336Y-90063720D01*
X69603710Y-90071288D01*
X69590403Y-90077582D01*
X69576543Y-90082541D01*
X69562264Y-90086118D01*
X69547703Y-90088278D01*
X69533000Y-90089000D01*
X67783000Y-90089000D01*
X67768297Y-90088278D01*
X67753736Y-90086118D01*
X67739457Y-90082541D01*
X67725597Y-90077582D01*
X67712290Y-90071288D01*
X67699664Y-90063720D01*
X67687841Y-90054952D01*
X67676934Y-90045066D01*
X67667048Y-90034159D01*
X67658280Y-90022336D01*
X67650712Y-90009710D01*
X67644418Y-89996403D01*
X67639459Y-89982543D01*
X67635882Y-89968264D01*
X67633722Y-89953703D01*
X67633000Y-89939000D01*
X67633000Y-89639000D01*
X67633722Y-89624297D01*
X67635882Y-89609736D01*
X67639459Y-89595457D01*
X67644418Y-89581597D01*
X67650712Y-89568290D01*
X67658280Y-89555664D01*
X67667048Y-89543841D01*
X67676934Y-89532934D01*
X67687841Y-89523048D01*
X67699664Y-89514280D01*
X67712290Y-89506712D01*
X67725597Y-89500418D01*
X67739457Y-89495459D01*
X67753736Y-89491882D01*
X67768297Y-89489722D01*
X67783000Y-89489000D01*
X69533000Y-89489000D01*
X69547703Y-89489722D01*
G37*
G36*
X69547703Y-88219722D02*
G01*
X69562264Y-88221882D01*
X69576543Y-88225459D01*
X69590403Y-88230418D01*
X69603710Y-88236712D01*
X69616336Y-88244280D01*
X69628159Y-88253048D01*
X69639066Y-88262934D01*
X69648952Y-88273841D01*
X69657720Y-88285664D01*
X69665288Y-88298290D01*
X69671582Y-88311597D01*
X69676541Y-88325457D01*
X69680118Y-88339736D01*
X69682278Y-88354297D01*
X69683000Y-88369000D01*
X69683000Y-88669000D01*
X69682278Y-88683703D01*
X69680118Y-88698264D01*
X69676541Y-88712543D01*
X69671582Y-88726403D01*
X69665288Y-88739710D01*
X69657720Y-88752336D01*
X69648952Y-88764159D01*
X69639066Y-88775066D01*
X69628159Y-88784952D01*
X69616336Y-88793720D01*
X69603710Y-88801288D01*
X69590403Y-88807582D01*
X69576543Y-88812541D01*
X69562264Y-88816118D01*
X69547703Y-88818278D01*
X69533000Y-88819000D01*
X67783000Y-88819000D01*
X67768297Y-88818278D01*
X67753736Y-88816118D01*
X67739457Y-88812541D01*
X67725597Y-88807582D01*
X67712290Y-88801288D01*
X67699664Y-88793720D01*
X67687841Y-88784952D01*
X67676934Y-88775066D01*
X67667048Y-88764159D01*
X67658280Y-88752336D01*
X67650712Y-88739710D01*
X67644418Y-88726403D01*
X67639459Y-88712543D01*
X67635882Y-88698264D01*
X67633722Y-88683703D01*
X67633000Y-88669000D01*
X67633000Y-88369000D01*
X67633722Y-88354297D01*
X67635882Y-88339736D01*
X67639459Y-88325457D01*
X67644418Y-88311597D01*
X67650712Y-88298290D01*
X67658280Y-88285664D01*
X67667048Y-88273841D01*
X67676934Y-88262934D01*
X67687841Y-88253048D01*
X67699664Y-88244280D01*
X67712290Y-88236712D01*
X67725597Y-88230418D01*
X67739457Y-88225459D01*
X67753736Y-88221882D01*
X67768297Y-88219722D01*
X67783000Y-88219000D01*
X69533000Y-88219000D01*
X69547703Y-88219722D01*
G37*
G36*
X69547703Y-86949722D02*
G01*
X69562264Y-86951882D01*
X69576543Y-86955459D01*
X69590403Y-86960418D01*
X69603710Y-86966712D01*
X69616336Y-86974280D01*
X69628159Y-86983048D01*
X69639066Y-86992934D01*
X69648952Y-87003841D01*
X69657720Y-87015664D01*
X69665288Y-87028290D01*
X69671582Y-87041597D01*
X69676541Y-87055457D01*
X69680118Y-87069736D01*
X69682278Y-87084297D01*
X69683000Y-87099000D01*
X69683000Y-87399000D01*
X69682278Y-87413703D01*
X69680118Y-87428264D01*
X69676541Y-87442543D01*
X69671582Y-87456403D01*
X69665288Y-87469710D01*
X69657720Y-87482336D01*
X69648952Y-87494159D01*
X69639066Y-87505066D01*
X69628159Y-87514952D01*
X69616336Y-87523720D01*
X69603710Y-87531288D01*
X69590403Y-87537582D01*
X69576543Y-87542541D01*
X69562264Y-87546118D01*
X69547703Y-87548278D01*
X69533000Y-87549000D01*
X67783000Y-87549000D01*
X67768297Y-87548278D01*
X67753736Y-87546118D01*
X67739457Y-87542541D01*
X67725597Y-87537582D01*
X67712290Y-87531288D01*
X67699664Y-87523720D01*
X67687841Y-87514952D01*
X67676934Y-87505066D01*
X67667048Y-87494159D01*
X67658280Y-87482336D01*
X67650712Y-87469710D01*
X67644418Y-87456403D01*
X67639459Y-87442543D01*
X67635882Y-87428264D01*
X67633722Y-87413703D01*
X67633000Y-87399000D01*
X67633000Y-87099000D01*
X67633722Y-87084297D01*
X67635882Y-87069736D01*
X67639459Y-87055457D01*
X67644418Y-87041597D01*
X67650712Y-87028290D01*
X67658280Y-87015664D01*
X67667048Y-87003841D01*
X67676934Y-86992934D01*
X67687841Y-86983048D01*
X67699664Y-86974280D01*
X67712290Y-86966712D01*
X67725597Y-86960418D01*
X67739457Y-86955459D01*
X67753736Y-86951882D01*
X67768297Y-86949722D01*
X67783000Y-86949000D01*
X69533000Y-86949000D01*
X69547703Y-86949722D01*
G37*
G36*
X69547703Y-85679722D02*
G01*
X69562264Y-85681882D01*
X69576543Y-85685459D01*
X69590403Y-85690418D01*
X69603710Y-85696712D01*
X69616336Y-85704280D01*
X69628159Y-85713048D01*
X69639066Y-85722934D01*
X69648952Y-85733841D01*
X69657720Y-85745664D01*
X69665288Y-85758290D01*
X69671582Y-85771597D01*
X69676541Y-85785457D01*
X69680118Y-85799736D01*
X69682278Y-85814297D01*
X69683000Y-85829000D01*
X69683000Y-86129000D01*
X69682278Y-86143703D01*
X69680118Y-86158264D01*
X69676541Y-86172543D01*
X69671582Y-86186403D01*
X69665288Y-86199710D01*
X69657720Y-86212336D01*
X69648952Y-86224159D01*
X69639066Y-86235066D01*
X69628159Y-86244952D01*
X69616336Y-86253720D01*
X69603710Y-86261288D01*
X69590403Y-86267582D01*
X69576543Y-86272541D01*
X69562264Y-86276118D01*
X69547703Y-86278278D01*
X69533000Y-86279000D01*
X67783000Y-86279000D01*
X67768297Y-86278278D01*
X67753736Y-86276118D01*
X67739457Y-86272541D01*
X67725597Y-86267582D01*
X67712290Y-86261288D01*
X67699664Y-86253720D01*
X67687841Y-86244952D01*
X67676934Y-86235066D01*
X67667048Y-86224159D01*
X67658280Y-86212336D01*
X67650712Y-86199710D01*
X67644418Y-86186403D01*
X67639459Y-86172543D01*
X67635882Y-86158264D01*
X67633722Y-86143703D01*
X67633000Y-86129000D01*
X67633000Y-85829000D01*
X67633722Y-85814297D01*
X67635882Y-85799736D01*
X67639459Y-85785457D01*
X67644418Y-85771597D01*
X67650712Y-85758290D01*
X67658280Y-85745664D01*
X67667048Y-85733841D01*
X67676934Y-85722934D01*
X67687841Y-85713048D01*
X67699664Y-85704280D01*
X67712290Y-85696712D01*
X67725597Y-85690418D01*
X67739457Y-85685459D01*
X67753736Y-85681882D01*
X67768297Y-85679722D01*
X67783000Y-85679000D01*
X69533000Y-85679000D01*
X69547703Y-85679722D01*
G37*
G36*
X69547703Y-84409722D02*
G01*
X69562264Y-84411882D01*
X69576543Y-84415459D01*
X69590403Y-84420418D01*
X69603710Y-84426712D01*
X69616336Y-84434280D01*
X69628159Y-84443048D01*
X69639066Y-84452934D01*
X69648952Y-84463841D01*
X69657720Y-84475664D01*
X69665288Y-84488290D01*
X69671582Y-84501597D01*
X69676541Y-84515457D01*
X69680118Y-84529736D01*
X69682278Y-84544297D01*
X69683000Y-84559000D01*
X69683000Y-84859000D01*
X69682278Y-84873703D01*
X69680118Y-84888264D01*
X69676541Y-84902543D01*
X69671582Y-84916403D01*
X69665288Y-84929710D01*
X69657720Y-84942336D01*
X69648952Y-84954159D01*
X69639066Y-84965066D01*
X69628159Y-84974952D01*
X69616336Y-84983720D01*
X69603710Y-84991288D01*
X69590403Y-84997582D01*
X69576543Y-85002541D01*
X69562264Y-85006118D01*
X69547703Y-85008278D01*
X69533000Y-85009000D01*
X67783000Y-85009000D01*
X67768297Y-85008278D01*
X67753736Y-85006118D01*
X67739457Y-85002541D01*
X67725597Y-84997582D01*
X67712290Y-84991288D01*
X67699664Y-84983720D01*
X67687841Y-84974952D01*
X67676934Y-84965066D01*
X67667048Y-84954159D01*
X67658280Y-84942336D01*
X67650712Y-84929710D01*
X67644418Y-84916403D01*
X67639459Y-84902543D01*
X67635882Y-84888264D01*
X67633722Y-84873703D01*
X67633000Y-84859000D01*
X67633000Y-84559000D01*
X67633722Y-84544297D01*
X67635882Y-84529736D01*
X67639459Y-84515457D01*
X67644418Y-84501597D01*
X67650712Y-84488290D01*
X67658280Y-84475664D01*
X67667048Y-84463841D01*
X67676934Y-84452934D01*
X67687841Y-84443048D01*
X67699664Y-84434280D01*
X67712290Y-84426712D01*
X67725597Y-84420418D01*
X67739457Y-84415459D01*
X67753736Y-84411882D01*
X67768297Y-84409722D01*
X67783000Y-84409000D01*
X69533000Y-84409000D01*
X69547703Y-84409722D01*
G37*
G36*
X69547703Y-83139722D02*
G01*
X69562264Y-83141882D01*
X69576543Y-83145459D01*
X69590403Y-83150418D01*
X69603710Y-83156712D01*
X69616336Y-83164280D01*
X69628159Y-83173048D01*
X69639066Y-83182934D01*
X69648952Y-83193841D01*
X69657720Y-83205664D01*
X69665288Y-83218290D01*
X69671582Y-83231597D01*
X69676541Y-83245457D01*
X69680118Y-83259736D01*
X69682278Y-83274297D01*
X69683000Y-83289000D01*
X69683000Y-83589000D01*
X69682278Y-83603703D01*
X69680118Y-83618264D01*
X69676541Y-83632543D01*
X69671582Y-83646403D01*
X69665288Y-83659710D01*
X69657720Y-83672336D01*
X69648952Y-83684159D01*
X69639066Y-83695066D01*
X69628159Y-83704952D01*
X69616336Y-83713720D01*
X69603710Y-83721288D01*
X69590403Y-83727582D01*
X69576543Y-83732541D01*
X69562264Y-83736118D01*
X69547703Y-83738278D01*
X69533000Y-83739000D01*
X67783000Y-83739000D01*
X67768297Y-83738278D01*
X67753736Y-83736118D01*
X67739457Y-83732541D01*
X67725597Y-83727582D01*
X67712290Y-83721288D01*
X67699664Y-83713720D01*
X67687841Y-83704952D01*
X67676934Y-83695066D01*
X67667048Y-83684159D01*
X67658280Y-83672336D01*
X67650712Y-83659710D01*
X67644418Y-83646403D01*
X67639459Y-83632543D01*
X67635882Y-83618264D01*
X67633722Y-83603703D01*
X67633000Y-83589000D01*
X67633000Y-83289000D01*
X67633722Y-83274297D01*
X67635882Y-83259736D01*
X67639459Y-83245457D01*
X67644418Y-83231597D01*
X67650712Y-83218290D01*
X67658280Y-83205664D01*
X67667048Y-83193841D01*
X67676934Y-83182934D01*
X67687841Y-83173048D01*
X67699664Y-83164280D01*
X67712290Y-83156712D01*
X67725597Y-83150418D01*
X67739457Y-83145459D01*
X67753736Y-83141882D01*
X67768297Y-83139722D01*
X67783000Y-83139000D01*
X69533000Y-83139000D01*
X69547703Y-83139722D01*
G37*
G36*
X69547703Y-81869722D02*
G01*
X69562264Y-81871882D01*
X69576543Y-81875459D01*
X69590403Y-81880418D01*
X69603710Y-81886712D01*
X69616336Y-81894280D01*
X69628159Y-81903048D01*
X69639066Y-81912934D01*
X69648952Y-81923841D01*
X69657720Y-81935664D01*
X69665288Y-81948290D01*
X69671582Y-81961597D01*
X69676541Y-81975457D01*
X69680118Y-81989736D01*
X69682278Y-82004297D01*
X69683000Y-82019000D01*
X69683000Y-82319000D01*
X69682278Y-82333703D01*
X69680118Y-82348264D01*
X69676541Y-82362543D01*
X69671582Y-82376403D01*
X69665288Y-82389710D01*
X69657720Y-82402336D01*
X69648952Y-82414159D01*
X69639066Y-82425066D01*
X69628159Y-82434952D01*
X69616336Y-82443720D01*
X69603710Y-82451288D01*
X69590403Y-82457582D01*
X69576543Y-82462541D01*
X69562264Y-82466118D01*
X69547703Y-82468278D01*
X69533000Y-82469000D01*
X67783000Y-82469000D01*
X67768297Y-82468278D01*
X67753736Y-82466118D01*
X67739457Y-82462541D01*
X67725597Y-82457582D01*
X67712290Y-82451288D01*
X67699664Y-82443720D01*
X67687841Y-82434952D01*
X67676934Y-82425066D01*
X67667048Y-82414159D01*
X67658280Y-82402336D01*
X67650712Y-82389710D01*
X67644418Y-82376403D01*
X67639459Y-82362543D01*
X67635882Y-82348264D01*
X67633722Y-82333703D01*
X67633000Y-82319000D01*
X67633000Y-82019000D01*
X67633722Y-82004297D01*
X67635882Y-81989736D01*
X67639459Y-81975457D01*
X67644418Y-81961597D01*
X67650712Y-81948290D01*
X67658280Y-81935664D01*
X67667048Y-81923841D01*
X67676934Y-81912934D01*
X67687841Y-81903048D01*
X67699664Y-81894280D01*
X67712290Y-81886712D01*
X67725597Y-81880418D01*
X67739457Y-81875459D01*
X67753736Y-81871882D01*
X67768297Y-81869722D01*
X67783000Y-81869000D01*
X69533000Y-81869000D01*
X69547703Y-81869722D01*
G37*
G36*
X60247703Y-81869722D02*
G01*
X60262264Y-81871882D01*
X60276543Y-81875459D01*
X60290403Y-81880418D01*
X60303710Y-81886712D01*
X60316336Y-81894280D01*
X60328159Y-81903048D01*
X60339066Y-81912934D01*
X60348952Y-81923841D01*
X60357720Y-81935664D01*
X60365288Y-81948290D01*
X60371582Y-81961597D01*
X60376541Y-81975457D01*
X60380118Y-81989736D01*
X60382278Y-82004297D01*
X60383000Y-82019000D01*
X60383000Y-82319000D01*
X60382278Y-82333703D01*
X60380118Y-82348264D01*
X60376541Y-82362543D01*
X60371582Y-82376403D01*
X60365288Y-82389710D01*
X60357720Y-82402336D01*
X60348952Y-82414159D01*
X60339066Y-82425066D01*
X60328159Y-82434952D01*
X60316336Y-82443720D01*
X60303710Y-82451288D01*
X60290403Y-82457582D01*
X60276543Y-82462541D01*
X60262264Y-82466118D01*
X60247703Y-82468278D01*
X60233000Y-82469000D01*
X58483000Y-82469000D01*
X58468297Y-82468278D01*
X58453736Y-82466118D01*
X58439457Y-82462541D01*
X58425597Y-82457582D01*
X58412290Y-82451288D01*
X58399664Y-82443720D01*
X58387841Y-82434952D01*
X58376934Y-82425066D01*
X58367048Y-82414159D01*
X58358280Y-82402336D01*
X58350712Y-82389710D01*
X58344418Y-82376403D01*
X58339459Y-82362543D01*
X58335882Y-82348264D01*
X58333722Y-82333703D01*
X58333000Y-82319000D01*
X58333000Y-82019000D01*
X58333722Y-82004297D01*
X58335882Y-81989736D01*
X58339459Y-81975457D01*
X58344418Y-81961597D01*
X58350712Y-81948290D01*
X58358280Y-81935664D01*
X58367048Y-81923841D01*
X58376934Y-81912934D01*
X58387841Y-81903048D01*
X58399664Y-81894280D01*
X58412290Y-81886712D01*
X58425597Y-81880418D01*
X58439457Y-81875459D01*
X58453736Y-81871882D01*
X58468297Y-81869722D01*
X58483000Y-81869000D01*
X60233000Y-81869000D01*
X60247703Y-81869722D01*
G37*
G36*
X60247703Y-83139722D02*
G01*
X60262264Y-83141882D01*
X60276543Y-83145459D01*
X60290403Y-83150418D01*
X60303710Y-83156712D01*
X60316336Y-83164280D01*
X60328159Y-83173048D01*
X60339066Y-83182934D01*
X60348952Y-83193841D01*
X60357720Y-83205664D01*
X60365288Y-83218290D01*
X60371582Y-83231597D01*
X60376541Y-83245457D01*
X60380118Y-83259736D01*
X60382278Y-83274297D01*
X60383000Y-83289000D01*
X60383000Y-83589000D01*
X60382278Y-83603703D01*
X60380118Y-83618264D01*
X60376541Y-83632543D01*
X60371582Y-83646403D01*
X60365288Y-83659710D01*
X60357720Y-83672336D01*
X60348952Y-83684159D01*
X60339066Y-83695066D01*
X60328159Y-83704952D01*
X60316336Y-83713720D01*
X60303710Y-83721288D01*
X60290403Y-83727582D01*
X60276543Y-83732541D01*
X60262264Y-83736118D01*
X60247703Y-83738278D01*
X60233000Y-83739000D01*
X58483000Y-83739000D01*
X58468297Y-83738278D01*
X58453736Y-83736118D01*
X58439457Y-83732541D01*
X58425597Y-83727582D01*
X58412290Y-83721288D01*
X58399664Y-83713720D01*
X58387841Y-83704952D01*
X58376934Y-83695066D01*
X58367048Y-83684159D01*
X58358280Y-83672336D01*
X58350712Y-83659710D01*
X58344418Y-83646403D01*
X58339459Y-83632543D01*
X58335882Y-83618264D01*
X58333722Y-83603703D01*
X58333000Y-83589000D01*
X58333000Y-83289000D01*
X58333722Y-83274297D01*
X58335882Y-83259736D01*
X58339459Y-83245457D01*
X58344418Y-83231597D01*
X58350712Y-83218290D01*
X58358280Y-83205664D01*
X58367048Y-83193841D01*
X58376934Y-83182934D01*
X58387841Y-83173048D01*
X58399664Y-83164280D01*
X58412290Y-83156712D01*
X58425597Y-83150418D01*
X58439457Y-83145459D01*
X58453736Y-83141882D01*
X58468297Y-83139722D01*
X58483000Y-83139000D01*
X60233000Y-83139000D01*
X60247703Y-83139722D01*
G37*
G36*
X60247703Y-84409722D02*
G01*
X60262264Y-84411882D01*
X60276543Y-84415459D01*
X60290403Y-84420418D01*
X60303710Y-84426712D01*
X60316336Y-84434280D01*
X60328159Y-84443048D01*
X60339066Y-84452934D01*
X60348952Y-84463841D01*
X60357720Y-84475664D01*
X60365288Y-84488290D01*
X60371582Y-84501597D01*
X60376541Y-84515457D01*
X60380118Y-84529736D01*
X60382278Y-84544297D01*
X60383000Y-84559000D01*
X60383000Y-84859000D01*
X60382278Y-84873703D01*
X60380118Y-84888264D01*
X60376541Y-84902543D01*
X60371582Y-84916403D01*
X60365288Y-84929710D01*
X60357720Y-84942336D01*
X60348952Y-84954159D01*
X60339066Y-84965066D01*
X60328159Y-84974952D01*
X60316336Y-84983720D01*
X60303710Y-84991288D01*
X60290403Y-84997582D01*
X60276543Y-85002541D01*
X60262264Y-85006118D01*
X60247703Y-85008278D01*
X60233000Y-85009000D01*
X58483000Y-85009000D01*
X58468297Y-85008278D01*
X58453736Y-85006118D01*
X58439457Y-85002541D01*
X58425597Y-84997582D01*
X58412290Y-84991288D01*
X58399664Y-84983720D01*
X58387841Y-84974952D01*
X58376934Y-84965066D01*
X58367048Y-84954159D01*
X58358280Y-84942336D01*
X58350712Y-84929710D01*
X58344418Y-84916403D01*
X58339459Y-84902543D01*
X58335882Y-84888264D01*
X58333722Y-84873703D01*
X58333000Y-84859000D01*
X58333000Y-84559000D01*
X58333722Y-84544297D01*
X58335882Y-84529736D01*
X58339459Y-84515457D01*
X58344418Y-84501597D01*
X58350712Y-84488290D01*
X58358280Y-84475664D01*
X58367048Y-84463841D01*
X58376934Y-84452934D01*
X58387841Y-84443048D01*
X58399664Y-84434280D01*
X58412290Y-84426712D01*
X58425597Y-84420418D01*
X58439457Y-84415459D01*
X58453736Y-84411882D01*
X58468297Y-84409722D01*
X58483000Y-84409000D01*
X60233000Y-84409000D01*
X60247703Y-84409722D01*
G37*
G36*
X60247703Y-85679722D02*
G01*
X60262264Y-85681882D01*
X60276543Y-85685459D01*
X60290403Y-85690418D01*
X60303710Y-85696712D01*
X60316336Y-85704280D01*
X60328159Y-85713048D01*
X60339066Y-85722934D01*
X60348952Y-85733841D01*
X60357720Y-85745664D01*
X60365288Y-85758290D01*
X60371582Y-85771597D01*
X60376541Y-85785457D01*
X60380118Y-85799736D01*
X60382278Y-85814297D01*
X60383000Y-85829000D01*
X60383000Y-86129000D01*
X60382278Y-86143703D01*
X60380118Y-86158264D01*
X60376541Y-86172543D01*
X60371582Y-86186403D01*
X60365288Y-86199710D01*
X60357720Y-86212336D01*
X60348952Y-86224159D01*
X60339066Y-86235066D01*
X60328159Y-86244952D01*
X60316336Y-86253720D01*
X60303710Y-86261288D01*
X60290403Y-86267582D01*
X60276543Y-86272541D01*
X60262264Y-86276118D01*
X60247703Y-86278278D01*
X60233000Y-86279000D01*
X58483000Y-86279000D01*
X58468297Y-86278278D01*
X58453736Y-86276118D01*
X58439457Y-86272541D01*
X58425597Y-86267582D01*
X58412290Y-86261288D01*
X58399664Y-86253720D01*
X58387841Y-86244952D01*
X58376934Y-86235066D01*
X58367048Y-86224159D01*
X58358280Y-86212336D01*
X58350712Y-86199710D01*
X58344418Y-86186403D01*
X58339459Y-86172543D01*
X58335882Y-86158264D01*
X58333722Y-86143703D01*
X58333000Y-86129000D01*
X58333000Y-85829000D01*
X58333722Y-85814297D01*
X58335882Y-85799736D01*
X58339459Y-85785457D01*
X58344418Y-85771597D01*
X58350712Y-85758290D01*
X58358280Y-85745664D01*
X58367048Y-85733841D01*
X58376934Y-85722934D01*
X58387841Y-85713048D01*
X58399664Y-85704280D01*
X58412290Y-85696712D01*
X58425597Y-85690418D01*
X58439457Y-85685459D01*
X58453736Y-85681882D01*
X58468297Y-85679722D01*
X58483000Y-85679000D01*
X60233000Y-85679000D01*
X60247703Y-85679722D01*
G37*
G36*
X60247703Y-86949722D02*
G01*
X60262264Y-86951882D01*
X60276543Y-86955459D01*
X60290403Y-86960418D01*
X60303710Y-86966712D01*
X60316336Y-86974280D01*
X60328159Y-86983048D01*
X60339066Y-86992934D01*
X60348952Y-87003841D01*
X60357720Y-87015664D01*
X60365288Y-87028290D01*
X60371582Y-87041597D01*
X60376541Y-87055457D01*
X60380118Y-87069736D01*
X60382278Y-87084297D01*
X60383000Y-87099000D01*
X60383000Y-87399000D01*
X60382278Y-87413703D01*
X60380118Y-87428264D01*
X60376541Y-87442543D01*
X60371582Y-87456403D01*
X60365288Y-87469710D01*
X60357720Y-87482336D01*
X60348952Y-87494159D01*
X60339066Y-87505066D01*
X60328159Y-87514952D01*
X60316336Y-87523720D01*
X60303710Y-87531288D01*
X60290403Y-87537582D01*
X60276543Y-87542541D01*
X60262264Y-87546118D01*
X60247703Y-87548278D01*
X60233000Y-87549000D01*
X58483000Y-87549000D01*
X58468297Y-87548278D01*
X58453736Y-87546118D01*
X58439457Y-87542541D01*
X58425597Y-87537582D01*
X58412290Y-87531288D01*
X58399664Y-87523720D01*
X58387841Y-87514952D01*
X58376934Y-87505066D01*
X58367048Y-87494159D01*
X58358280Y-87482336D01*
X58350712Y-87469710D01*
X58344418Y-87456403D01*
X58339459Y-87442543D01*
X58335882Y-87428264D01*
X58333722Y-87413703D01*
X58333000Y-87399000D01*
X58333000Y-87099000D01*
X58333722Y-87084297D01*
X58335882Y-87069736D01*
X58339459Y-87055457D01*
X58344418Y-87041597D01*
X58350712Y-87028290D01*
X58358280Y-87015664D01*
X58367048Y-87003841D01*
X58376934Y-86992934D01*
X58387841Y-86983048D01*
X58399664Y-86974280D01*
X58412290Y-86966712D01*
X58425597Y-86960418D01*
X58439457Y-86955459D01*
X58453736Y-86951882D01*
X58468297Y-86949722D01*
X58483000Y-86949000D01*
X60233000Y-86949000D01*
X60247703Y-86949722D01*
G37*
G36*
X60247703Y-88219722D02*
G01*
X60262264Y-88221882D01*
X60276543Y-88225459D01*
X60290403Y-88230418D01*
X60303710Y-88236712D01*
X60316336Y-88244280D01*
X60328159Y-88253048D01*
X60339066Y-88262934D01*
X60348952Y-88273841D01*
X60357720Y-88285664D01*
X60365288Y-88298290D01*
X60371582Y-88311597D01*
X60376541Y-88325457D01*
X60380118Y-88339736D01*
X60382278Y-88354297D01*
X60383000Y-88369000D01*
X60383000Y-88669000D01*
X60382278Y-88683703D01*
X60380118Y-88698264D01*
X60376541Y-88712543D01*
X60371582Y-88726403D01*
X60365288Y-88739710D01*
X60357720Y-88752336D01*
X60348952Y-88764159D01*
X60339066Y-88775066D01*
X60328159Y-88784952D01*
X60316336Y-88793720D01*
X60303710Y-88801288D01*
X60290403Y-88807582D01*
X60276543Y-88812541D01*
X60262264Y-88816118D01*
X60247703Y-88818278D01*
X60233000Y-88819000D01*
X58483000Y-88819000D01*
X58468297Y-88818278D01*
X58453736Y-88816118D01*
X58439457Y-88812541D01*
X58425597Y-88807582D01*
X58412290Y-88801288D01*
X58399664Y-88793720D01*
X58387841Y-88784952D01*
X58376934Y-88775066D01*
X58367048Y-88764159D01*
X58358280Y-88752336D01*
X58350712Y-88739710D01*
X58344418Y-88726403D01*
X58339459Y-88712543D01*
X58335882Y-88698264D01*
X58333722Y-88683703D01*
X58333000Y-88669000D01*
X58333000Y-88369000D01*
X58333722Y-88354297D01*
X58335882Y-88339736D01*
X58339459Y-88325457D01*
X58344418Y-88311597D01*
X58350712Y-88298290D01*
X58358280Y-88285664D01*
X58367048Y-88273841D01*
X58376934Y-88262934D01*
X58387841Y-88253048D01*
X58399664Y-88244280D01*
X58412290Y-88236712D01*
X58425597Y-88230418D01*
X58439457Y-88225459D01*
X58453736Y-88221882D01*
X58468297Y-88219722D01*
X58483000Y-88219000D01*
X60233000Y-88219000D01*
X60247703Y-88219722D01*
G37*
G36*
X60247703Y-89489722D02*
G01*
X60262264Y-89491882D01*
X60276543Y-89495459D01*
X60290403Y-89500418D01*
X60303710Y-89506712D01*
X60316336Y-89514280D01*
X60328159Y-89523048D01*
X60339066Y-89532934D01*
X60348952Y-89543841D01*
X60357720Y-89555664D01*
X60365288Y-89568290D01*
X60371582Y-89581597D01*
X60376541Y-89595457D01*
X60380118Y-89609736D01*
X60382278Y-89624297D01*
X60383000Y-89639000D01*
X60383000Y-89939000D01*
X60382278Y-89953703D01*
X60380118Y-89968264D01*
X60376541Y-89982543D01*
X60371582Y-89996403D01*
X60365288Y-90009710D01*
X60357720Y-90022336D01*
X60348952Y-90034159D01*
X60339066Y-90045066D01*
X60328159Y-90054952D01*
X60316336Y-90063720D01*
X60303710Y-90071288D01*
X60290403Y-90077582D01*
X60276543Y-90082541D01*
X60262264Y-90086118D01*
X60247703Y-90088278D01*
X60233000Y-90089000D01*
X58483000Y-90089000D01*
X58468297Y-90088278D01*
X58453736Y-90086118D01*
X58439457Y-90082541D01*
X58425597Y-90077582D01*
X58412290Y-90071288D01*
X58399664Y-90063720D01*
X58387841Y-90054952D01*
X58376934Y-90045066D01*
X58367048Y-90034159D01*
X58358280Y-90022336D01*
X58350712Y-90009710D01*
X58344418Y-89996403D01*
X58339459Y-89982543D01*
X58335882Y-89968264D01*
X58333722Y-89953703D01*
X58333000Y-89939000D01*
X58333000Y-89639000D01*
X58333722Y-89624297D01*
X58335882Y-89609736D01*
X58339459Y-89595457D01*
X58344418Y-89581597D01*
X58350712Y-89568290D01*
X58358280Y-89555664D01*
X58367048Y-89543841D01*
X58376934Y-89532934D01*
X58387841Y-89523048D01*
X58399664Y-89514280D01*
X58412290Y-89506712D01*
X58425597Y-89500418D01*
X58439457Y-89495459D01*
X58453736Y-89491882D01*
X58468297Y-89489722D01*
X58483000Y-89489000D01*
X60233000Y-89489000D01*
X60247703Y-89489722D01*
G37*
G36*
X60247703Y-90759722D02*
G01*
X60262264Y-90761882D01*
X60276543Y-90765459D01*
X60290403Y-90770418D01*
X60303710Y-90776712D01*
X60316336Y-90784280D01*
X60328159Y-90793048D01*
X60339066Y-90802934D01*
X60348952Y-90813841D01*
X60357720Y-90825664D01*
X60365288Y-90838290D01*
X60371582Y-90851597D01*
X60376541Y-90865457D01*
X60380118Y-90879736D01*
X60382278Y-90894297D01*
X60383000Y-90909000D01*
X60383000Y-91209000D01*
X60382278Y-91223703D01*
X60380118Y-91238264D01*
X60376541Y-91252543D01*
X60371582Y-91266403D01*
X60365288Y-91279710D01*
X60357720Y-91292336D01*
X60348952Y-91304159D01*
X60339066Y-91315066D01*
X60328159Y-91324952D01*
X60316336Y-91333720D01*
X60303710Y-91341288D01*
X60290403Y-91347582D01*
X60276543Y-91352541D01*
X60262264Y-91356118D01*
X60247703Y-91358278D01*
X60233000Y-91359000D01*
X58483000Y-91359000D01*
X58468297Y-91358278D01*
X58453736Y-91356118D01*
X58439457Y-91352541D01*
X58425597Y-91347582D01*
X58412290Y-91341288D01*
X58399664Y-91333720D01*
X58387841Y-91324952D01*
X58376934Y-91315066D01*
X58367048Y-91304159D01*
X58358280Y-91292336D01*
X58350712Y-91279710D01*
X58344418Y-91266403D01*
X58339459Y-91252543D01*
X58335882Y-91238264D01*
X58333722Y-91223703D01*
X58333000Y-91209000D01*
X58333000Y-90909000D01*
X58333722Y-90894297D01*
X58335882Y-90879736D01*
X58339459Y-90865457D01*
X58344418Y-90851597D01*
X58350712Y-90838290D01*
X58358280Y-90825664D01*
X58367048Y-90813841D01*
X58376934Y-90802934D01*
X58387841Y-90793048D01*
X58399664Y-90784280D01*
X58412290Y-90776712D01*
X58425597Y-90770418D01*
X58439457Y-90765459D01*
X58453736Y-90761882D01*
X58468297Y-90759722D01*
X58483000Y-90759000D01*
X60233000Y-90759000D01*
X60247703Y-90759722D01*
G37*
G36*
X60247703Y-92029722D02*
G01*
X60262264Y-92031882D01*
X60276543Y-92035459D01*
X60290403Y-92040418D01*
X60303710Y-92046712D01*
X60316336Y-92054280D01*
X60328159Y-92063048D01*
X60339066Y-92072934D01*
X60348952Y-92083841D01*
X60357720Y-92095664D01*
X60365288Y-92108290D01*
X60371582Y-92121597D01*
X60376541Y-92135457D01*
X60380118Y-92149736D01*
X60382278Y-92164297D01*
X60383000Y-92179000D01*
X60383000Y-92479000D01*
X60382278Y-92493703D01*
X60380118Y-92508264D01*
X60376541Y-92522543D01*
X60371582Y-92536403D01*
X60365288Y-92549710D01*
X60357720Y-92562336D01*
X60348952Y-92574159D01*
X60339066Y-92585066D01*
X60328159Y-92594952D01*
X60316336Y-92603720D01*
X60303710Y-92611288D01*
X60290403Y-92617582D01*
X60276543Y-92622541D01*
X60262264Y-92626118D01*
X60247703Y-92628278D01*
X60233000Y-92629000D01*
X58483000Y-92629000D01*
X58468297Y-92628278D01*
X58453736Y-92626118D01*
X58439457Y-92622541D01*
X58425597Y-92617582D01*
X58412290Y-92611288D01*
X58399664Y-92603720D01*
X58387841Y-92594952D01*
X58376934Y-92585066D01*
X58367048Y-92574159D01*
X58358280Y-92562336D01*
X58350712Y-92549710D01*
X58344418Y-92536403D01*
X58339459Y-92522543D01*
X58335882Y-92508264D01*
X58333722Y-92493703D01*
X58333000Y-92479000D01*
X58333000Y-92179000D01*
X58333722Y-92164297D01*
X58335882Y-92149736D01*
X58339459Y-92135457D01*
X58344418Y-92121597D01*
X58350712Y-92108290D01*
X58358280Y-92095664D01*
X58367048Y-92083841D01*
X58376934Y-92072934D01*
X58387841Y-92063048D01*
X58399664Y-92054280D01*
X58412290Y-92046712D01*
X58425597Y-92040418D01*
X58439457Y-92035459D01*
X58453736Y-92031882D01*
X58468297Y-92029722D01*
X58483000Y-92029000D01*
X60233000Y-92029000D01*
X60247703Y-92029722D01*
G37*
G36*
X60247703Y-93299722D02*
G01*
X60262264Y-93301882D01*
X60276543Y-93305459D01*
X60290403Y-93310418D01*
X60303710Y-93316712D01*
X60316336Y-93324280D01*
X60328159Y-93333048D01*
X60339066Y-93342934D01*
X60348952Y-93353841D01*
X60357720Y-93365664D01*
X60365288Y-93378290D01*
X60371582Y-93391597D01*
X60376541Y-93405457D01*
X60380118Y-93419736D01*
X60382278Y-93434297D01*
X60383000Y-93449000D01*
X60383000Y-93749000D01*
X60382278Y-93763703D01*
X60380118Y-93778264D01*
X60376541Y-93792543D01*
X60371582Y-93806403D01*
X60365288Y-93819710D01*
X60357720Y-93832336D01*
X60348952Y-93844159D01*
X60339066Y-93855066D01*
X60328159Y-93864952D01*
X60316336Y-93873720D01*
X60303710Y-93881288D01*
X60290403Y-93887582D01*
X60276543Y-93892541D01*
X60262264Y-93896118D01*
X60247703Y-93898278D01*
X60233000Y-93899000D01*
X58483000Y-93899000D01*
X58468297Y-93898278D01*
X58453736Y-93896118D01*
X58439457Y-93892541D01*
X58425597Y-93887582D01*
X58412290Y-93881288D01*
X58399664Y-93873720D01*
X58387841Y-93864952D01*
X58376934Y-93855066D01*
X58367048Y-93844159D01*
X58358280Y-93832336D01*
X58350712Y-93819710D01*
X58344418Y-93806403D01*
X58339459Y-93792543D01*
X58335882Y-93778264D01*
X58333722Y-93763703D01*
X58333000Y-93749000D01*
X58333000Y-93449000D01*
X58333722Y-93434297D01*
X58335882Y-93419736D01*
X58339459Y-93405457D01*
X58344418Y-93391597D01*
X58350712Y-93378290D01*
X58358280Y-93365664D01*
X58367048Y-93353841D01*
X58376934Y-93342934D01*
X58387841Y-93333048D01*
X58399664Y-93324280D01*
X58412290Y-93316712D01*
X58425597Y-93310418D01*
X58439457Y-93305459D01*
X58453736Y-93301882D01*
X58468297Y-93299722D01*
X58483000Y-93299000D01*
X60233000Y-93299000D01*
X60247703Y-93299722D01*
G37*
D11*
X67085000Y-79491000D03*
X67085000Y-78841000D03*
X67085000Y-78191000D03*
X67085000Y-77541000D03*
X67085000Y-76891000D03*
X67085000Y-76241000D03*
X67085000Y-75591000D03*
X67085000Y-74941000D03*
X61185000Y-74941000D03*
X61185000Y-75591000D03*
X61185000Y-76241000D03*
X61185000Y-76891000D03*
X61185000Y-77541000D03*
X61185000Y-78191000D03*
X61185000Y-78841000D03*
X61185000Y-79491000D03*
D10*
G36*
X70301779Y-73440144D02*
G01*
X70324834Y-73443563D01*
X70347443Y-73449227D01*
X70369387Y-73457079D01*
X70390457Y-73467044D01*
X70410448Y-73479026D01*
X70429168Y-73492910D01*
X70446438Y-73508562D01*
X70462090Y-73525832D01*
X70475974Y-73544552D01*
X70487956Y-73564543D01*
X70497921Y-73585613D01*
X70505773Y-73607557D01*
X70511437Y-73630166D01*
X70514856Y-73653221D01*
X70516000Y-73676500D01*
X70516000Y-74151500D01*
X70514856Y-74174779D01*
X70511437Y-74197834D01*
X70505773Y-74220443D01*
X70497921Y-74242387D01*
X70487956Y-74263457D01*
X70475974Y-74283448D01*
X70462090Y-74302168D01*
X70446438Y-74319438D01*
X70429168Y-74335090D01*
X70410448Y-74348974D01*
X70390457Y-74360956D01*
X70369387Y-74370921D01*
X70347443Y-74378773D01*
X70324834Y-74384437D01*
X70301779Y-74387856D01*
X70278500Y-74389000D01*
X69703500Y-74389000D01*
X69680221Y-74387856D01*
X69657166Y-74384437D01*
X69634557Y-74378773D01*
X69612613Y-74370921D01*
X69591543Y-74360956D01*
X69571552Y-74348974D01*
X69552832Y-74335090D01*
X69535562Y-74319438D01*
X69519910Y-74302168D01*
X69506026Y-74283448D01*
X69494044Y-74263457D01*
X69484079Y-74242387D01*
X69476227Y-74220443D01*
X69470563Y-74197834D01*
X69467144Y-74174779D01*
X69466000Y-74151500D01*
X69466000Y-73676500D01*
X69467144Y-73653221D01*
X69470563Y-73630166D01*
X69476227Y-73607557D01*
X69484079Y-73585613D01*
X69494044Y-73564543D01*
X69506026Y-73544552D01*
X69519910Y-73525832D01*
X69535562Y-73508562D01*
X69552832Y-73492910D01*
X69571552Y-73479026D01*
X69591543Y-73467044D01*
X69612613Y-73457079D01*
X69634557Y-73449227D01*
X69657166Y-73443563D01*
X69680221Y-73440144D01*
X69703500Y-73439000D01*
X70278500Y-73439000D01*
X70301779Y-73440144D01*
G37*
G36*
X72051779Y-73440144D02*
G01*
X72074834Y-73443563D01*
X72097443Y-73449227D01*
X72119387Y-73457079D01*
X72140457Y-73467044D01*
X72160448Y-73479026D01*
X72179168Y-73492910D01*
X72196438Y-73508562D01*
X72212090Y-73525832D01*
X72225974Y-73544552D01*
X72237956Y-73564543D01*
X72247921Y-73585613D01*
X72255773Y-73607557D01*
X72261437Y-73630166D01*
X72264856Y-73653221D01*
X72266000Y-73676500D01*
X72266000Y-74151500D01*
X72264856Y-74174779D01*
X72261437Y-74197834D01*
X72255773Y-74220443D01*
X72247921Y-74242387D01*
X72237956Y-74263457D01*
X72225974Y-74283448D01*
X72212090Y-74302168D01*
X72196438Y-74319438D01*
X72179168Y-74335090D01*
X72160448Y-74348974D01*
X72140457Y-74360956D01*
X72119387Y-74370921D01*
X72097443Y-74378773D01*
X72074834Y-74384437D01*
X72051779Y-74387856D01*
X72028500Y-74389000D01*
X71453500Y-74389000D01*
X71430221Y-74387856D01*
X71407166Y-74384437D01*
X71384557Y-74378773D01*
X71362613Y-74370921D01*
X71341543Y-74360956D01*
X71321552Y-74348974D01*
X71302832Y-74335090D01*
X71285562Y-74319438D01*
X71269910Y-74302168D01*
X71256026Y-74283448D01*
X71244044Y-74263457D01*
X71234079Y-74242387D01*
X71226227Y-74220443D01*
X71220563Y-74197834D01*
X71217144Y-74174779D01*
X71216000Y-74151500D01*
X71216000Y-73676500D01*
X71217144Y-73653221D01*
X71220563Y-73630166D01*
X71226227Y-73607557D01*
X71234079Y-73585613D01*
X71244044Y-73564543D01*
X71256026Y-73544552D01*
X71269910Y-73525832D01*
X71285562Y-73508562D01*
X71302832Y-73492910D01*
X71321552Y-73479026D01*
X71341543Y-73467044D01*
X71362613Y-73457079D01*
X71384557Y-73449227D01*
X71407166Y-73443563D01*
X71430221Y-73440144D01*
X71453500Y-73439000D01*
X72028500Y-73439000D01*
X72051779Y-73440144D01*
G37*
G36*
X58843779Y-74964144D02*
G01*
X58866834Y-74967563D01*
X58889443Y-74973227D01*
X58911387Y-74981079D01*
X58932457Y-74991044D01*
X58952448Y-75003026D01*
X58971168Y-75016910D01*
X58988438Y-75032562D01*
X59004090Y-75049832D01*
X59017974Y-75068552D01*
X59029956Y-75088543D01*
X59039921Y-75109613D01*
X59047773Y-75131557D01*
X59053437Y-75154166D01*
X59056856Y-75177221D01*
X59058000Y-75200500D01*
X59058000Y-75675500D01*
X59056856Y-75698779D01*
X59053437Y-75721834D01*
X59047773Y-75744443D01*
X59039921Y-75766387D01*
X59029956Y-75787457D01*
X59017974Y-75807448D01*
X59004090Y-75826168D01*
X58988438Y-75843438D01*
X58971168Y-75859090D01*
X58952448Y-75872974D01*
X58932457Y-75884956D01*
X58911387Y-75894921D01*
X58889443Y-75902773D01*
X58866834Y-75908437D01*
X58843779Y-75911856D01*
X58820500Y-75913000D01*
X58245500Y-75913000D01*
X58222221Y-75911856D01*
X58199166Y-75908437D01*
X58176557Y-75902773D01*
X58154613Y-75894921D01*
X58133543Y-75884956D01*
X58113552Y-75872974D01*
X58094832Y-75859090D01*
X58077562Y-75843438D01*
X58061910Y-75826168D01*
X58048026Y-75807448D01*
X58036044Y-75787457D01*
X58026079Y-75766387D01*
X58018227Y-75744443D01*
X58012563Y-75721834D01*
X58009144Y-75698779D01*
X58008000Y-75675500D01*
X58008000Y-75200500D01*
X58009144Y-75177221D01*
X58012563Y-75154166D01*
X58018227Y-75131557D01*
X58026079Y-75109613D01*
X58036044Y-75088543D01*
X58048026Y-75068552D01*
X58061910Y-75049832D01*
X58077562Y-75032562D01*
X58094832Y-75016910D01*
X58113552Y-75003026D01*
X58133543Y-74991044D01*
X58154613Y-74981079D01*
X58176557Y-74973227D01*
X58199166Y-74967563D01*
X58222221Y-74964144D01*
X58245500Y-74963000D01*
X58820500Y-74963000D01*
X58843779Y-74964144D01*
G37*
G36*
X57093779Y-74964144D02*
G01*
X57116834Y-74967563D01*
X57139443Y-74973227D01*
X57161387Y-74981079D01*
X57182457Y-74991044D01*
X57202448Y-75003026D01*
X57221168Y-75016910D01*
X57238438Y-75032562D01*
X57254090Y-75049832D01*
X57267974Y-75068552D01*
X57279956Y-75088543D01*
X57289921Y-75109613D01*
X57297773Y-75131557D01*
X57303437Y-75154166D01*
X57306856Y-75177221D01*
X57308000Y-75200500D01*
X57308000Y-75675500D01*
X57306856Y-75698779D01*
X57303437Y-75721834D01*
X57297773Y-75744443D01*
X57289921Y-75766387D01*
X57279956Y-75787457D01*
X57267974Y-75807448D01*
X57254090Y-75826168D01*
X57238438Y-75843438D01*
X57221168Y-75859090D01*
X57202448Y-75872974D01*
X57182457Y-75884956D01*
X57161387Y-75894921D01*
X57139443Y-75902773D01*
X57116834Y-75908437D01*
X57093779Y-75911856D01*
X57070500Y-75913000D01*
X56495500Y-75913000D01*
X56472221Y-75911856D01*
X56449166Y-75908437D01*
X56426557Y-75902773D01*
X56404613Y-75894921D01*
X56383543Y-75884956D01*
X56363552Y-75872974D01*
X56344832Y-75859090D01*
X56327562Y-75843438D01*
X56311910Y-75826168D01*
X56298026Y-75807448D01*
X56286044Y-75787457D01*
X56276079Y-75766387D01*
X56268227Y-75744443D01*
X56262563Y-75721834D01*
X56259144Y-75698779D01*
X56258000Y-75675500D01*
X56258000Y-75200500D01*
X56259144Y-75177221D01*
X56262563Y-75154166D01*
X56268227Y-75131557D01*
X56276079Y-75109613D01*
X56286044Y-75088543D01*
X56298026Y-75068552D01*
X56311910Y-75049832D01*
X56327562Y-75032562D01*
X56344832Y-75016910D01*
X56363552Y-75003026D01*
X56383543Y-74991044D01*
X56404613Y-74981079D01*
X56426557Y-74973227D01*
X56449166Y-74967563D01*
X56472221Y-74964144D01*
X56495500Y-74963000D01*
X57070500Y-74963000D01*
X57093779Y-74964144D01*
G37*
G36*
X53763779Y-65312144D02*
G01*
X53786834Y-65315563D01*
X53809443Y-65321227D01*
X53831387Y-65329079D01*
X53852457Y-65339044D01*
X53872448Y-65351026D01*
X53891168Y-65364910D01*
X53908438Y-65380562D01*
X53924090Y-65397832D01*
X53937974Y-65416552D01*
X53949956Y-65436543D01*
X53959921Y-65457613D01*
X53967773Y-65479557D01*
X53973437Y-65502166D01*
X53976856Y-65525221D01*
X53978000Y-65548500D01*
X53978000Y-66023500D01*
X53976856Y-66046779D01*
X53973437Y-66069834D01*
X53967773Y-66092443D01*
X53959921Y-66114387D01*
X53949956Y-66135457D01*
X53937974Y-66155448D01*
X53924090Y-66174168D01*
X53908438Y-66191438D01*
X53891168Y-66207090D01*
X53872448Y-66220974D01*
X53852457Y-66232956D01*
X53831387Y-66242921D01*
X53809443Y-66250773D01*
X53786834Y-66256437D01*
X53763779Y-66259856D01*
X53740500Y-66261000D01*
X53165500Y-66261000D01*
X53142221Y-66259856D01*
X53119166Y-66256437D01*
X53096557Y-66250773D01*
X53074613Y-66242921D01*
X53053543Y-66232956D01*
X53033552Y-66220974D01*
X53014832Y-66207090D01*
X52997562Y-66191438D01*
X52981910Y-66174168D01*
X52968026Y-66155448D01*
X52956044Y-66135457D01*
X52946079Y-66114387D01*
X52938227Y-66092443D01*
X52932563Y-66069834D01*
X52929144Y-66046779D01*
X52928000Y-66023500D01*
X52928000Y-65548500D01*
X52929144Y-65525221D01*
X52932563Y-65502166D01*
X52938227Y-65479557D01*
X52946079Y-65457613D01*
X52956044Y-65436543D01*
X52968026Y-65416552D01*
X52981910Y-65397832D01*
X52997562Y-65380562D01*
X53014832Y-65364910D01*
X53033552Y-65351026D01*
X53053543Y-65339044D01*
X53074613Y-65329079D01*
X53096557Y-65321227D01*
X53119166Y-65315563D01*
X53142221Y-65312144D01*
X53165500Y-65311000D01*
X53740500Y-65311000D01*
X53763779Y-65312144D01*
G37*
G36*
X52013779Y-65312144D02*
G01*
X52036834Y-65315563D01*
X52059443Y-65321227D01*
X52081387Y-65329079D01*
X52102457Y-65339044D01*
X52122448Y-65351026D01*
X52141168Y-65364910D01*
X52158438Y-65380562D01*
X52174090Y-65397832D01*
X52187974Y-65416552D01*
X52199956Y-65436543D01*
X52209921Y-65457613D01*
X52217773Y-65479557D01*
X52223437Y-65502166D01*
X52226856Y-65525221D01*
X52228000Y-65548500D01*
X52228000Y-66023500D01*
X52226856Y-66046779D01*
X52223437Y-66069834D01*
X52217773Y-66092443D01*
X52209921Y-66114387D01*
X52199956Y-66135457D01*
X52187974Y-66155448D01*
X52174090Y-66174168D01*
X52158438Y-66191438D01*
X52141168Y-66207090D01*
X52122448Y-66220974D01*
X52102457Y-66232956D01*
X52081387Y-66242921D01*
X52059443Y-66250773D01*
X52036834Y-66256437D01*
X52013779Y-66259856D01*
X51990500Y-66261000D01*
X51415500Y-66261000D01*
X51392221Y-66259856D01*
X51369166Y-66256437D01*
X51346557Y-66250773D01*
X51324613Y-66242921D01*
X51303543Y-66232956D01*
X51283552Y-66220974D01*
X51264832Y-66207090D01*
X51247562Y-66191438D01*
X51231910Y-66174168D01*
X51218026Y-66155448D01*
X51206044Y-66135457D01*
X51196079Y-66114387D01*
X51188227Y-66092443D01*
X51182563Y-66069834D01*
X51179144Y-66046779D01*
X51178000Y-66023500D01*
X51178000Y-65548500D01*
X51179144Y-65525221D01*
X51182563Y-65502166D01*
X51188227Y-65479557D01*
X51196079Y-65457613D01*
X51206044Y-65436543D01*
X51218026Y-65416552D01*
X51231910Y-65397832D01*
X51247562Y-65380562D01*
X51264832Y-65364910D01*
X51283552Y-65351026D01*
X51303543Y-65339044D01*
X51324613Y-65329079D01*
X51346557Y-65321227D01*
X51369166Y-65315563D01*
X51392221Y-65312144D01*
X51415500Y-65311000D01*
X51990500Y-65311000D01*
X52013779Y-65312144D01*
G37*
G36*
X69856779Y-65121144D02*
G01*
X69879834Y-65124563D01*
X69902443Y-65130227D01*
X69924387Y-65138079D01*
X69945457Y-65148044D01*
X69965448Y-65160026D01*
X69984168Y-65173910D01*
X70001438Y-65189562D01*
X70017090Y-65206832D01*
X70030974Y-65225552D01*
X70042956Y-65245543D01*
X70052921Y-65266613D01*
X70060773Y-65288557D01*
X70066437Y-65311166D01*
X70069856Y-65334221D01*
X70071000Y-65357500D01*
X70071000Y-65932500D01*
X70069856Y-65955779D01*
X70066437Y-65978834D01*
X70060773Y-66001443D01*
X70052921Y-66023387D01*
X70042956Y-66044457D01*
X70030974Y-66064448D01*
X70017090Y-66083168D01*
X70001438Y-66100438D01*
X69984168Y-66116090D01*
X69965448Y-66129974D01*
X69945457Y-66141956D01*
X69924387Y-66151921D01*
X69902443Y-66159773D01*
X69879834Y-66165437D01*
X69856779Y-66168856D01*
X69833500Y-66170000D01*
X69358500Y-66170000D01*
X69335221Y-66168856D01*
X69312166Y-66165437D01*
X69289557Y-66159773D01*
X69267613Y-66151921D01*
X69246543Y-66141956D01*
X69226552Y-66129974D01*
X69207832Y-66116090D01*
X69190562Y-66100438D01*
X69174910Y-66083168D01*
X69161026Y-66064448D01*
X69149044Y-66044457D01*
X69139079Y-66023387D01*
X69131227Y-66001443D01*
X69125563Y-65978834D01*
X69122144Y-65955779D01*
X69121000Y-65932500D01*
X69121000Y-65357500D01*
X69122144Y-65334221D01*
X69125563Y-65311166D01*
X69131227Y-65288557D01*
X69139079Y-65266613D01*
X69149044Y-65245543D01*
X69161026Y-65225552D01*
X69174910Y-65206832D01*
X69190562Y-65189562D01*
X69207832Y-65173910D01*
X69226552Y-65160026D01*
X69246543Y-65148044D01*
X69267613Y-65138079D01*
X69289557Y-65130227D01*
X69312166Y-65124563D01*
X69335221Y-65121144D01*
X69358500Y-65120000D01*
X69833500Y-65120000D01*
X69856779Y-65121144D01*
G37*
G36*
X69856779Y-63371144D02*
G01*
X69879834Y-63374563D01*
X69902443Y-63380227D01*
X69924387Y-63388079D01*
X69945457Y-63398044D01*
X69965448Y-63410026D01*
X69984168Y-63423910D01*
X70001438Y-63439562D01*
X70017090Y-63456832D01*
X70030974Y-63475552D01*
X70042956Y-63495543D01*
X70052921Y-63516613D01*
X70060773Y-63538557D01*
X70066437Y-63561166D01*
X70069856Y-63584221D01*
X70071000Y-63607500D01*
X70071000Y-64182500D01*
X70069856Y-64205779D01*
X70066437Y-64228834D01*
X70060773Y-64251443D01*
X70052921Y-64273387D01*
X70042956Y-64294457D01*
X70030974Y-64314448D01*
X70017090Y-64333168D01*
X70001438Y-64350438D01*
X69984168Y-64366090D01*
X69965448Y-64379974D01*
X69945457Y-64391956D01*
X69924387Y-64401921D01*
X69902443Y-64409773D01*
X69879834Y-64415437D01*
X69856779Y-64418856D01*
X69833500Y-64420000D01*
X69358500Y-64420000D01*
X69335221Y-64418856D01*
X69312166Y-64415437D01*
X69289557Y-64409773D01*
X69267613Y-64401921D01*
X69246543Y-64391956D01*
X69226552Y-64379974D01*
X69207832Y-64366090D01*
X69190562Y-64350438D01*
X69174910Y-64333168D01*
X69161026Y-64314448D01*
X69149044Y-64294457D01*
X69139079Y-64273387D01*
X69131227Y-64251443D01*
X69125563Y-64228834D01*
X69122144Y-64205779D01*
X69121000Y-64182500D01*
X69121000Y-63607500D01*
X69122144Y-63584221D01*
X69125563Y-63561166D01*
X69131227Y-63538557D01*
X69139079Y-63516613D01*
X69149044Y-63495543D01*
X69161026Y-63475552D01*
X69174910Y-63456832D01*
X69190562Y-63439562D01*
X69207832Y-63423910D01*
X69226552Y-63410026D01*
X69246543Y-63398044D01*
X69267613Y-63388079D01*
X69289557Y-63380227D01*
X69312166Y-63374563D01*
X69335221Y-63371144D01*
X69358500Y-63370000D01*
X69833500Y-63370000D01*
X69856779Y-63371144D01*
G37*
G36*
X71797779Y-59978144D02*
G01*
X71820834Y-59981563D01*
X71843443Y-59987227D01*
X71865387Y-59995079D01*
X71886457Y-60005044D01*
X71906448Y-60017026D01*
X71925168Y-60030910D01*
X71942438Y-60046562D01*
X71958090Y-60063832D01*
X71971974Y-60082552D01*
X71983956Y-60102543D01*
X71993921Y-60123613D01*
X72001773Y-60145557D01*
X72007437Y-60168166D01*
X72010856Y-60191221D01*
X72012000Y-60214500D01*
X72012000Y-60689500D01*
X72010856Y-60712779D01*
X72007437Y-60735834D01*
X72001773Y-60758443D01*
X71993921Y-60780387D01*
X71983956Y-60801457D01*
X71971974Y-60821448D01*
X71958090Y-60840168D01*
X71942438Y-60857438D01*
X71925168Y-60873090D01*
X71906448Y-60886974D01*
X71886457Y-60898956D01*
X71865387Y-60908921D01*
X71843443Y-60916773D01*
X71820834Y-60922437D01*
X71797779Y-60925856D01*
X71774500Y-60927000D01*
X71199500Y-60927000D01*
X71176221Y-60925856D01*
X71153166Y-60922437D01*
X71130557Y-60916773D01*
X71108613Y-60908921D01*
X71087543Y-60898956D01*
X71067552Y-60886974D01*
X71048832Y-60873090D01*
X71031562Y-60857438D01*
X71015910Y-60840168D01*
X71002026Y-60821448D01*
X70990044Y-60801457D01*
X70980079Y-60780387D01*
X70972227Y-60758443D01*
X70966563Y-60735834D01*
X70963144Y-60712779D01*
X70962000Y-60689500D01*
X70962000Y-60214500D01*
X70963144Y-60191221D01*
X70966563Y-60168166D01*
X70972227Y-60145557D01*
X70980079Y-60123613D01*
X70990044Y-60102543D01*
X71002026Y-60082552D01*
X71015910Y-60063832D01*
X71031562Y-60046562D01*
X71048832Y-60030910D01*
X71067552Y-60017026D01*
X71087543Y-60005044D01*
X71108613Y-59995079D01*
X71130557Y-59987227D01*
X71153166Y-59981563D01*
X71176221Y-59978144D01*
X71199500Y-59977000D01*
X71774500Y-59977000D01*
X71797779Y-59978144D01*
G37*
G36*
X70047779Y-59978144D02*
G01*
X70070834Y-59981563D01*
X70093443Y-59987227D01*
X70115387Y-59995079D01*
X70136457Y-60005044D01*
X70156448Y-60017026D01*
X70175168Y-60030910D01*
X70192438Y-60046562D01*
X70208090Y-60063832D01*
X70221974Y-60082552D01*
X70233956Y-60102543D01*
X70243921Y-60123613D01*
X70251773Y-60145557D01*
X70257437Y-60168166D01*
X70260856Y-60191221D01*
X70262000Y-60214500D01*
X70262000Y-60689500D01*
X70260856Y-60712779D01*
X70257437Y-60735834D01*
X70251773Y-60758443D01*
X70243921Y-60780387D01*
X70233956Y-60801457D01*
X70221974Y-60821448D01*
X70208090Y-60840168D01*
X70192438Y-60857438D01*
X70175168Y-60873090D01*
X70156448Y-60886974D01*
X70136457Y-60898956D01*
X70115387Y-60908921D01*
X70093443Y-60916773D01*
X70070834Y-60922437D01*
X70047779Y-60925856D01*
X70024500Y-60927000D01*
X69449500Y-60927000D01*
X69426221Y-60925856D01*
X69403166Y-60922437D01*
X69380557Y-60916773D01*
X69358613Y-60908921D01*
X69337543Y-60898956D01*
X69317552Y-60886974D01*
X69298832Y-60873090D01*
X69281562Y-60857438D01*
X69265910Y-60840168D01*
X69252026Y-60821448D01*
X69240044Y-60801457D01*
X69230079Y-60780387D01*
X69222227Y-60758443D01*
X69216563Y-60735834D01*
X69213144Y-60712779D01*
X69212000Y-60689500D01*
X69212000Y-60214500D01*
X69213144Y-60191221D01*
X69216563Y-60168166D01*
X69222227Y-60145557D01*
X69230079Y-60123613D01*
X69240044Y-60102543D01*
X69252026Y-60082552D01*
X69265910Y-60063832D01*
X69281562Y-60046562D01*
X69298832Y-60030910D01*
X69317552Y-60017026D01*
X69337543Y-60005044D01*
X69358613Y-59995079D01*
X69380557Y-59987227D01*
X69403166Y-59981563D01*
X69426221Y-59978144D01*
X69449500Y-59977000D01*
X70024500Y-59977000D01*
X70047779Y-59978144D01*
G37*
G36*
X61220779Y-63371144D02*
G01*
X61243834Y-63374563D01*
X61266443Y-63380227D01*
X61288387Y-63388079D01*
X61309457Y-63398044D01*
X61329448Y-63410026D01*
X61348168Y-63423910D01*
X61365438Y-63439562D01*
X61381090Y-63456832D01*
X61394974Y-63475552D01*
X61406956Y-63495543D01*
X61416921Y-63516613D01*
X61424773Y-63538557D01*
X61430437Y-63561166D01*
X61433856Y-63584221D01*
X61435000Y-63607500D01*
X61435000Y-64182500D01*
X61433856Y-64205779D01*
X61430437Y-64228834D01*
X61424773Y-64251443D01*
X61416921Y-64273387D01*
X61406956Y-64294457D01*
X61394974Y-64314448D01*
X61381090Y-64333168D01*
X61365438Y-64350438D01*
X61348168Y-64366090D01*
X61329448Y-64379974D01*
X61309457Y-64391956D01*
X61288387Y-64401921D01*
X61266443Y-64409773D01*
X61243834Y-64415437D01*
X61220779Y-64418856D01*
X61197500Y-64420000D01*
X60722500Y-64420000D01*
X60699221Y-64418856D01*
X60676166Y-64415437D01*
X60653557Y-64409773D01*
X60631613Y-64401921D01*
X60610543Y-64391956D01*
X60590552Y-64379974D01*
X60571832Y-64366090D01*
X60554562Y-64350438D01*
X60538910Y-64333168D01*
X60525026Y-64314448D01*
X60513044Y-64294457D01*
X60503079Y-64273387D01*
X60495227Y-64251443D01*
X60489563Y-64228834D01*
X60486144Y-64205779D01*
X60485000Y-64182500D01*
X60485000Y-63607500D01*
X60486144Y-63584221D01*
X60489563Y-63561166D01*
X60495227Y-63538557D01*
X60503079Y-63516613D01*
X60513044Y-63495543D01*
X60525026Y-63475552D01*
X60538910Y-63456832D01*
X60554562Y-63439562D01*
X60571832Y-63423910D01*
X60590552Y-63410026D01*
X60610543Y-63398044D01*
X60631613Y-63388079D01*
X60653557Y-63380227D01*
X60676166Y-63374563D01*
X60699221Y-63371144D01*
X60722500Y-63370000D01*
X61197500Y-63370000D01*
X61220779Y-63371144D01*
G37*
G36*
X61220779Y-65121144D02*
G01*
X61243834Y-65124563D01*
X61266443Y-65130227D01*
X61288387Y-65138079D01*
X61309457Y-65148044D01*
X61329448Y-65160026D01*
X61348168Y-65173910D01*
X61365438Y-65189562D01*
X61381090Y-65206832D01*
X61394974Y-65225552D01*
X61406956Y-65245543D01*
X61416921Y-65266613D01*
X61424773Y-65288557D01*
X61430437Y-65311166D01*
X61433856Y-65334221D01*
X61435000Y-65357500D01*
X61435000Y-65932500D01*
X61433856Y-65955779D01*
X61430437Y-65978834D01*
X61424773Y-66001443D01*
X61416921Y-66023387D01*
X61406956Y-66044457D01*
X61394974Y-66064448D01*
X61381090Y-66083168D01*
X61365438Y-66100438D01*
X61348168Y-66116090D01*
X61329448Y-66129974D01*
X61309457Y-66141956D01*
X61288387Y-66151921D01*
X61266443Y-66159773D01*
X61243834Y-66165437D01*
X61220779Y-66168856D01*
X61197500Y-66170000D01*
X60722500Y-66170000D01*
X60699221Y-66168856D01*
X60676166Y-66165437D01*
X60653557Y-66159773D01*
X60631613Y-66151921D01*
X60610543Y-66141956D01*
X60590552Y-66129974D01*
X60571832Y-66116090D01*
X60554562Y-66100438D01*
X60538910Y-66083168D01*
X60525026Y-66064448D01*
X60513044Y-66044457D01*
X60503079Y-66023387D01*
X60495227Y-66001443D01*
X60489563Y-65978834D01*
X60486144Y-65955779D01*
X60485000Y-65932500D01*
X60485000Y-65357500D01*
X60486144Y-65334221D01*
X60489563Y-65311166D01*
X60495227Y-65288557D01*
X60503079Y-65266613D01*
X60513044Y-65245543D01*
X60525026Y-65225552D01*
X60538910Y-65206832D01*
X60554562Y-65189562D01*
X60571832Y-65173910D01*
X60590552Y-65160026D01*
X60610543Y-65148044D01*
X60631613Y-65138079D01*
X60653557Y-65130227D01*
X60676166Y-65124563D01*
X60699221Y-65121144D01*
X60722500Y-65120000D01*
X61197500Y-65120000D01*
X61220779Y-65121144D01*
G37*
G36*
X59188779Y-69213144D02*
G01*
X59211834Y-69216563D01*
X59234443Y-69222227D01*
X59256387Y-69230079D01*
X59277457Y-69240044D01*
X59297448Y-69252026D01*
X59316168Y-69265910D01*
X59333438Y-69281562D01*
X59349090Y-69298832D01*
X59362974Y-69317552D01*
X59374956Y-69337543D01*
X59384921Y-69358613D01*
X59392773Y-69380557D01*
X59398437Y-69403166D01*
X59401856Y-69426221D01*
X59403000Y-69449500D01*
X59403000Y-70024500D01*
X59401856Y-70047779D01*
X59398437Y-70070834D01*
X59392773Y-70093443D01*
X59384921Y-70115387D01*
X59374956Y-70136457D01*
X59362974Y-70156448D01*
X59349090Y-70175168D01*
X59333438Y-70192438D01*
X59316168Y-70208090D01*
X59297448Y-70221974D01*
X59277457Y-70233956D01*
X59256387Y-70243921D01*
X59234443Y-70251773D01*
X59211834Y-70257437D01*
X59188779Y-70260856D01*
X59165500Y-70262000D01*
X58690500Y-70262000D01*
X58667221Y-70260856D01*
X58644166Y-70257437D01*
X58621557Y-70251773D01*
X58599613Y-70243921D01*
X58578543Y-70233956D01*
X58558552Y-70221974D01*
X58539832Y-70208090D01*
X58522562Y-70192438D01*
X58506910Y-70175168D01*
X58493026Y-70156448D01*
X58481044Y-70136457D01*
X58471079Y-70115387D01*
X58463227Y-70093443D01*
X58457563Y-70070834D01*
X58454144Y-70047779D01*
X58453000Y-70024500D01*
X58453000Y-69449500D01*
X58454144Y-69426221D01*
X58457563Y-69403166D01*
X58463227Y-69380557D01*
X58471079Y-69358613D01*
X58481044Y-69337543D01*
X58493026Y-69317552D01*
X58506910Y-69298832D01*
X58522562Y-69281562D01*
X58539832Y-69265910D01*
X58558552Y-69252026D01*
X58578543Y-69240044D01*
X58599613Y-69230079D01*
X58621557Y-69222227D01*
X58644166Y-69216563D01*
X58667221Y-69213144D01*
X58690500Y-69212000D01*
X59165500Y-69212000D01*
X59188779Y-69213144D01*
G37*
G36*
X59188779Y-70963144D02*
G01*
X59211834Y-70966563D01*
X59234443Y-70972227D01*
X59256387Y-70980079D01*
X59277457Y-70990044D01*
X59297448Y-71002026D01*
X59316168Y-71015910D01*
X59333438Y-71031562D01*
X59349090Y-71048832D01*
X59362974Y-71067552D01*
X59374956Y-71087543D01*
X59384921Y-71108613D01*
X59392773Y-71130557D01*
X59398437Y-71153166D01*
X59401856Y-71176221D01*
X59403000Y-71199500D01*
X59403000Y-71774500D01*
X59401856Y-71797779D01*
X59398437Y-71820834D01*
X59392773Y-71843443D01*
X59384921Y-71865387D01*
X59374956Y-71886457D01*
X59362974Y-71906448D01*
X59349090Y-71925168D01*
X59333438Y-71942438D01*
X59316168Y-71958090D01*
X59297448Y-71971974D01*
X59277457Y-71983956D01*
X59256387Y-71993921D01*
X59234443Y-72001773D01*
X59211834Y-72007437D01*
X59188779Y-72010856D01*
X59165500Y-72012000D01*
X58690500Y-72012000D01*
X58667221Y-72010856D01*
X58644166Y-72007437D01*
X58621557Y-72001773D01*
X58599613Y-71993921D01*
X58578543Y-71983956D01*
X58558552Y-71971974D01*
X58539832Y-71958090D01*
X58522562Y-71942438D01*
X58506910Y-71925168D01*
X58493026Y-71906448D01*
X58481044Y-71886457D01*
X58471079Y-71865387D01*
X58463227Y-71843443D01*
X58457563Y-71820834D01*
X58454144Y-71797779D01*
X58453000Y-71774500D01*
X58453000Y-71199500D01*
X58454144Y-71176221D01*
X58457563Y-71153166D01*
X58463227Y-71130557D01*
X58471079Y-71108613D01*
X58481044Y-71087543D01*
X58493026Y-71067552D01*
X58506910Y-71048832D01*
X58522562Y-71031562D01*
X58539832Y-71015910D01*
X58558552Y-71002026D01*
X58578543Y-70990044D01*
X58599613Y-70980079D01*
X58621557Y-70972227D01*
X58644166Y-70966563D01*
X58667221Y-70963144D01*
X58690500Y-70962000D01*
X59165500Y-70962000D01*
X59188779Y-70963144D01*
G37*
G36*
X73829779Y-78266144D02*
G01*
X73852834Y-78269563D01*
X73875443Y-78275227D01*
X73897387Y-78283079D01*
X73918457Y-78293044D01*
X73938448Y-78305026D01*
X73957168Y-78318910D01*
X73974438Y-78334562D01*
X73990090Y-78351832D01*
X74003974Y-78370552D01*
X74015956Y-78390543D01*
X74025921Y-78411613D01*
X74033773Y-78433557D01*
X74039437Y-78456166D01*
X74042856Y-78479221D01*
X74044000Y-78502500D01*
X74044000Y-78977500D01*
X74042856Y-79000779D01*
X74039437Y-79023834D01*
X74033773Y-79046443D01*
X74025921Y-79068387D01*
X74015956Y-79089457D01*
X74003974Y-79109448D01*
X73990090Y-79128168D01*
X73974438Y-79145438D01*
X73957168Y-79161090D01*
X73938448Y-79174974D01*
X73918457Y-79186956D01*
X73897387Y-79196921D01*
X73875443Y-79204773D01*
X73852834Y-79210437D01*
X73829779Y-79213856D01*
X73806500Y-79215000D01*
X73231500Y-79215000D01*
X73208221Y-79213856D01*
X73185166Y-79210437D01*
X73162557Y-79204773D01*
X73140613Y-79196921D01*
X73119543Y-79186956D01*
X73099552Y-79174974D01*
X73080832Y-79161090D01*
X73063562Y-79145438D01*
X73047910Y-79128168D01*
X73034026Y-79109448D01*
X73022044Y-79089457D01*
X73012079Y-79068387D01*
X73004227Y-79046443D01*
X72998563Y-79023834D01*
X72995144Y-79000779D01*
X72994000Y-78977500D01*
X72994000Y-78502500D01*
X72995144Y-78479221D01*
X72998563Y-78456166D01*
X73004227Y-78433557D01*
X73012079Y-78411613D01*
X73022044Y-78390543D01*
X73034026Y-78370552D01*
X73047910Y-78351832D01*
X73063562Y-78334562D01*
X73080832Y-78318910D01*
X73099552Y-78305026D01*
X73119543Y-78293044D01*
X73140613Y-78283079D01*
X73162557Y-78275227D01*
X73185166Y-78269563D01*
X73208221Y-78266144D01*
X73231500Y-78265000D01*
X73806500Y-78265000D01*
X73829779Y-78266144D01*
G37*
G36*
X72079779Y-78266144D02*
G01*
X72102834Y-78269563D01*
X72125443Y-78275227D01*
X72147387Y-78283079D01*
X72168457Y-78293044D01*
X72188448Y-78305026D01*
X72207168Y-78318910D01*
X72224438Y-78334562D01*
X72240090Y-78351832D01*
X72253974Y-78370552D01*
X72265956Y-78390543D01*
X72275921Y-78411613D01*
X72283773Y-78433557D01*
X72289437Y-78456166D01*
X72292856Y-78479221D01*
X72294000Y-78502500D01*
X72294000Y-78977500D01*
X72292856Y-79000779D01*
X72289437Y-79023834D01*
X72283773Y-79046443D01*
X72275921Y-79068387D01*
X72265956Y-79089457D01*
X72253974Y-79109448D01*
X72240090Y-79128168D01*
X72224438Y-79145438D01*
X72207168Y-79161090D01*
X72188448Y-79174974D01*
X72168457Y-79186956D01*
X72147387Y-79196921D01*
X72125443Y-79204773D01*
X72102834Y-79210437D01*
X72079779Y-79213856D01*
X72056500Y-79215000D01*
X71481500Y-79215000D01*
X71458221Y-79213856D01*
X71435166Y-79210437D01*
X71412557Y-79204773D01*
X71390613Y-79196921D01*
X71369543Y-79186956D01*
X71349552Y-79174974D01*
X71330832Y-79161090D01*
X71313562Y-79145438D01*
X71297910Y-79128168D01*
X71284026Y-79109448D01*
X71272044Y-79089457D01*
X71262079Y-79068387D01*
X71254227Y-79046443D01*
X71248563Y-79023834D01*
X71245144Y-79000779D01*
X71244000Y-78977500D01*
X71244000Y-78502500D01*
X71245144Y-78479221D01*
X71248563Y-78456166D01*
X71254227Y-78433557D01*
X71262079Y-78411613D01*
X71272044Y-78390543D01*
X71284026Y-78370552D01*
X71297910Y-78351832D01*
X71313562Y-78334562D01*
X71330832Y-78318910D01*
X71349552Y-78305026D01*
X71369543Y-78293044D01*
X71390613Y-78283079D01*
X71412557Y-78275227D01*
X71435166Y-78269563D01*
X71458221Y-78266144D01*
X71481500Y-78265000D01*
X72056500Y-78265000D01*
X72079779Y-78266144D01*
G37*
D12*
X55118000Y-86030000D03*
X55118000Y-89230000D03*
X73152000Y-89230000D03*
X73152000Y-86030000D03*
D10*
G36*
X70301779Y-69122144D02*
G01*
X70324834Y-69125563D01*
X70347443Y-69131227D01*
X70369387Y-69139079D01*
X70390457Y-69149044D01*
X70410448Y-69161026D01*
X70429168Y-69174910D01*
X70446438Y-69190562D01*
X70462090Y-69207832D01*
X70475974Y-69226552D01*
X70487956Y-69246543D01*
X70497921Y-69267613D01*
X70505773Y-69289557D01*
X70511437Y-69312166D01*
X70514856Y-69335221D01*
X70516000Y-69358500D01*
X70516000Y-69833500D01*
X70514856Y-69856779D01*
X70511437Y-69879834D01*
X70505773Y-69902443D01*
X70497921Y-69924387D01*
X70487956Y-69945457D01*
X70475974Y-69965448D01*
X70462090Y-69984168D01*
X70446438Y-70001438D01*
X70429168Y-70017090D01*
X70410448Y-70030974D01*
X70390457Y-70042956D01*
X70369387Y-70052921D01*
X70347443Y-70060773D01*
X70324834Y-70066437D01*
X70301779Y-70069856D01*
X70278500Y-70071000D01*
X69703500Y-70071000D01*
X69680221Y-70069856D01*
X69657166Y-70066437D01*
X69634557Y-70060773D01*
X69612613Y-70052921D01*
X69591543Y-70042956D01*
X69571552Y-70030974D01*
X69552832Y-70017090D01*
X69535562Y-70001438D01*
X69519910Y-69984168D01*
X69506026Y-69965448D01*
X69494044Y-69945457D01*
X69484079Y-69924387D01*
X69476227Y-69902443D01*
X69470563Y-69879834D01*
X69467144Y-69856779D01*
X69466000Y-69833500D01*
X69466000Y-69358500D01*
X69467144Y-69335221D01*
X69470563Y-69312166D01*
X69476227Y-69289557D01*
X69484079Y-69267613D01*
X69494044Y-69246543D01*
X69506026Y-69226552D01*
X69519910Y-69207832D01*
X69535562Y-69190562D01*
X69552832Y-69174910D01*
X69571552Y-69161026D01*
X69591543Y-69149044D01*
X69612613Y-69139079D01*
X69634557Y-69131227D01*
X69657166Y-69125563D01*
X69680221Y-69122144D01*
X69703500Y-69121000D01*
X70278500Y-69121000D01*
X70301779Y-69122144D01*
G37*
G36*
X72051779Y-69122144D02*
G01*
X72074834Y-69125563D01*
X72097443Y-69131227D01*
X72119387Y-69139079D01*
X72140457Y-69149044D01*
X72160448Y-69161026D01*
X72179168Y-69174910D01*
X72196438Y-69190562D01*
X72212090Y-69207832D01*
X72225974Y-69226552D01*
X72237956Y-69246543D01*
X72247921Y-69267613D01*
X72255773Y-69289557D01*
X72261437Y-69312166D01*
X72264856Y-69335221D01*
X72266000Y-69358500D01*
X72266000Y-69833500D01*
X72264856Y-69856779D01*
X72261437Y-69879834D01*
X72255773Y-69902443D01*
X72247921Y-69924387D01*
X72237956Y-69945457D01*
X72225974Y-69965448D01*
X72212090Y-69984168D01*
X72196438Y-70001438D01*
X72179168Y-70017090D01*
X72160448Y-70030974D01*
X72140457Y-70042956D01*
X72119387Y-70052921D01*
X72097443Y-70060773D01*
X72074834Y-70066437D01*
X72051779Y-70069856D01*
X72028500Y-70071000D01*
X71453500Y-70071000D01*
X71430221Y-70069856D01*
X71407166Y-70066437D01*
X71384557Y-70060773D01*
X71362613Y-70052921D01*
X71341543Y-70042956D01*
X71321552Y-70030974D01*
X71302832Y-70017090D01*
X71285562Y-70001438D01*
X71269910Y-69984168D01*
X71256026Y-69965448D01*
X71244044Y-69945457D01*
X71234079Y-69924387D01*
X71226227Y-69902443D01*
X71220563Y-69879834D01*
X71217144Y-69856779D01*
X71216000Y-69833500D01*
X71216000Y-69358500D01*
X71217144Y-69335221D01*
X71220563Y-69312166D01*
X71226227Y-69289557D01*
X71234079Y-69267613D01*
X71244044Y-69246543D01*
X71256026Y-69226552D01*
X71269910Y-69207832D01*
X71285562Y-69190562D01*
X71302832Y-69174910D01*
X71321552Y-69161026D01*
X71341543Y-69149044D01*
X71362613Y-69139079D01*
X71384557Y-69131227D01*
X71407166Y-69125563D01*
X71430221Y-69122144D01*
X71453500Y-69121000D01*
X72028500Y-69121000D01*
X72051779Y-69122144D01*
G37*
G36*
X70301779Y-71408144D02*
G01*
X70324834Y-71411563D01*
X70347443Y-71417227D01*
X70369387Y-71425079D01*
X70390457Y-71435044D01*
X70410448Y-71447026D01*
X70429168Y-71460910D01*
X70446438Y-71476562D01*
X70462090Y-71493832D01*
X70475974Y-71512552D01*
X70487956Y-71532543D01*
X70497921Y-71553613D01*
X70505773Y-71575557D01*
X70511437Y-71598166D01*
X70514856Y-71621221D01*
X70516000Y-71644500D01*
X70516000Y-72119500D01*
X70514856Y-72142779D01*
X70511437Y-72165834D01*
X70505773Y-72188443D01*
X70497921Y-72210387D01*
X70487956Y-72231457D01*
X70475974Y-72251448D01*
X70462090Y-72270168D01*
X70446438Y-72287438D01*
X70429168Y-72303090D01*
X70410448Y-72316974D01*
X70390457Y-72328956D01*
X70369387Y-72338921D01*
X70347443Y-72346773D01*
X70324834Y-72352437D01*
X70301779Y-72355856D01*
X70278500Y-72357000D01*
X69703500Y-72357000D01*
X69680221Y-72355856D01*
X69657166Y-72352437D01*
X69634557Y-72346773D01*
X69612613Y-72338921D01*
X69591543Y-72328956D01*
X69571552Y-72316974D01*
X69552832Y-72303090D01*
X69535562Y-72287438D01*
X69519910Y-72270168D01*
X69506026Y-72251448D01*
X69494044Y-72231457D01*
X69484079Y-72210387D01*
X69476227Y-72188443D01*
X69470563Y-72165834D01*
X69467144Y-72142779D01*
X69466000Y-72119500D01*
X69466000Y-71644500D01*
X69467144Y-71621221D01*
X69470563Y-71598166D01*
X69476227Y-71575557D01*
X69484079Y-71553613D01*
X69494044Y-71532543D01*
X69506026Y-71512552D01*
X69519910Y-71493832D01*
X69535562Y-71476562D01*
X69552832Y-71460910D01*
X69571552Y-71447026D01*
X69591543Y-71435044D01*
X69612613Y-71425079D01*
X69634557Y-71417227D01*
X69657166Y-71411563D01*
X69680221Y-71408144D01*
X69703500Y-71407000D01*
X70278500Y-71407000D01*
X70301779Y-71408144D01*
G37*
G36*
X72051779Y-71408144D02*
G01*
X72074834Y-71411563D01*
X72097443Y-71417227D01*
X72119387Y-71425079D01*
X72140457Y-71435044D01*
X72160448Y-71447026D01*
X72179168Y-71460910D01*
X72196438Y-71476562D01*
X72212090Y-71493832D01*
X72225974Y-71512552D01*
X72237956Y-71532543D01*
X72247921Y-71553613D01*
X72255773Y-71575557D01*
X72261437Y-71598166D01*
X72264856Y-71621221D01*
X72266000Y-71644500D01*
X72266000Y-72119500D01*
X72264856Y-72142779D01*
X72261437Y-72165834D01*
X72255773Y-72188443D01*
X72247921Y-72210387D01*
X72237956Y-72231457D01*
X72225974Y-72251448D01*
X72212090Y-72270168D01*
X72196438Y-72287438D01*
X72179168Y-72303090D01*
X72160448Y-72316974D01*
X72140457Y-72328956D01*
X72119387Y-72338921D01*
X72097443Y-72346773D01*
X72074834Y-72352437D01*
X72051779Y-72355856D01*
X72028500Y-72357000D01*
X71453500Y-72357000D01*
X71430221Y-72355856D01*
X71407166Y-72352437D01*
X71384557Y-72346773D01*
X71362613Y-72338921D01*
X71341543Y-72328956D01*
X71321552Y-72316974D01*
X71302832Y-72303090D01*
X71285562Y-72287438D01*
X71269910Y-72270168D01*
X71256026Y-72251448D01*
X71244044Y-72231457D01*
X71234079Y-72210387D01*
X71226227Y-72188443D01*
X71220563Y-72165834D01*
X71217144Y-72142779D01*
X71216000Y-72119500D01*
X71216000Y-71644500D01*
X71217144Y-71621221D01*
X71220563Y-71598166D01*
X71226227Y-71575557D01*
X71234079Y-71553613D01*
X71244044Y-71532543D01*
X71256026Y-71512552D01*
X71269910Y-71493832D01*
X71285562Y-71476562D01*
X71302832Y-71460910D01*
X71321552Y-71447026D01*
X71341543Y-71435044D01*
X71362613Y-71425079D01*
X71384557Y-71417227D01*
X71407166Y-71411563D01*
X71430221Y-71408144D01*
X71453500Y-71407000D01*
X72028500Y-71407000D01*
X72051779Y-71408144D01*
G37*
G36*
X73829779Y-75218144D02*
G01*
X73852834Y-75221563D01*
X73875443Y-75227227D01*
X73897387Y-75235079D01*
X73918457Y-75245044D01*
X73938448Y-75257026D01*
X73957168Y-75270910D01*
X73974438Y-75286562D01*
X73990090Y-75303832D01*
X74003974Y-75322552D01*
X74015956Y-75342543D01*
X74025921Y-75363613D01*
X74033773Y-75385557D01*
X74039437Y-75408166D01*
X74042856Y-75431221D01*
X74044000Y-75454500D01*
X74044000Y-75929500D01*
X74042856Y-75952779D01*
X74039437Y-75975834D01*
X74033773Y-75998443D01*
X74025921Y-76020387D01*
X74015956Y-76041457D01*
X74003974Y-76061448D01*
X73990090Y-76080168D01*
X73974438Y-76097438D01*
X73957168Y-76113090D01*
X73938448Y-76126974D01*
X73918457Y-76138956D01*
X73897387Y-76148921D01*
X73875443Y-76156773D01*
X73852834Y-76162437D01*
X73829779Y-76165856D01*
X73806500Y-76167000D01*
X73231500Y-76167000D01*
X73208221Y-76165856D01*
X73185166Y-76162437D01*
X73162557Y-76156773D01*
X73140613Y-76148921D01*
X73119543Y-76138956D01*
X73099552Y-76126974D01*
X73080832Y-76113090D01*
X73063562Y-76097438D01*
X73047910Y-76080168D01*
X73034026Y-76061448D01*
X73022044Y-76041457D01*
X73012079Y-76020387D01*
X73004227Y-75998443D01*
X72998563Y-75975834D01*
X72995144Y-75952779D01*
X72994000Y-75929500D01*
X72994000Y-75454500D01*
X72995144Y-75431221D01*
X72998563Y-75408166D01*
X73004227Y-75385557D01*
X73012079Y-75363613D01*
X73022044Y-75342543D01*
X73034026Y-75322552D01*
X73047910Y-75303832D01*
X73063562Y-75286562D01*
X73080832Y-75270910D01*
X73099552Y-75257026D01*
X73119543Y-75245044D01*
X73140613Y-75235079D01*
X73162557Y-75227227D01*
X73185166Y-75221563D01*
X73208221Y-75218144D01*
X73231500Y-75217000D01*
X73806500Y-75217000D01*
X73829779Y-75218144D01*
G37*
G36*
X72079779Y-75218144D02*
G01*
X72102834Y-75221563D01*
X72125443Y-75227227D01*
X72147387Y-75235079D01*
X72168457Y-75245044D01*
X72188448Y-75257026D01*
X72207168Y-75270910D01*
X72224438Y-75286562D01*
X72240090Y-75303832D01*
X72253974Y-75322552D01*
X72265956Y-75342543D01*
X72275921Y-75363613D01*
X72283773Y-75385557D01*
X72289437Y-75408166D01*
X72292856Y-75431221D01*
X72294000Y-75454500D01*
X72294000Y-75929500D01*
X72292856Y-75952779D01*
X72289437Y-75975834D01*
X72283773Y-75998443D01*
X72275921Y-76020387D01*
X72265956Y-76041457D01*
X72253974Y-76061448D01*
X72240090Y-76080168D01*
X72224438Y-76097438D01*
X72207168Y-76113090D01*
X72188448Y-76126974D01*
X72168457Y-76138956D01*
X72147387Y-76148921D01*
X72125443Y-76156773D01*
X72102834Y-76162437D01*
X72079779Y-76165856D01*
X72056500Y-76167000D01*
X71481500Y-76167000D01*
X71458221Y-76165856D01*
X71435166Y-76162437D01*
X71412557Y-76156773D01*
X71390613Y-76148921D01*
X71369543Y-76138956D01*
X71349552Y-76126974D01*
X71330832Y-76113090D01*
X71313562Y-76097438D01*
X71297910Y-76080168D01*
X71284026Y-76061448D01*
X71272044Y-76041457D01*
X71262079Y-76020387D01*
X71254227Y-75998443D01*
X71248563Y-75975834D01*
X71245144Y-75952779D01*
X71244000Y-75929500D01*
X71244000Y-75454500D01*
X71245144Y-75431221D01*
X71248563Y-75408166D01*
X71254227Y-75385557D01*
X71262079Y-75363613D01*
X71272044Y-75342543D01*
X71284026Y-75322552D01*
X71297910Y-75303832D01*
X71313562Y-75286562D01*
X71330832Y-75270910D01*
X71349552Y-75257026D01*
X71369543Y-75245044D01*
X71390613Y-75235079D01*
X71412557Y-75227227D01*
X71435166Y-75221563D01*
X71458221Y-75218144D01*
X71481500Y-75217000D01*
X72056500Y-75217000D01*
X72079779Y-75218144D01*
G37*
M02*
