G04 #@! TF.GenerationSoftware,KiCad,Pcbnew,(5.1.5)-3*
G04 #@! TF.CreationDate,2020-04-08T22:33:11-07:00*
G04 #@! TF.ProjectId,microbug,6d696372-6f62-4756-972e-6b696361645f,rev?*
G04 #@! TF.SameCoordinates,Original*
G04 #@! TF.FileFunction,Legend,Top*
G04 #@! TF.FilePolarity,Positive*
%FSLAX46Y46*%
G04 Gerber Fmt 4.6, Leading zero omitted, Abs format (unit mm)*
G04 Created by KiCad (PCBNEW (5.1.5)-3) date 2020-04-08 22:33:11*
%MOMM*%
%LPD*%
G04 APERTURE LIST*
%ADD10C,0.150000*%
%ADD11C,0.120000*%
G04 APERTURE END LIST*
D10*
X74295000Y-76962000D02*
X74295000Y-74422000D01*
X53975000Y-76962000D02*
X53975000Y-74422000D01*
X74295000Y-88392000D02*
X74295000Y-84582000D01*
X53975000Y-88392000D02*
X53975000Y-84582000D01*
X60325000Y-92202000D02*
X53975000Y-88392000D01*
X67945000Y-92202000D02*
X74295000Y-88392000D01*
X60325000Y-92202000D02*
X67945000Y-92202000D01*
D11*
X61662000Y-72196000D02*
X61662000Y-70866000D01*
X62992000Y-72196000D02*
X61662000Y-72196000D01*
X64262000Y-72196000D02*
X64262000Y-69536000D01*
X64262000Y-69536000D02*
X66862000Y-69536000D01*
X64262000Y-72196000D02*
X66862000Y-72196000D01*
X66862000Y-72196000D02*
X66862000Y-69536000D01*
X49978000Y-71942000D02*
X49978000Y-70612000D01*
X51308000Y-71942000D02*
X49978000Y-71942000D01*
X52578000Y-71942000D02*
X52578000Y-69282000D01*
X52578000Y-69282000D02*
X57718000Y-69282000D01*
X52578000Y-71942000D02*
X57718000Y-71942000D01*
X57718000Y-71942000D02*
X57718000Y-69282000D01*
X65592000Y-68386000D02*
X64262000Y-68386000D01*
X65592000Y-67056000D02*
X65592000Y-68386000D01*
X65592000Y-65786000D02*
X62932000Y-65786000D01*
X62932000Y-65786000D02*
X62932000Y-60646000D01*
X65592000Y-65786000D02*
X65592000Y-60646000D01*
X65592000Y-60646000D02*
X62932000Y-60646000D01*
X50482000Y-73370000D02*
X50326000Y-73370000D01*
X52798000Y-73370000D02*
X52642000Y-73370000D01*
X50482163Y-75971130D02*
G75*
G02X50482000Y-73889039I1079837J1041130D01*
G01*
X52641837Y-75971130D02*
G75*
G03X52642000Y-73889039I-1079837J1041130D01*
G01*
X50483392Y-76602335D02*
G75*
G02X50326484Y-73370000I1078608J1672335D01*
G01*
X52640608Y-76602335D02*
G75*
G03X52797516Y-73370000I-1078608J1672335D01*
G01*
X77506000Y-69532000D02*
X77506000Y-69376000D01*
X77506000Y-71848000D02*
X77506000Y-71692000D01*
X74904870Y-69532163D02*
G75*
G02X76986961Y-69532000I1041130J-1079837D01*
G01*
X74904870Y-71691837D02*
G75*
G03X76986961Y-71692000I1041130J1079837D01*
G01*
X74273665Y-69533392D02*
G75*
G02X77506000Y-69376484I1672335J-1078608D01*
G01*
X74273665Y-71690608D02*
G75*
G03X77506000Y-71847516I1672335J1078608D01*
G01*
D10*
X63349285Y-87050571D02*
X63492142Y-87098190D01*
X63539761Y-87145809D01*
X63587380Y-87241047D01*
X63587380Y-87383904D01*
X63539761Y-87479142D01*
X63492142Y-87526761D01*
X63396904Y-87574380D01*
X63015952Y-87574380D01*
X63015952Y-86574380D01*
X63349285Y-86574380D01*
X63444523Y-86622000D01*
X63492142Y-86669619D01*
X63539761Y-86764857D01*
X63539761Y-86860095D01*
X63492142Y-86955333D01*
X63444523Y-87002952D01*
X63349285Y-87050571D01*
X63015952Y-87050571D01*
X63873095Y-86574380D02*
X64444523Y-86574380D01*
X64158809Y-87574380D02*
X64158809Y-86574380D01*
X65301666Y-87574380D02*
X64730238Y-87574380D01*
X65015952Y-87574380D02*
X65015952Y-86574380D01*
X64920714Y-86717238D01*
X64825476Y-86812476D01*
X64730238Y-86860095D01*
X60114380Y-71199333D02*
X60828666Y-71199333D01*
X60971523Y-71246952D01*
X61066761Y-71342190D01*
X61114380Y-71485047D01*
X61114380Y-71580285D01*
X60114380Y-70818380D02*
X60114380Y-70199333D01*
X60495333Y-70532666D01*
X60495333Y-70389809D01*
X60542952Y-70294571D01*
X60590571Y-70246952D01*
X60685809Y-70199333D01*
X60923904Y-70199333D01*
X61019142Y-70246952D01*
X61066761Y-70294571D01*
X61114380Y-70389809D01*
X61114380Y-70675523D01*
X61066761Y-70770761D01*
X61019142Y-70818380D01*
X48430380Y-70945333D02*
X49144666Y-70945333D01*
X49287523Y-70992952D01*
X49382761Y-71088190D01*
X49430380Y-71231047D01*
X49430380Y-71326285D01*
X48525619Y-70516761D02*
X48478000Y-70469142D01*
X48430380Y-70373904D01*
X48430380Y-70135809D01*
X48478000Y-70040571D01*
X48525619Y-69992952D01*
X48620857Y-69945333D01*
X48716095Y-69945333D01*
X48858952Y-69992952D01*
X49430380Y-70564380D01*
X49430380Y-69945333D01*
X63928666Y-68838380D02*
X63928666Y-69552666D01*
X63881047Y-69695523D01*
X63785809Y-69790761D01*
X63642952Y-69838380D01*
X63547714Y-69838380D01*
X64928666Y-69838380D02*
X64357238Y-69838380D01*
X64642952Y-69838380D02*
X64642952Y-68838380D01*
X64547714Y-68981238D01*
X64452476Y-69076476D01*
X64357238Y-69124095D01*
X54974380Y-75668095D02*
X53974380Y-75668095D01*
X53974380Y-75430000D01*
X54022000Y-75287142D01*
X54117238Y-75191904D01*
X54212476Y-75144285D01*
X54402952Y-75096666D01*
X54545809Y-75096666D01*
X54736285Y-75144285D01*
X54831523Y-75191904D01*
X54926761Y-75287142D01*
X54974380Y-75430000D01*
X54974380Y-75668095D01*
X53974380Y-74763333D02*
X53974380Y-74144285D01*
X54355333Y-74477619D01*
X54355333Y-74334761D01*
X54402952Y-74239523D01*
X54450571Y-74191904D01*
X54545809Y-74144285D01*
X54783904Y-74144285D01*
X54879142Y-74191904D01*
X54926761Y-74239523D01*
X54974380Y-74334761D01*
X54974380Y-74620476D01*
X54926761Y-74715714D01*
X54879142Y-74763333D01*
X75207904Y-74024380D02*
X75207904Y-73024380D01*
X75446000Y-73024380D01*
X75588857Y-73072000D01*
X75684095Y-73167238D01*
X75731714Y-73262476D01*
X75779333Y-73452952D01*
X75779333Y-73595809D01*
X75731714Y-73786285D01*
X75684095Y-73881523D01*
X75588857Y-73976761D01*
X75446000Y-74024380D01*
X75207904Y-74024380D01*
X76731714Y-74024380D02*
X76160285Y-74024380D01*
X76446000Y-74024380D02*
X76446000Y-73024380D01*
X76350761Y-73167238D01*
X76255523Y-73262476D01*
X76160285Y-73310095D01*
M02*
