G04 #@! TF.GenerationSoftware,KiCad,Pcbnew,(5.1.5)-3*
G04 #@! TF.CreationDate,2020-04-08T22:33:11-07:00*
G04 #@! TF.ProjectId,microbug,6d696372-6f62-4756-972e-6b696361645f,rev?*
G04 #@! TF.SameCoordinates,Original*
G04 #@! TF.FileFunction,Copper,L1,Top*
G04 #@! TF.FilePolarity,Positive*
%FSLAX46Y46*%
G04 Gerber Fmt 4.6, Leading zero omitted, Abs format (unit mm)*
G04 Created by KiCad (PCBNEW (5.1.5)-3) date 2020-04-08 22:33:11*
%MOMM*%
%LPD*%
G04 APERTURE LIST*
%ADD10R,6.096000X6.096000*%
%ADD11O,1.100000X1.500000*%
%ADD12C,0.100000*%
%ADD13O,1.700000X1.700000*%
%ADD14R,1.700000X1.700000*%
%ADD15C,1.800000*%
%ADD16R,1.800000X1.800000*%
%ADD17C,0.800000*%
%ADD18C,0.152400*%
G04 APERTURE END LIST*
D10*
X76454000Y-80772000D03*
X51816000Y-80772000D03*
X64135000Y-80772000D03*
D11*
X73130000Y-63310000D03*
X74930000Y-63310000D03*
G04 #@! TA.AperFunction,ComponentPad*
D12*
G36*
X75254775Y-66561202D02*
G01*
X75279014Y-66564798D01*
X75302784Y-66570752D01*
X75325856Y-66579007D01*
X75348008Y-66589484D01*
X75369026Y-66602082D01*
X75388708Y-66616679D01*
X75406865Y-66633135D01*
X75423321Y-66651292D01*
X75437918Y-66670974D01*
X75450516Y-66691992D01*
X75460993Y-66714144D01*
X75469248Y-66737216D01*
X75475202Y-66760986D01*
X75478798Y-66785225D01*
X75480000Y-66809700D01*
X75480000Y-67810300D01*
X75478798Y-67834775D01*
X75475202Y-67859014D01*
X75469248Y-67882784D01*
X75460993Y-67905856D01*
X75450516Y-67928008D01*
X75437918Y-67949026D01*
X75423321Y-67968708D01*
X75406865Y-67986865D01*
X75388708Y-68003321D01*
X75369026Y-68017918D01*
X75348008Y-68030516D01*
X75325856Y-68040993D01*
X75302784Y-68049248D01*
X75279014Y-68055202D01*
X75254775Y-68058798D01*
X75230300Y-68060000D01*
X74629700Y-68060000D01*
X74605225Y-68058798D01*
X74580986Y-68055202D01*
X74557216Y-68049248D01*
X74534144Y-68040993D01*
X74511992Y-68030516D01*
X74490974Y-68017918D01*
X74471292Y-68003321D01*
X74453135Y-67986865D01*
X74436679Y-67968708D01*
X74422082Y-67949026D01*
X74409484Y-67928008D01*
X74399007Y-67905856D01*
X74390752Y-67882784D01*
X74384798Y-67859014D01*
X74381202Y-67834775D01*
X74380000Y-67810300D01*
X74380000Y-66809700D01*
X74381202Y-66785225D01*
X74384798Y-66760986D01*
X74390752Y-66737216D01*
X74399007Y-66714144D01*
X74409484Y-66691992D01*
X74422082Y-66670974D01*
X74436679Y-66651292D01*
X74453135Y-66633135D01*
X74471292Y-66616679D01*
X74490974Y-66602082D01*
X74511992Y-66589484D01*
X74534144Y-66579007D01*
X74557216Y-66570752D01*
X74580986Y-66564798D01*
X74605225Y-66561202D01*
X74629700Y-66560000D01*
X75230300Y-66560000D01*
X75254775Y-66561202D01*
G37*
G04 #@! TD.AperFunction*
D11*
X73130000Y-67310000D03*
X57680000Y-67500000D03*
X55880000Y-67500000D03*
G04 #@! TA.AperFunction,ComponentPad*
D12*
G36*
X56204775Y-62751202D02*
G01*
X56229014Y-62754798D01*
X56252784Y-62760752D01*
X56275856Y-62769007D01*
X56298008Y-62779484D01*
X56319026Y-62792082D01*
X56338708Y-62806679D01*
X56356865Y-62823135D01*
X56373321Y-62841292D01*
X56387918Y-62860974D01*
X56400516Y-62881992D01*
X56410993Y-62904144D01*
X56419248Y-62927216D01*
X56425202Y-62950986D01*
X56428798Y-62975225D01*
X56430000Y-62999700D01*
X56430000Y-64000300D01*
X56428798Y-64024775D01*
X56425202Y-64049014D01*
X56419248Y-64072784D01*
X56410993Y-64095856D01*
X56400516Y-64118008D01*
X56387918Y-64139026D01*
X56373321Y-64158708D01*
X56356865Y-64176865D01*
X56338708Y-64193321D01*
X56319026Y-64207918D01*
X56298008Y-64220516D01*
X56275856Y-64230993D01*
X56252784Y-64239248D01*
X56229014Y-64245202D01*
X56204775Y-64248798D01*
X56180300Y-64250000D01*
X55579700Y-64250000D01*
X55555225Y-64248798D01*
X55530986Y-64245202D01*
X55507216Y-64239248D01*
X55484144Y-64230993D01*
X55461992Y-64220516D01*
X55440974Y-64207918D01*
X55421292Y-64193321D01*
X55403135Y-64176865D01*
X55386679Y-64158708D01*
X55372082Y-64139026D01*
X55359484Y-64118008D01*
X55349007Y-64095856D01*
X55340752Y-64072784D01*
X55334798Y-64049014D01*
X55331202Y-64024775D01*
X55330000Y-64000300D01*
X55330000Y-62999700D01*
X55331202Y-62975225D01*
X55334798Y-62950986D01*
X55340752Y-62927216D01*
X55349007Y-62904144D01*
X55359484Y-62881992D01*
X55372082Y-62860974D01*
X55386679Y-62841292D01*
X55403135Y-62823135D01*
X55421292Y-62806679D01*
X55440974Y-62792082D01*
X55461992Y-62779484D01*
X55484144Y-62769007D01*
X55507216Y-62760752D01*
X55530986Y-62754798D01*
X55555225Y-62751202D01*
X55579700Y-62750000D01*
X56180300Y-62750000D01*
X56204775Y-62751202D01*
G37*
G04 #@! TD.AperFunction*
D11*
X57680000Y-63500000D03*
D13*
X65532000Y-70866000D03*
D14*
X62992000Y-70866000D03*
D13*
X56388000Y-70612000D03*
X53848000Y-70612000D03*
D14*
X51308000Y-70612000D03*
D13*
X64262000Y-61976000D03*
X64262000Y-64516000D03*
D14*
X64262000Y-67056000D03*
D15*
X51562000Y-76200000D03*
D16*
X51562000Y-73660000D03*
D15*
X62992000Y-58420000D03*
D16*
X65532000Y-58420000D03*
D15*
X74676000Y-70612000D03*
D16*
X77216000Y-70612000D03*
D17*
X64008000Y-91186000D03*
X69088000Y-76200000D03*
X73406000Y-76962000D03*
X56642000Y-81534000D03*
X57150000Y-91694000D03*
X64008000Y-76962000D03*
X57150000Y-89154000D03*
X69088000Y-79756000D03*
X72644000Y-91948000D03*
X69088000Y-78486000D03*
X71882000Y-84074000D03*
X65278000Y-76708000D03*
X51562000Y-84582000D03*
X65278000Y-94488000D03*
X68326000Y-81026000D03*
X72136000Y-82296000D03*
X66548000Y-91186000D03*
X68834000Y-74676000D03*
X59944000Y-72136000D03*
X58420000Y-80264000D03*
X57404000Y-86106000D03*
X64770000Y-88646000D03*
X66040000Y-86106000D03*
X58674000Y-78740000D03*
X67056000Y-84582000D03*
D18*
X51816000Y-80772000D02*
X57150000Y-75438000D01*
X76454000Y-77571600D02*
X76454000Y-80772000D01*
X74320400Y-75438000D02*
X76454000Y-77571600D01*
X57150000Y-75438000D02*
X74320400Y-75438000D01*
X50687399Y-79643399D02*
X51816000Y-80772000D01*
X51308000Y-70612000D02*
X51308000Y-71614400D01*
X50433399Y-72489001D02*
X50433399Y-74026601D01*
X51308000Y-71614400D02*
X50433399Y-72489001D01*
X50433399Y-74026601D02*
X49276000Y-75184000D01*
X49276000Y-78232000D02*
X51816000Y-80772000D01*
X49276000Y-75184000D02*
X49276000Y-78232000D01*
X56777600Y-66597600D02*
X56977600Y-66597600D01*
X57680000Y-67300000D02*
X57680000Y-67500000D01*
X55880000Y-65700000D02*
X56777600Y-66597600D01*
X56977600Y-66597600D02*
X57680000Y-67300000D01*
X55880000Y-63500000D02*
X55880000Y-65700000D01*
X51816000Y-72607600D02*
X51816000Y-73660000D01*
X52769399Y-71654201D02*
X51816000Y-72607600D01*
X53330271Y-69533399D02*
X52769399Y-70094271D01*
X55846601Y-69533399D02*
X53330271Y-69533399D01*
X52769399Y-70094271D02*
X52769399Y-71654201D01*
X57680000Y-67700000D02*
X55846601Y-69533399D01*
X57680000Y-67500000D02*
X57680000Y-67700000D01*
X73130000Y-65510000D02*
X74930000Y-67310000D01*
X73130000Y-63310000D02*
X73130000Y-65510000D01*
X64008000Y-80899000D02*
X64135000Y-80772000D01*
X64008000Y-91186000D02*
X64008000Y-80899000D01*
X64770000Y-80137000D02*
X64135000Y-80772000D01*
X65024000Y-79883000D02*
X64135000Y-80772000D01*
X64516000Y-80772000D02*
X64135000Y-80772000D01*
X68580000Y-76708000D02*
X64516000Y-80772000D01*
X52868400Y-73660000D02*
X51816000Y-73660000D01*
X60245729Y-71507399D02*
X57088931Y-71507399D01*
X62906330Y-74168000D02*
X60245729Y-71507399D01*
X65858330Y-74168000D02*
X62906330Y-74168000D01*
X66610601Y-73415729D02*
X65858330Y-74168000D01*
X54936330Y-73660000D02*
X52868400Y-73660000D01*
X66610601Y-70731799D02*
X66610601Y-73415729D01*
X73130000Y-64212400D02*
X66610601Y-70731799D01*
X57088931Y-71507399D02*
X54936330Y-73660000D01*
X73130000Y-63310000D02*
X73130000Y-64212400D01*
X68580000Y-76708000D02*
X69088000Y-76200000D01*
X77216000Y-69046000D02*
X77216000Y-70612000D01*
X75480000Y-67310000D02*
X77216000Y-69046000D01*
X74930000Y-67310000D02*
X75480000Y-67310000D01*
X69487999Y-76599999D02*
X70757999Y-76599999D01*
X69088000Y-76200000D02*
X69487999Y-76599999D01*
X70757999Y-76599999D02*
X71120000Y-76962000D01*
X71120000Y-76962000D02*
X73406000Y-76962000D01*
X73406000Y-76962000D02*
X73406000Y-76962000D01*
X57150000Y-91694000D02*
X57150000Y-91694000D01*
X57150000Y-90678000D02*
X57150000Y-91694000D01*
X58032601Y-89795399D02*
X57150000Y-90678000D01*
X58032601Y-82924601D02*
X58032601Y-89795399D01*
X56642000Y-81534000D02*
X58032601Y-82924601D01*
X56388000Y-70612000D02*
X60452000Y-66548000D01*
X62230000Y-66548000D02*
X64262000Y-64516000D01*
X60452000Y-66548000D02*
X62230000Y-66548000D01*
X55422810Y-84074000D02*
X55683685Y-84074000D01*
X55422810Y-80898256D02*
X55422810Y-84074000D01*
X55683685Y-84074000D02*
X56642000Y-85032315D01*
X59613066Y-76708000D02*
X55422810Y-80898256D01*
X59867066Y-76962000D02*
X64008000Y-76962000D01*
X59613066Y-76708000D02*
X59867066Y-76962000D01*
X56642000Y-88646000D02*
X57150000Y-89154000D01*
X56642000Y-85032315D02*
X56642000Y-88646000D01*
X69088000Y-79756000D02*
X69088000Y-89408000D01*
X69088000Y-89408000D02*
X71628000Y-91948000D01*
X71628000Y-91948000D02*
X72644000Y-91948000D01*
X72644000Y-91948000D02*
X72644000Y-91948000D01*
X71882000Y-84074000D02*
X71882000Y-84074000D01*
X69088000Y-78486000D02*
X71374000Y-80772000D01*
X71374000Y-83566000D02*
X71882000Y-84074000D01*
X71374000Y-80772000D02*
X71374000Y-83566000D01*
X55092601Y-84002881D02*
X54767482Y-84328000D01*
X59581999Y-76308001D02*
X55092601Y-80797399D01*
X55092601Y-80797399D02*
X55092601Y-84002881D01*
X64878001Y-76308001D02*
X59581999Y-76308001D01*
X65278000Y-76708000D02*
X64878001Y-76308001D01*
X54767482Y-84328000D02*
X53340000Y-84328000D01*
X53340000Y-84328000D02*
X51816000Y-84328000D01*
X51816000Y-84328000D02*
X51562000Y-84582000D01*
X51562000Y-84582000D02*
X51562000Y-84582000D01*
X65278000Y-94488000D02*
X68326000Y-91440000D01*
X68326000Y-91440000D02*
X68326000Y-81026000D01*
X68326000Y-81026000D02*
X68326000Y-81026000D01*
X67697399Y-78438271D02*
X67697399Y-90036601D01*
X68786271Y-77349399D02*
X67697399Y-78438271D01*
X69389729Y-77349399D02*
X68786271Y-77349399D01*
X72136000Y-80095670D02*
X69389729Y-77349399D01*
X72136000Y-82296000D02*
X72136000Y-80095670D01*
X67697399Y-90036601D02*
X66548000Y-91186000D01*
X66548000Y-91186000D02*
X66548000Y-91186000D01*
X62484000Y-74676000D02*
X68834000Y-74676000D01*
X59944000Y-72136000D02*
X62484000Y-74676000D01*
X57404000Y-86106000D02*
X57404000Y-86106000D01*
X64770000Y-88646000D02*
X64770000Y-87376000D01*
X64770000Y-87376000D02*
X66040000Y-86106000D01*
X66040000Y-86106000D02*
X66040000Y-86106000D01*
X56521399Y-84461399D02*
X55880000Y-83820000D01*
X56488132Y-80264000D02*
X57912000Y-80264000D01*
X55880000Y-83820000D02*
X55880000Y-80872132D01*
X56521399Y-84480648D02*
X56521399Y-84461399D01*
X57912000Y-80264000D02*
X58420000Y-80264000D01*
X57404000Y-85363249D02*
X56521399Y-84480648D01*
X55880000Y-80872132D02*
X56488132Y-80264000D01*
X57404000Y-86106000D02*
X57404000Y-85363249D01*
X67056000Y-89068330D02*
X67056000Y-85147685D01*
X64309729Y-91814601D02*
X67056000Y-89068330D01*
X59690000Y-91694000D02*
X63585670Y-91694000D01*
X67056000Y-85147685D02*
X67056000Y-84582000D01*
X63585670Y-91694000D02*
X63706271Y-91814601D01*
X59073999Y-91077999D02*
X59690000Y-91694000D01*
X59073999Y-79139999D02*
X59073999Y-91077999D01*
X63706271Y-91814601D02*
X64309729Y-91814601D01*
X58674000Y-78740000D02*
X59073999Y-79139999D01*
M02*
