G04 #@! TF.GenerationSoftware,KiCad,Pcbnew,(5.1.5)-3*
G04 #@! TF.CreationDate,2020-04-08T22:33:11-07:00*
G04 #@! TF.ProjectId,microbug,6d696372-6f62-4756-972e-6b696361645f,rev?*
G04 #@! TF.SameCoordinates,Original*
G04 #@! TF.FileFunction,Profile,NP*
%FSLAX46Y46*%
G04 Gerber Fmt 4.6, Leading zero omitted, Abs format (unit mm)*
G04 Created by KiCad (PCBNEW (5.1.5)-3) date 2020-04-08 22:33:11*
%MOMM*%
%LPD*%
G04 APERTURE LIST*
%ADD10C,0.200000*%
G04 APERTURE END LIST*
D10*
X48659231Y-85735140D02*
X48614508Y-85738976D01*
X48704025Y-85731753D02*
X48659231Y-85735140D01*
X79384142Y-90220429D02*
X79429227Y-90219635D01*
X79788203Y-85743162D02*
X79743560Y-85738902D01*
X79832761Y-85747898D02*
X79788203Y-85743162D01*
X79044655Y-90220654D02*
X78946532Y-90220654D01*
X78750280Y-90220654D02*
X78652156Y-90220654D01*
X50000287Y-90220654D02*
X49902164Y-90220654D01*
X50098413Y-90220654D02*
X50000287Y-90220654D01*
X50196536Y-85720654D02*
X50294662Y-85720654D01*
X50098413Y-85720654D02*
X50196536Y-85720654D01*
X80054030Y-85778193D02*
X80054030Y-72995660D01*
X64179034Y-57120659D02*
X63977052Y-57121915D01*
X63977052Y-57121915D02*
X63778865Y-57125601D01*
X63778865Y-57125601D02*
X63581278Y-57131700D01*
X63581278Y-57131700D02*
X63377962Y-57140515D01*
X63377962Y-57140515D02*
X63175313Y-57151872D01*
X63175313Y-57151872D02*
X62973351Y-57165755D01*
X62973351Y-57165755D02*
X62784645Y-57181049D01*
X62784645Y-57181049D02*
X62596571Y-57198539D01*
X62596571Y-57198539D02*
X62415371Y-57217517D01*
X62415371Y-57217517D02*
X62234785Y-57238522D01*
X62234785Y-57238522D02*
X62036239Y-57264038D01*
X62036239Y-57264038D02*
X61838467Y-57291992D01*
X61838467Y-57291992D02*
X61659916Y-57319418D01*
X61659916Y-57319418D02*
X61482024Y-57348819D01*
X61482024Y-57348819D02*
X61304804Y-57380189D01*
X61304804Y-57380189D02*
X61128267Y-57413513D01*
X61128267Y-57413513D02*
X60958476Y-57447532D01*
X60958476Y-57447532D02*
X60789343Y-57483348D01*
X60789343Y-57483348D02*
X60596868Y-57526475D01*
X60596868Y-57526475D02*
X60429178Y-57566113D01*
X60429178Y-57566113D02*
X60268131Y-57606013D01*
X60268131Y-57606013D02*
X60107735Y-57647547D01*
X60107735Y-57647547D02*
X59948001Y-57690706D01*
X59948001Y-57690706D02*
X59788936Y-57735481D01*
X59788936Y-57735481D02*
X59607147Y-57788870D01*
X59607147Y-57788870D02*
X59449555Y-57837084D01*
X59449555Y-57837084D02*
X59292660Y-57886883D01*
X59292660Y-57886883D02*
X59130706Y-57940193D01*
X59130706Y-57940193D02*
X58958039Y-57999180D01*
X58958039Y-57999180D02*
X58809125Y-58051859D01*
X58809125Y-58051859D02*
X58660894Y-58105970D01*
X58660894Y-58105970D02*
X58507693Y-58163675D01*
X58507693Y-58163675D02*
X58360885Y-58220689D01*
X58360885Y-58220689D02*
X58214784Y-58279110D01*
X58214784Y-58279110D02*
X58069402Y-58338933D01*
X58069402Y-58338933D02*
X57924747Y-58400150D01*
X57924747Y-58400150D02*
X57780826Y-58462751D01*
X57780826Y-58462751D02*
X57626666Y-58531707D01*
X57626666Y-58531707D02*
X57478837Y-58599701D01*
X57478837Y-58599701D02*
X57342691Y-58663966D01*
X57342691Y-58663966D02*
X57196451Y-58734774D01*
X57196451Y-58734774D02*
X57061792Y-58801628D01*
X57061792Y-58801628D02*
X56922515Y-58872464D01*
X56922515Y-58872464D02*
X56789347Y-58941827D01*
X56789347Y-58941827D02*
X56646358Y-59018106D01*
X56646358Y-59018106D02*
X56514738Y-59089992D01*
X56514738Y-59089992D02*
X56357796Y-59177844D01*
X56357796Y-59177844D02*
X56217490Y-59258381D01*
X56217490Y-59258381D02*
X56083234Y-59337242D01*
X56083234Y-59337242D02*
X55949825Y-59417379D01*
X55949825Y-59417379D02*
X55812185Y-59501934D01*
X55812185Y-59501934D02*
X55685572Y-59581435D01*
X55685572Y-59581435D02*
X55559764Y-59662092D01*
X55559764Y-59662092D02*
X55434767Y-59743897D01*
X55434767Y-59743897D02*
X55310594Y-59826843D01*
X55310594Y-59826843D02*
X55187243Y-59910918D01*
X55187243Y-59910918D02*
X55064729Y-59996119D01*
X55064729Y-59996119D02*
X54928512Y-60092871D01*
X54928512Y-60092871D02*
X54793363Y-60191015D01*
X54793363Y-60191015D02*
X54678380Y-60276240D01*
X54678380Y-60276240D02*
X54559450Y-60366083D01*
X54559450Y-60366083D02*
X54417892Y-60475332D01*
X54417892Y-60475332D02*
X54305558Y-60563850D01*
X54305558Y-60563850D02*
X54184788Y-60660855D01*
X54184788Y-60660855D02*
X54069579Y-60755216D01*
X54069579Y-60755216D02*
X53946167Y-60858307D01*
X53946167Y-60858307D02*
X53819309Y-60966507D01*
X53819309Y-60966507D02*
X53707020Y-61064216D01*
X53707020Y-61064216D02*
X53600095Y-61158988D01*
X53600095Y-61158988D02*
X53463261Y-61282798D01*
X53463261Y-61282798D02*
X53345265Y-61391904D01*
X53345265Y-61391904D02*
X53232691Y-61498081D01*
X53232691Y-61498081D02*
X53125427Y-61601191D01*
X53125427Y-61601191D02*
X53023362Y-61701112D01*
X53023362Y-61701112D02*
X52922196Y-61801939D01*
X52922196Y-61801939D02*
X52813621Y-61912185D01*
X52813621Y-61912185D02*
X52702002Y-62027781D01*
X52702002Y-62027781D02*
X52603762Y-62131475D01*
X52603762Y-62131475D02*
X52506448Y-62236051D01*
X52506448Y-62236051D02*
X52410070Y-62341499D01*
X52410070Y-62341499D02*
X52310673Y-62452261D01*
X52310673Y-62452261D02*
X52212301Y-62563957D01*
X52212301Y-62563957D02*
X52114966Y-62676581D01*
X52114966Y-62676581D02*
X52014842Y-62794680D01*
X52014842Y-62794680D02*
X51915852Y-62913767D01*
X51915852Y-62913767D02*
X51814264Y-63038465D01*
X51814264Y-63038465D02*
X51725007Y-63150183D01*
X51725007Y-63150183D02*
X51633081Y-63267429D01*
X51633081Y-63267429D02*
X51535014Y-63395040D01*
X51535014Y-63395040D02*
X51445344Y-63514107D01*
X51445344Y-63514107D02*
X51360289Y-63629224D01*
X51360289Y-63629224D02*
X51258870Y-63769379D01*
X51258870Y-63769379D02*
X51162367Y-63905785D01*
X51162367Y-63905785D02*
X51077391Y-64028465D01*
X51077391Y-64028465D02*
X50990211Y-64156941D01*
X50990211Y-64156941D02*
X50907540Y-64281313D01*
X50907540Y-64281313D02*
X50809841Y-64431641D01*
X50809841Y-64431641D02*
X50729690Y-64557804D01*
X50729690Y-64557804D02*
X50650700Y-64684770D01*
X50650700Y-64684770D02*
X50569784Y-64817654D01*
X50569784Y-64817654D02*
X50493179Y-64946233D01*
X50493179Y-64946233D02*
X50417754Y-65075589D01*
X50417754Y-65075589D02*
X50343515Y-65205715D01*
X50343515Y-65205715D02*
X50270473Y-65336608D01*
X50270473Y-65336608D02*
X50192939Y-65478822D01*
X50192939Y-65478822D02*
X50122408Y-65611279D01*
X50122408Y-65611279D02*
X50050347Y-65749822D01*
X50050347Y-65749822D02*
X49976918Y-65894534D01*
X49976918Y-65894534D02*
X49910214Y-66029279D01*
X49910214Y-66029279D02*
X49844750Y-66164742D01*
X49844750Y-66164742D02*
X49775452Y-66311841D01*
X49775452Y-66311841D02*
X49707623Y-66459762D01*
X49707623Y-66459762D02*
X49643696Y-66602967D01*
X49643696Y-66602967D02*
X49576394Y-66758021D01*
X49576394Y-66758021D02*
X49510699Y-66913925D01*
X49510699Y-66913925D02*
X49442106Y-67081898D01*
X49442106Y-67081898D02*
X49381970Y-67233886D01*
X49381970Y-67233886D02*
X49325503Y-67380969D01*
X49325503Y-67380969D02*
X49270458Y-67528748D01*
X49270458Y-67528748D02*
X49214806Y-67682941D01*
X49214806Y-67682941D02*
X49162682Y-67832118D01*
X49162682Y-67832118D02*
X49110086Y-67987744D01*
X49110086Y-67987744D02*
X49059059Y-68144086D01*
X49059059Y-68144086D02*
X49006011Y-68312799D01*
X49006011Y-68312799D02*
X48956531Y-68476453D01*
X48956531Y-68476453D02*
X48903757Y-68658507D01*
X48903757Y-68658507D02*
X48857912Y-68823707D01*
X48857912Y-68823707D02*
X48815354Y-68983688D01*
X48815354Y-68983688D02*
X48774423Y-69144324D01*
X48774423Y-69144324D02*
X48733709Y-69311597D01*
X48733709Y-69311597D02*
X48692051Y-69491576D01*
X48692051Y-69491576D02*
X48655018Y-69660257D01*
X48655018Y-69660257D02*
X48619778Y-69829606D01*
X48619778Y-69829606D02*
X48585181Y-70005689D01*
X48585181Y-70005689D02*
X48552531Y-70182464D01*
X48552531Y-70182464D02*
X48520814Y-70366047D01*
X48520814Y-70366047D02*
X48492161Y-70544188D01*
X48492161Y-70544188D02*
X48465488Y-70722987D01*
X48465488Y-70722987D02*
X48440810Y-70902428D01*
X48440810Y-70902428D02*
X48418136Y-71082500D01*
X48418136Y-71082500D02*
X48396804Y-71269436D01*
X48396804Y-71269436D02*
X48377641Y-71457023D01*
X48377641Y-71457023D02*
X48359086Y-71664103D01*
X48359086Y-71664103D02*
X48344525Y-71853013D01*
X48344525Y-71853013D02*
X48331062Y-72061522D01*
X48331062Y-72061522D02*
X48320576Y-72264401D01*
X48320576Y-72264401D02*
X48312849Y-72461573D01*
X48312849Y-72461573D02*
X48307526Y-72659356D01*
X48307526Y-72659356D02*
X48304621Y-72857732D01*
X48304621Y-72857732D02*
X48304038Y-72995660D01*
X50196536Y-90220654D02*
X50098413Y-90220654D01*
X50294662Y-90220654D02*
X50196536Y-90220654D01*
X75519030Y-89561643D02*
X75744995Y-89706863D01*
X75313661Y-89401864D02*
X75519030Y-89561643D01*
X53227586Y-89228649D02*
X53386969Y-89043137D01*
X53044407Y-89401864D02*
X53227586Y-89228649D01*
X75519030Y-86379665D02*
X75313661Y-86539444D01*
X75744995Y-86234445D02*
X75519030Y-86379665D01*
X48480841Y-85753131D02*
X48436476Y-85758741D01*
X48525307Y-85747972D02*
X48480841Y-85753131D01*
X51827607Y-90043838D02*
X52105759Y-89949091D01*
X51535262Y-90119499D02*
X51827607Y-90043838D01*
X51230319Y-90174942D02*
X51535262Y-90119499D01*
X50914377Y-90209039D02*
X51230319Y-90174942D01*
X80054030Y-85778193D02*
X80010000Y-85771234D01*
X79240904Y-85720654D02*
X79339030Y-85720654D01*
X77769030Y-85720654D02*
X77867156Y-85720654D01*
X77443691Y-90209039D02*
X77769030Y-90220654D01*
X50392788Y-85720654D02*
X50490912Y-85720654D01*
X50294662Y-85720654D02*
X50392788Y-85720654D01*
X75130482Y-89228649D02*
X75313661Y-89401864D01*
X74971099Y-89043137D02*
X75130482Y-89228649D01*
X77965280Y-85720654D02*
X78063406Y-85720654D01*
X77867156Y-85720654D02*
X77965280Y-85720654D01*
X48748885Y-85728816D02*
X48704025Y-85731753D01*
X48793803Y-85726435D02*
X48748885Y-85728816D01*
X52368114Y-89836389D02*
X52613073Y-89706863D01*
X52105759Y-89949091D02*
X52368114Y-89836389D01*
X48838772Y-85724318D02*
X48793803Y-85726435D01*
X48883788Y-85722731D02*
X48838772Y-85724318D01*
X48569865Y-85743236D02*
X48525307Y-85747972D01*
X48614508Y-85738976D02*
X48569865Y-85743236D01*
X74837106Y-88846456D02*
X74971099Y-89043137D01*
X74730106Y-88639735D02*
X74837106Y-88846456D01*
X75989954Y-86104919D02*
X75744995Y-86234445D01*
X76252309Y-85992217D02*
X75989954Y-86104919D01*
X48392216Y-85764799D02*
X48348068Y-85771308D01*
X48436476Y-85758741D02*
X48392216Y-85764799D01*
X79474280Y-90218577D02*
X79519296Y-90216990D01*
X77965280Y-90220654D02*
X77867156Y-90220654D01*
X78063406Y-90220654D02*
X77965280Y-90220654D01*
X74837106Y-87094852D02*
X74730106Y-87301573D01*
X74971099Y-86898171D02*
X74837106Y-87094852D01*
X79142781Y-85720654D02*
X79240904Y-85720654D01*
X79044655Y-85720654D02*
X79142781Y-85720654D01*
X79609183Y-90212492D02*
X79654043Y-90209555D01*
X78946532Y-85720654D02*
X79044655Y-85720654D01*
X78848406Y-85720654D02*
X78946532Y-85720654D01*
X52368114Y-86104919D02*
X52105759Y-85992217D01*
X52613073Y-86234445D02*
X52368114Y-86104919D01*
X77127749Y-90174942D02*
X77443691Y-90209039D01*
X76822806Y-90119499D02*
X77127749Y-90174942D01*
X79339030Y-90220654D02*
X79384142Y-90220429D01*
X78750280Y-85720654D02*
X78848406Y-85720654D01*
X78652156Y-85720654D02*
X78750280Y-85720654D01*
X78554030Y-85720654D02*
X78652156Y-85720654D01*
X78455904Y-85720654D02*
X78554030Y-85720654D01*
X78161529Y-85720654D02*
X78259655Y-85720654D01*
X78063406Y-85720654D02*
X78161529Y-85720654D01*
X78357781Y-85720654D02*
X78455904Y-85720654D01*
X78259655Y-85720654D02*
X78357781Y-85720654D01*
X78161529Y-90220654D02*
X78063406Y-90220654D01*
X78259655Y-90220654D02*
X78161529Y-90220654D01*
X78946532Y-90220654D02*
X78848406Y-90220654D01*
X48304038Y-90163115D02*
X48304038Y-92220652D01*
X48973926Y-90220503D02*
X49019038Y-90220728D01*
X48928841Y-90219710D02*
X48973926Y-90220503D01*
X48883788Y-90218651D02*
X48928841Y-90219710D01*
X48838772Y-90217064D02*
X48883788Y-90218651D01*
X48793803Y-90214947D02*
X48838772Y-90217064D01*
X48748885Y-90212566D02*
X48793803Y-90214947D01*
X48704025Y-90209629D02*
X48748885Y-90212566D01*
X48659231Y-90206242D02*
X48704025Y-90209629D01*
X48614508Y-90202406D02*
X48659231Y-90206242D01*
X48569865Y-90198120D02*
X48614508Y-90202406D01*
X48525307Y-90193410D02*
X48569865Y-90198120D01*
X48480841Y-90188251D02*
X48525307Y-90193410D01*
X48436476Y-90182641D02*
X48480841Y-90188251D01*
X48392216Y-90176582D02*
X48436476Y-90182641D01*
X48348068Y-90170074D02*
X48392216Y-90176582D01*
X48304038Y-90163115D02*
X48348068Y-90170074D01*
X75989954Y-89836389D02*
X76252309Y-89949091D01*
X75744995Y-89706863D02*
X75989954Y-89836389D01*
X48928841Y-85721672D02*
X48883788Y-85722731D01*
X48973926Y-85720879D02*
X48928841Y-85721672D01*
X50000287Y-85720654D02*
X50098413Y-85720654D01*
X49902164Y-85720654D02*
X50000287Y-85720654D01*
X76530461Y-85897469D02*
X76252309Y-85992217D01*
X76822806Y-85821809D02*
X76530461Y-85897469D01*
X53771019Y-87970654D02*
X53754589Y-87740604D01*
X53754589Y-88200704D02*
X53771019Y-87970654D01*
X74651697Y-88424107D02*
X74730106Y-88639735D01*
X74603479Y-88200704D02*
X74651697Y-88424107D01*
X52839038Y-89561643D02*
X53044407Y-89401864D01*
X52613073Y-89706863D02*
X52839038Y-89561643D01*
X77769030Y-85720654D02*
X77443691Y-85732269D01*
X77867156Y-90220654D02*
X77769030Y-90220654D01*
X49019038Y-85720654D02*
X49117164Y-85720654D01*
X48348068Y-85771308D02*
X48304038Y-85778267D01*
X52839038Y-86379665D02*
X52613073Y-86234445D01*
X53044407Y-86539444D02*
X52839038Y-86379665D01*
X49607788Y-85720654D02*
X49705912Y-85720654D01*
X49509662Y-85720654D02*
X49607788Y-85720654D01*
X49804038Y-85720654D02*
X49902164Y-85720654D01*
X49705912Y-85720654D02*
X49804038Y-85720654D01*
X49411539Y-85720654D02*
X49509662Y-85720654D01*
X49313413Y-85720654D02*
X49411539Y-85720654D01*
X53520962Y-87094852D02*
X53386969Y-86898171D01*
X53627962Y-87301573D02*
X53520962Y-87094852D01*
X79429227Y-85721598D02*
X79384142Y-85720805D01*
X79474280Y-85722657D02*
X79429227Y-85721598D01*
X79832761Y-90193336D02*
X79877227Y-90188176D01*
X50589038Y-90220654D02*
X50914377Y-90209039D01*
X50490912Y-85720654D02*
X50589038Y-85720654D01*
X79877227Y-90188176D02*
X79921592Y-90182567D01*
X79877227Y-85753057D02*
X79832761Y-85747898D01*
X79921592Y-85758666D02*
X79877227Y-85753057D01*
X74651697Y-87517201D02*
X74603479Y-87740604D01*
X74730106Y-87301573D02*
X74651697Y-87517201D01*
X77127749Y-85766366D02*
X76822806Y-85821809D01*
X77443691Y-85732269D02*
X77127749Y-85766366D01*
X77054031Y-95220653D02*
X77248483Y-95214448D01*
X77248483Y-95214448D02*
X77432597Y-95196991D01*
X77432597Y-95196991D02*
X77609281Y-95169366D01*
X77609281Y-95169366D02*
X77775638Y-95133294D01*
X77775638Y-95133294D02*
X77934013Y-95089517D01*
X77934013Y-95089517D02*
X78084452Y-95039005D01*
X78084452Y-95039005D02*
X78229120Y-94981772D01*
X78229120Y-94981772D02*
X78367952Y-94918364D01*
X78367952Y-94918364D02*
X78500909Y-94849312D01*
X78500909Y-94849312D02*
X78627955Y-94775106D01*
X78627955Y-94775106D02*
X78758370Y-94689831D01*
X78758370Y-94689831D02*
X78874585Y-94605286D01*
X78874585Y-94605286D02*
X78987366Y-94514682D01*
X78987366Y-94514682D02*
X79093531Y-94420761D01*
X79093531Y-94420761D02*
X79195136Y-94321995D01*
X79195136Y-94321995D02*
X79296492Y-94213520D01*
X79296492Y-94213520D02*
X79391029Y-94101883D01*
X79391029Y-94101883D02*
X79482775Y-93982028D01*
X79482775Y-93982028D02*
X79564816Y-93863205D01*
X79564816Y-93863205D02*
X79641477Y-93739845D01*
X79641477Y-93739845D02*
X79713035Y-93611096D01*
X79713035Y-93611096D02*
X79779074Y-93477013D01*
X79779074Y-93477013D02*
X79839598Y-93336617D01*
X79839598Y-93336617D02*
X79893996Y-93189910D01*
X79893996Y-93189910D02*
X79941792Y-93036372D01*
X79941792Y-93036372D02*
X79982480Y-92874877D01*
X79982480Y-92874877D02*
X80014874Y-92706567D01*
X80014874Y-92706567D02*
X80039133Y-92521469D01*
X80039133Y-92521469D02*
X80051962Y-92333008D01*
X80051962Y-92333008D02*
X80054030Y-92220652D01*
X53227586Y-86712658D02*
X53044407Y-86539444D01*
X53386969Y-86898171D02*
X53227586Y-86712658D01*
X49215287Y-85720654D02*
X49313413Y-85720654D01*
X49117164Y-85720654D02*
X49215287Y-85720654D01*
X80054030Y-72995660D02*
X80052770Y-72793677D01*
X80052770Y-72793677D02*
X80049082Y-72595490D01*
X80049082Y-72595490D02*
X80042982Y-72397903D01*
X80042982Y-72397903D02*
X80034481Y-72200930D01*
X80034481Y-72200930D02*
X80023981Y-72010907D01*
X80023981Y-72010907D02*
X80011261Y-71821486D01*
X80011261Y-71821486D02*
X79995797Y-71626396D01*
X79995797Y-71626396D02*
X79977990Y-71431973D01*
X79977990Y-71431973D02*
X79959220Y-71250712D01*
X79959220Y-71250712D02*
X79936157Y-71051409D01*
X79936157Y-71051409D02*
X79912308Y-70865249D01*
X79912308Y-70865249D02*
X79882687Y-70655091D01*
X79882687Y-70655091D02*
X79853297Y-70464250D01*
X79853297Y-70464250D02*
X79823760Y-70286405D01*
X79823760Y-70286405D02*
X79792255Y-70109231D01*
X79792255Y-70109231D02*
X79759984Y-69938816D01*
X79759984Y-69938816D02*
X79722145Y-69750898D01*
X79722145Y-69750898D02*
X79683423Y-69569810D01*
X79683423Y-69569810D02*
X79645435Y-69401490D01*
X79645435Y-69401490D02*
X79602758Y-69221901D01*
X79602758Y-69221901D02*
X79562617Y-69060950D01*
X79562617Y-69060950D02*
X79520839Y-68900651D01*
X79520839Y-68900651D02*
X79477442Y-68741017D01*
X79477442Y-68741017D02*
X79432429Y-68582052D01*
X79432429Y-68582052D02*
X79385811Y-68423769D01*
X79385811Y-68423769D02*
X79337598Y-68266177D01*
X79337598Y-68266177D02*
X79287797Y-68109282D01*
X79287797Y-68109282D02*
X79232551Y-67941557D01*
X79232551Y-67941557D02*
X79179491Y-67786144D01*
X79179491Y-67786144D02*
X79124874Y-67631462D01*
X79124874Y-67631462D02*
X79070816Y-67483203D01*
X79070816Y-67483203D02*
X79015333Y-67335637D01*
X79015333Y-67335637D02*
X78958429Y-67188773D01*
X78958429Y-67188773D02*
X78900115Y-67042619D01*
X78900115Y-67042619D02*
X78840400Y-66897181D01*
X78840400Y-66897181D02*
X78779290Y-66752469D01*
X78779290Y-66752469D02*
X78714362Y-66602967D01*
X78714362Y-66602967D02*
X78645464Y-66448776D01*
X78645464Y-66448776D02*
X78580065Y-66306378D01*
X78580065Y-66306378D02*
X78515899Y-66170175D01*
X78515899Y-66170175D02*
X78450486Y-66034684D01*
X78450486Y-66034684D02*
X78383829Y-65899910D01*
X78383829Y-65899910D02*
X78299462Y-65733795D01*
X78299462Y-65733795D02*
X78224446Y-65590036D01*
X78224446Y-65590036D02*
X78153720Y-65457698D01*
X78153720Y-65457698D02*
X78073070Y-65310369D01*
X78073070Y-65310369D02*
X77996834Y-65174416D01*
X77996834Y-65174416D02*
X77919303Y-65039290D01*
X77919303Y-65039290D02*
X77840491Y-64905002D01*
X77840491Y-64905002D02*
X77763511Y-64776676D01*
X77763511Y-64776676D02*
X77682207Y-64644053D01*
X77682207Y-64644053D02*
X77599645Y-64512293D01*
X77599645Y-64512293D02*
X77506083Y-64366354D01*
X77506083Y-64366354D02*
X77420888Y-64236444D01*
X77420888Y-64236444D02*
X77337809Y-64112367D01*
X77337809Y-64112367D02*
X77253596Y-63989117D01*
X77253596Y-63989117D02*
X77168258Y-63866703D01*
X77168258Y-63866703D02*
X77053906Y-63706409D01*
X77053906Y-63706409D02*
X76969529Y-63590763D01*
X76969529Y-63590763D02*
X76884139Y-63475912D01*
X76884139Y-63475912D02*
X76794117Y-63357123D01*
X76794117Y-63357123D02*
X76703011Y-63239210D01*
X76703011Y-63239210D02*
X76614536Y-63126841D01*
X76614536Y-63126841D02*
X76510068Y-62996782D01*
X76510068Y-62996782D02*
X76404269Y-62867849D01*
X76404269Y-62867849D02*
X76312530Y-62758237D01*
X76312530Y-62758237D02*
X76215943Y-62644953D01*
X76215943Y-62644953D02*
X76122240Y-62537067D01*
X76122240Y-62537067D02*
X76027587Y-62430034D01*
X76027587Y-62430034D02*
X75931992Y-62323865D01*
X75931992Y-62323865D02*
X75815224Y-62196732D01*
X75815224Y-62196732D02*
X75713474Y-62088162D01*
X75713474Y-62088162D02*
X75614851Y-61984836D01*
X75614851Y-61984836D02*
X75511146Y-61878151D01*
X75511146Y-61878151D02*
X75410659Y-61776648D01*
X75410659Y-61776648D02*
X75309265Y-61676045D01*
X75309265Y-61676045D02*
X75206977Y-61576354D01*
X75206977Y-61576354D02*
X75095161Y-61469387D01*
X75095161Y-61469387D02*
X74969218Y-61351355D01*
X74969218Y-61351355D02*
X74864025Y-61254705D01*
X74864025Y-61254705D02*
X74757960Y-61158988D01*
X74757960Y-61158988D02*
X74651036Y-61064216D01*
X74651036Y-61064216D02*
X74538748Y-60966507D01*
X74538748Y-60966507D02*
X74430082Y-60873684D01*
X74430082Y-60873684D02*
X74320577Y-60781824D01*
X74320577Y-60781824D02*
X74201003Y-60683406D01*
X74201003Y-60683406D02*
X74089762Y-60593574D01*
X74089762Y-60593574D02*
X73963636Y-60493691D01*
X73963636Y-60493691D02*
X73841207Y-60398695D01*
X73841207Y-60398695D02*
X73727354Y-60312046D01*
X73727354Y-60312046D02*
X73612700Y-60226402D01*
X73612700Y-60226402D02*
X73497252Y-60141770D01*
X73497252Y-60141770D02*
X73371297Y-60051236D01*
X73371297Y-60051236D02*
X73244423Y-59961904D01*
X73244423Y-59961904D02*
X73111710Y-59870420D01*
X73111710Y-59870420D02*
X72982997Y-59783569D01*
X72982997Y-59783569D02*
X72858393Y-59701217D01*
X72858393Y-59701217D02*
X72732975Y-59620008D01*
X72732975Y-59620008D02*
X72606746Y-59539949D01*
X72606746Y-59539949D02*
X72474618Y-59457920D01*
X72474618Y-59457920D02*
X72331370Y-59370991D01*
X72331370Y-59370991D02*
X72202636Y-59294620D01*
X72202636Y-59294620D02*
X72073126Y-59219431D01*
X72073126Y-59219431D02*
X71942843Y-59145432D01*
X71942843Y-59145432D02*
X71811800Y-59072630D01*
X71811800Y-59072630D02*
X71664134Y-58992523D01*
X71664134Y-58992523D02*
X71531498Y-58922282D01*
X71531498Y-58922282D02*
X71392772Y-58850527D01*
X71392772Y-58850527D02*
X71258634Y-58782783D01*
X71258634Y-58782783D02*
X71118363Y-58713642D01*
X71118363Y-58713642D02*
X70982756Y-58648428D01*
X70982756Y-58648428D02*
X70846440Y-58584464D01*
X70846440Y-58584464D02*
X70676436Y-58506897D01*
X70676436Y-58506897D02*
X70533029Y-58443343D01*
X70533029Y-58443343D02*
X70388881Y-58381166D01*
X70388881Y-58381166D02*
X70227237Y-58313454D01*
X70227237Y-58313454D02*
X70081549Y-58254221D01*
X70081549Y-58254221D02*
X69929502Y-58194198D01*
X69929502Y-58194198D02*
X69782366Y-58137839D01*
X69782366Y-58137839D02*
X69628836Y-58080818D01*
X69628836Y-58080818D02*
X69434442Y-58011209D01*
X69434442Y-58011209D02*
X69285006Y-57959641D01*
X69285006Y-57959641D02*
X69134900Y-57909522D01*
X69134900Y-57909522D02*
X68978322Y-57859022D01*
X68978322Y-57859022D02*
X68809360Y-57806542D01*
X68809360Y-57806542D02*
X68639597Y-57755896D01*
X68639597Y-57755896D02*
X68474942Y-57708753D01*
X68474942Y-57708753D02*
X68303640Y-57661753D01*
X68303640Y-57661753D02*
X68137521Y-57618150D01*
X68137521Y-57618150D02*
X67976666Y-57577765D01*
X67976666Y-57577765D02*
X67815166Y-57539022D01*
X67815166Y-57539022D02*
X67634978Y-57497908D01*
X67634978Y-57497908D02*
X67460064Y-57460116D01*
X67460064Y-57460116D02*
X67290507Y-57425455D01*
X67290507Y-57425455D02*
X67114207Y-57391459D01*
X67114207Y-57391459D02*
X66937221Y-57359415D01*
X66937221Y-57359415D02*
X66765697Y-57330338D01*
X66765697Y-57330338D02*
X66587396Y-57302162D01*
X66587396Y-57302162D02*
X66408442Y-57275969D01*
X66408442Y-57275969D02*
X66222643Y-57250976D01*
X66222643Y-57250976D02*
X66042397Y-57228856D01*
X66042397Y-57228856D02*
X65842790Y-57206795D01*
X65842790Y-57206795D02*
X65648719Y-57187782D01*
X65648719Y-57187782D02*
X65453972Y-57171108D01*
X65453972Y-57171108D02*
X65258562Y-57156782D01*
X65258562Y-57156782D02*
X65037162Y-57143453D01*
X65037162Y-57143453D02*
X64827673Y-57133664D01*
X64827673Y-57133664D02*
X64630244Y-57126944D01*
X64630244Y-57126944D02*
X64432211Y-57122635D01*
X64432211Y-57122635D02*
X64233593Y-57120749D01*
X64233593Y-57120749D02*
X64179034Y-57120659D01*
X79384142Y-85720805D02*
X79339030Y-85720580D01*
X79965852Y-85764725D02*
X79921592Y-85758666D01*
X80010000Y-85771234D02*
X79965852Y-85764725D01*
X53706371Y-87517201D02*
X53627962Y-87301573D01*
X53754589Y-87740604D02*
X53706371Y-87517201D01*
X79609183Y-85728742D02*
X79564265Y-85726361D01*
X79654043Y-85731679D02*
X79609183Y-85728742D01*
X53520962Y-88846456D02*
X53627962Y-88639735D01*
X53386969Y-89043137D02*
X53520962Y-88846456D01*
X51827607Y-85897469D02*
X51535262Y-85821809D01*
X52105759Y-85992217D02*
X51827607Y-85897469D01*
X49019038Y-85720654D02*
X48973926Y-85720879D01*
X48304038Y-72995660D02*
X48304038Y-85778193D01*
X79519296Y-85724244D02*
X79474280Y-85722657D01*
X79564265Y-85726361D02*
X79519296Y-85724244D01*
X74587049Y-87970654D02*
X74603479Y-88200704D01*
X74603479Y-87740604D02*
X74587049Y-87970654D01*
X51230319Y-85766366D02*
X50914377Y-85732269D01*
X51535262Y-85821809D02*
X51230319Y-85766366D01*
X75130482Y-86712658D02*
X74971099Y-86898171D01*
X75313661Y-86539444D02*
X75130482Y-86712658D01*
X50589038Y-90220654D02*
X50490912Y-90220654D01*
X50914377Y-85732269D02*
X50589038Y-85720654D01*
X50392788Y-90220654D02*
X50294662Y-90220654D01*
X50490912Y-90220654D02*
X50392788Y-90220654D01*
X49117164Y-90220654D02*
X49019038Y-90220654D01*
X49215287Y-90220654D02*
X49117164Y-90220654D01*
X49313413Y-90220654D02*
X49215287Y-90220654D01*
X79921592Y-90182567D02*
X79965852Y-90176508D01*
X79339030Y-90220654D02*
X79240904Y-90220654D01*
X79788203Y-90198045D02*
X79832761Y-90193336D01*
X79519296Y-90216990D02*
X79564265Y-90214873D01*
X48304038Y-92220652D02*
X48310237Y-92415104D01*
X48310237Y-92415104D02*
X48327692Y-92599218D01*
X48327692Y-92599218D02*
X48355316Y-92775902D01*
X48355316Y-92775902D02*
X48390969Y-92940567D01*
X48390969Y-92940567D02*
X48434491Y-93098429D01*
X48434491Y-93098429D02*
X48485680Y-93251073D01*
X48485680Y-93251073D02*
X48543585Y-93397315D01*
X48543585Y-93397315D02*
X48609316Y-93540700D01*
X48609316Y-93540700D02*
X48678661Y-93673480D01*
X48678661Y-93673480D02*
X48754337Y-93802264D01*
X48754337Y-93802264D02*
X48833568Y-93923134D01*
X48833568Y-93923134D02*
X48921107Y-94043443D01*
X48921107Y-94043443D02*
X49011088Y-94155277D01*
X49011088Y-94155277D02*
X49105066Y-94261389D01*
X49105066Y-94261389D02*
X49204292Y-94363332D01*
X49204292Y-94363332D02*
X49307800Y-94460120D01*
X49307800Y-94460120D02*
X49422797Y-94557650D01*
X49422797Y-94557650D02*
X49540370Y-94647738D01*
X49540370Y-94647738D02*
X49659586Y-94730198D01*
X49659586Y-94730198D02*
X49784344Y-94807813D01*
X49784344Y-94807813D02*
X49913081Y-94879394D01*
X49913081Y-94879394D02*
X50047664Y-94945696D01*
X50047664Y-94945696D02*
X50192312Y-95007918D01*
X50192312Y-95007918D02*
X50338578Y-95061916D01*
X50338578Y-95061916D02*
X50492205Y-95109512D01*
X50492205Y-95109512D02*
X50654921Y-95150238D01*
X50654921Y-95150238D02*
X50827399Y-95182994D01*
X50827399Y-95182994D02*
X51005577Y-95205991D01*
X51005577Y-95205991D02*
X51194079Y-95218672D01*
X51194079Y-95218672D02*
X51304037Y-95220653D01*
X49804038Y-90220654D02*
X49705912Y-90220654D01*
X49902164Y-90220654D02*
X49804038Y-90220654D01*
X79429227Y-90219635D02*
X79474280Y-90218577D01*
X53706371Y-88424107D02*
X53754589Y-88200704D01*
X53627962Y-88639735D02*
X53706371Y-88424107D01*
X78357781Y-90220654D02*
X78259655Y-90220654D01*
X78455904Y-90220654D02*
X78357781Y-90220654D01*
X79698837Y-90206168D02*
X79743560Y-90202332D01*
X80054030Y-92220652D02*
X80054030Y-90163115D01*
X79240904Y-90220654D02*
X79142781Y-90220654D01*
X79142781Y-90220654D02*
X79044655Y-90220654D01*
X79654043Y-90209555D02*
X79698837Y-90206168D01*
X79743560Y-90202332D02*
X79788203Y-90198045D01*
X79965852Y-90176508D02*
X80010000Y-90170000D01*
X78848406Y-90220654D02*
X78750280Y-90220654D01*
X78554030Y-90220654D02*
X78455904Y-90220654D01*
X78652156Y-90220654D02*
X78554030Y-90220654D01*
X51304037Y-95220653D02*
X77054031Y-95220653D01*
X79564265Y-90214873D02*
X79609183Y-90212492D01*
X49411539Y-90220654D02*
X49313413Y-90220654D01*
X49509662Y-90220654D02*
X49411539Y-90220654D01*
X49607788Y-90220654D02*
X49509662Y-90220654D01*
X49705912Y-90220654D02*
X49607788Y-90220654D01*
X76530461Y-90043838D02*
X76822806Y-90119499D01*
X76252309Y-89949091D02*
X76530461Y-90043838D01*
X79698837Y-85735066D02*
X79654043Y-85731679D01*
X79743560Y-85738902D02*
X79698837Y-85735066D01*
X80010000Y-90170000D02*
X80054030Y-90163041D01*
M02*
