G04 #@! TF.GenerationSoftware,KiCad,Pcbnew,(5.1.5)-3*
G04 #@! TF.CreationDate,2020-04-08T22:33:11-07:00*
G04 #@! TF.ProjectId,microbug,6d696372-6f62-4756-972e-6b696361645f,rev?*
G04 #@! TF.SameCoordinates,Original*
G04 #@! TF.FileFunction,Soldermask,Bot*
G04 #@! TF.FilePolarity,Negative*
%FSLAX46Y46*%
G04 Gerber Fmt 4.6, Leading zero omitted, Abs format (unit mm)*
G04 Created by KiCad (PCBNEW (5.1.5)-3) date 2020-04-08 22:33:11*
%MOMM*%
%LPD*%
G04 APERTURE LIST*
%ADD10C,0.100000*%
G04 APERTURE END LIST*
D10*
G36*
X69642928Y-93250764D02*
G01*
X69664009Y-93257160D01*
X69683445Y-93267548D01*
X69700476Y-93281524D01*
X69714452Y-93298555D01*
X69724840Y-93317991D01*
X69731236Y-93339072D01*
X69734000Y-93367140D01*
X69734000Y-93830860D01*
X69731236Y-93858928D01*
X69724840Y-93880009D01*
X69714452Y-93899445D01*
X69700476Y-93916476D01*
X69683445Y-93930452D01*
X69664009Y-93940840D01*
X69642928Y-93947236D01*
X69614860Y-93950000D01*
X67701140Y-93950000D01*
X67673072Y-93947236D01*
X67651991Y-93940840D01*
X67632555Y-93930452D01*
X67615524Y-93916476D01*
X67601548Y-93899445D01*
X67591160Y-93880009D01*
X67584764Y-93858928D01*
X67582000Y-93830860D01*
X67582000Y-93367140D01*
X67584764Y-93339072D01*
X67591160Y-93317991D01*
X67601548Y-93298555D01*
X67615524Y-93281524D01*
X67632555Y-93267548D01*
X67651991Y-93257160D01*
X67673072Y-93250764D01*
X67701140Y-93248000D01*
X69614860Y-93248000D01*
X69642928Y-93250764D01*
G37*
G36*
X60342928Y-93250764D02*
G01*
X60364009Y-93257160D01*
X60383445Y-93267548D01*
X60400476Y-93281524D01*
X60414452Y-93298555D01*
X60424840Y-93317991D01*
X60431236Y-93339072D01*
X60434000Y-93367140D01*
X60434000Y-93830860D01*
X60431236Y-93858928D01*
X60424840Y-93880009D01*
X60414452Y-93899445D01*
X60400476Y-93916476D01*
X60383445Y-93930452D01*
X60364009Y-93940840D01*
X60342928Y-93947236D01*
X60314860Y-93950000D01*
X58401140Y-93950000D01*
X58373072Y-93947236D01*
X58351991Y-93940840D01*
X58332555Y-93930452D01*
X58315524Y-93916476D01*
X58301548Y-93899445D01*
X58291160Y-93880009D01*
X58284764Y-93858928D01*
X58282000Y-93830860D01*
X58282000Y-93367140D01*
X58284764Y-93339072D01*
X58291160Y-93317991D01*
X58301548Y-93298555D01*
X58315524Y-93281524D01*
X58332555Y-93267548D01*
X58351991Y-93257160D01*
X58373072Y-93250764D01*
X58401140Y-93248000D01*
X60314860Y-93248000D01*
X60342928Y-93250764D01*
G37*
G36*
X60342928Y-91980764D02*
G01*
X60364009Y-91987160D01*
X60383445Y-91997548D01*
X60400476Y-92011524D01*
X60414452Y-92028555D01*
X60424840Y-92047991D01*
X60431236Y-92069072D01*
X60434000Y-92097140D01*
X60434000Y-92560860D01*
X60431236Y-92588928D01*
X60424840Y-92610009D01*
X60414452Y-92629445D01*
X60400476Y-92646476D01*
X60383445Y-92660452D01*
X60364009Y-92670840D01*
X60342928Y-92677236D01*
X60314860Y-92680000D01*
X58401140Y-92680000D01*
X58373072Y-92677236D01*
X58351991Y-92670840D01*
X58332555Y-92660452D01*
X58315524Y-92646476D01*
X58301548Y-92629445D01*
X58291160Y-92610009D01*
X58284764Y-92588928D01*
X58282000Y-92560860D01*
X58282000Y-92097140D01*
X58284764Y-92069072D01*
X58291160Y-92047991D01*
X58301548Y-92028555D01*
X58315524Y-92011524D01*
X58332555Y-91997548D01*
X58351991Y-91987160D01*
X58373072Y-91980764D01*
X58401140Y-91978000D01*
X60314860Y-91978000D01*
X60342928Y-91980764D01*
G37*
G36*
X69642928Y-91980764D02*
G01*
X69664009Y-91987160D01*
X69683445Y-91997548D01*
X69700476Y-92011524D01*
X69714452Y-92028555D01*
X69724840Y-92047991D01*
X69731236Y-92069072D01*
X69734000Y-92097140D01*
X69734000Y-92560860D01*
X69731236Y-92588928D01*
X69724840Y-92610009D01*
X69714452Y-92629445D01*
X69700476Y-92646476D01*
X69683445Y-92660452D01*
X69664009Y-92670840D01*
X69642928Y-92677236D01*
X69614860Y-92680000D01*
X67701140Y-92680000D01*
X67673072Y-92677236D01*
X67651991Y-92670840D01*
X67632555Y-92660452D01*
X67615524Y-92646476D01*
X67601548Y-92629445D01*
X67591160Y-92610009D01*
X67584764Y-92588928D01*
X67582000Y-92560860D01*
X67582000Y-92097140D01*
X67584764Y-92069072D01*
X67591160Y-92047991D01*
X67601548Y-92028555D01*
X67615524Y-92011524D01*
X67632555Y-91997548D01*
X67651991Y-91987160D01*
X67673072Y-91980764D01*
X67701140Y-91978000D01*
X69614860Y-91978000D01*
X69642928Y-91980764D01*
G37*
G36*
X60342928Y-90710764D02*
G01*
X60364009Y-90717160D01*
X60383445Y-90727548D01*
X60400476Y-90741524D01*
X60414452Y-90758555D01*
X60424840Y-90777991D01*
X60431236Y-90799072D01*
X60434000Y-90827140D01*
X60434000Y-91290860D01*
X60431236Y-91318928D01*
X60424840Y-91340009D01*
X60414452Y-91359445D01*
X60400476Y-91376476D01*
X60383445Y-91390452D01*
X60364009Y-91400840D01*
X60342928Y-91407236D01*
X60314860Y-91410000D01*
X58401140Y-91410000D01*
X58373072Y-91407236D01*
X58351991Y-91400840D01*
X58332555Y-91390452D01*
X58315524Y-91376476D01*
X58301548Y-91359445D01*
X58291160Y-91340009D01*
X58284764Y-91318928D01*
X58282000Y-91290860D01*
X58282000Y-90827140D01*
X58284764Y-90799072D01*
X58291160Y-90777991D01*
X58301548Y-90758555D01*
X58315524Y-90741524D01*
X58332555Y-90727548D01*
X58351991Y-90717160D01*
X58373072Y-90710764D01*
X58401140Y-90708000D01*
X60314860Y-90708000D01*
X60342928Y-90710764D01*
G37*
G36*
X69642928Y-90710764D02*
G01*
X69664009Y-90717160D01*
X69683445Y-90727548D01*
X69700476Y-90741524D01*
X69714452Y-90758555D01*
X69724840Y-90777991D01*
X69731236Y-90799072D01*
X69734000Y-90827140D01*
X69734000Y-91290860D01*
X69731236Y-91318928D01*
X69724840Y-91340009D01*
X69714452Y-91359445D01*
X69700476Y-91376476D01*
X69683445Y-91390452D01*
X69664009Y-91400840D01*
X69642928Y-91407236D01*
X69614860Y-91410000D01*
X67701140Y-91410000D01*
X67673072Y-91407236D01*
X67651991Y-91400840D01*
X67632555Y-91390452D01*
X67615524Y-91376476D01*
X67601548Y-91359445D01*
X67591160Y-91340009D01*
X67584764Y-91318928D01*
X67582000Y-91290860D01*
X67582000Y-90827140D01*
X67584764Y-90799072D01*
X67591160Y-90777991D01*
X67601548Y-90758555D01*
X67615524Y-90741524D01*
X67632555Y-90727548D01*
X67651991Y-90717160D01*
X67673072Y-90710764D01*
X67701140Y-90708000D01*
X69614860Y-90708000D01*
X69642928Y-90710764D01*
G37*
G36*
X74303000Y-90381000D02*
G01*
X72001000Y-90381000D01*
X72001000Y-88079000D01*
X74303000Y-88079000D01*
X74303000Y-90381000D01*
G37*
G36*
X56269000Y-90381000D02*
G01*
X53967000Y-90381000D01*
X53967000Y-88079000D01*
X56269000Y-88079000D01*
X56269000Y-90381000D01*
G37*
G36*
X69642928Y-89440764D02*
G01*
X69664009Y-89447160D01*
X69683445Y-89457548D01*
X69700476Y-89471524D01*
X69714452Y-89488555D01*
X69724840Y-89507991D01*
X69731236Y-89529072D01*
X69734000Y-89557140D01*
X69734000Y-90020860D01*
X69731236Y-90048928D01*
X69724840Y-90070009D01*
X69714452Y-90089445D01*
X69700476Y-90106476D01*
X69683445Y-90120452D01*
X69664009Y-90130840D01*
X69642928Y-90137236D01*
X69614860Y-90140000D01*
X67701140Y-90140000D01*
X67673072Y-90137236D01*
X67651991Y-90130840D01*
X67632555Y-90120452D01*
X67615524Y-90106476D01*
X67601548Y-90089445D01*
X67591160Y-90070009D01*
X67584764Y-90048928D01*
X67582000Y-90020860D01*
X67582000Y-89557140D01*
X67584764Y-89529072D01*
X67591160Y-89507991D01*
X67601548Y-89488555D01*
X67615524Y-89471524D01*
X67632555Y-89457548D01*
X67651991Y-89447160D01*
X67673072Y-89440764D01*
X67701140Y-89438000D01*
X69614860Y-89438000D01*
X69642928Y-89440764D01*
G37*
G36*
X60342928Y-89440764D02*
G01*
X60364009Y-89447160D01*
X60383445Y-89457548D01*
X60400476Y-89471524D01*
X60414452Y-89488555D01*
X60424840Y-89507991D01*
X60431236Y-89529072D01*
X60434000Y-89557140D01*
X60434000Y-90020860D01*
X60431236Y-90048928D01*
X60424840Y-90070009D01*
X60414452Y-90089445D01*
X60400476Y-90106476D01*
X60383445Y-90120452D01*
X60364009Y-90130840D01*
X60342928Y-90137236D01*
X60314860Y-90140000D01*
X58401140Y-90140000D01*
X58373072Y-90137236D01*
X58351991Y-90130840D01*
X58332555Y-90120452D01*
X58315524Y-90106476D01*
X58301548Y-90089445D01*
X58291160Y-90070009D01*
X58284764Y-90048928D01*
X58282000Y-90020860D01*
X58282000Y-89557140D01*
X58284764Y-89529072D01*
X58291160Y-89507991D01*
X58301548Y-89488555D01*
X58315524Y-89471524D01*
X58332555Y-89457548D01*
X58351991Y-89447160D01*
X58373072Y-89440764D01*
X58401140Y-89438000D01*
X60314860Y-89438000D01*
X60342928Y-89440764D01*
G37*
G36*
X60342928Y-88170764D02*
G01*
X60364009Y-88177160D01*
X60383445Y-88187548D01*
X60400476Y-88201524D01*
X60414452Y-88218555D01*
X60424840Y-88237991D01*
X60431236Y-88259072D01*
X60434000Y-88287140D01*
X60434000Y-88750860D01*
X60431236Y-88778928D01*
X60424840Y-88800009D01*
X60414452Y-88819445D01*
X60400476Y-88836476D01*
X60383445Y-88850452D01*
X60364009Y-88860840D01*
X60342928Y-88867236D01*
X60314860Y-88870000D01*
X58401140Y-88870000D01*
X58373072Y-88867236D01*
X58351991Y-88860840D01*
X58332555Y-88850452D01*
X58315524Y-88836476D01*
X58301548Y-88819445D01*
X58291160Y-88800009D01*
X58284764Y-88778928D01*
X58282000Y-88750860D01*
X58282000Y-88287140D01*
X58284764Y-88259072D01*
X58291160Y-88237991D01*
X58301548Y-88218555D01*
X58315524Y-88201524D01*
X58332555Y-88187548D01*
X58351991Y-88177160D01*
X58373072Y-88170764D01*
X58401140Y-88168000D01*
X60314860Y-88168000D01*
X60342928Y-88170764D01*
G37*
G36*
X69642928Y-88170764D02*
G01*
X69664009Y-88177160D01*
X69683445Y-88187548D01*
X69700476Y-88201524D01*
X69714452Y-88218555D01*
X69724840Y-88237991D01*
X69731236Y-88259072D01*
X69734000Y-88287140D01*
X69734000Y-88750860D01*
X69731236Y-88778928D01*
X69724840Y-88800009D01*
X69714452Y-88819445D01*
X69700476Y-88836476D01*
X69683445Y-88850452D01*
X69664009Y-88860840D01*
X69642928Y-88867236D01*
X69614860Y-88870000D01*
X67701140Y-88870000D01*
X67673072Y-88867236D01*
X67651991Y-88860840D01*
X67632555Y-88850452D01*
X67615524Y-88836476D01*
X67601548Y-88819445D01*
X67591160Y-88800009D01*
X67584764Y-88778928D01*
X67582000Y-88750860D01*
X67582000Y-88287140D01*
X67584764Y-88259072D01*
X67591160Y-88237991D01*
X67601548Y-88218555D01*
X67615524Y-88201524D01*
X67632555Y-88187548D01*
X67651991Y-88177160D01*
X67673072Y-88170764D01*
X67701140Y-88168000D01*
X69614860Y-88168000D01*
X69642928Y-88170764D01*
G37*
G36*
X60342928Y-86900764D02*
G01*
X60364009Y-86907160D01*
X60383445Y-86917548D01*
X60400476Y-86931524D01*
X60414452Y-86948555D01*
X60424840Y-86967991D01*
X60431236Y-86989072D01*
X60434000Y-87017140D01*
X60434000Y-87480860D01*
X60431236Y-87508928D01*
X60424840Y-87530009D01*
X60414452Y-87549445D01*
X60400476Y-87566476D01*
X60383445Y-87580452D01*
X60364009Y-87590840D01*
X60342928Y-87597236D01*
X60314860Y-87600000D01*
X58401140Y-87600000D01*
X58373072Y-87597236D01*
X58351991Y-87590840D01*
X58332555Y-87580452D01*
X58315524Y-87566476D01*
X58301548Y-87549445D01*
X58291160Y-87530009D01*
X58284764Y-87508928D01*
X58282000Y-87480860D01*
X58282000Y-87017140D01*
X58284764Y-86989072D01*
X58291160Y-86967991D01*
X58301548Y-86948555D01*
X58315524Y-86931524D01*
X58332555Y-86917548D01*
X58351991Y-86907160D01*
X58373072Y-86900764D01*
X58401140Y-86898000D01*
X60314860Y-86898000D01*
X60342928Y-86900764D01*
G37*
G36*
X69642928Y-86900764D02*
G01*
X69664009Y-86907160D01*
X69683445Y-86917548D01*
X69700476Y-86931524D01*
X69714452Y-86948555D01*
X69724840Y-86967991D01*
X69731236Y-86989072D01*
X69734000Y-87017140D01*
X69734000Y-87480860D01*
X69731236Y-87508928D01*
X69724840Y-87530009D01*
X69714452Y-87549445D01*
X69700476Y-87566476D01*
X69683445Y-87580452D01*
X69664009Y-87590840D01*
X69642928Y-87597236D01*
X69614860Y-87600000D01*
X67701140Y-87600000D01*
X67673072Y-87597236D01*
X67651991Y-87590840D01*
X67632555Y-87580452D01*
X67615524Y-87566476D01*
X67601548Y-87549445D01*
X67591160Y-87530009D01*
X67584764Y-87508928D01*
X67582000Y-87480860D01*
X67582000Y-87017140D01*
X67584764Y-86989072D01*
X67591160Y-86967991D01*
X67601548Y-86948555D01*
X67615524Y-86931524D01*
X67632555Y-86917548D01*
X67651991Y-86907160D01*
X67673072Y-86900764D01*
X67701140Y-86898000D01*
X69614860Y-86898000D01*
X69642928Y-86900764D01*
G37*
G36*
X56269000Y-87181000D02*
G01*
X53967000Y-87181000D01*
X53967000Y-84879000D01*
X56269000Y-84879000D01*
X56269000Y-87181000D01*
G37*
G36*
X74303000Y-87181000D02*
G01*
X72001000Y-87181000D01*
X72001000Y-84879000D01*
X74303000Y-84879000D01*
X74303000Y-87181000D01*
G37*
G36*
X60342928Y-85630764D02*
G01*
X60364009Y-85637160D01*
X60383445Y-85647548D01*
X60400476Y-85661524D01*
X60414452Y-85678555D01*
X60424840Y-85697991D01*
X60431236Y-85719072D01*
X60434000Y-85747140D01*
X60434000Y-86210860D01*
X60431236Y-86238928D01*
X60424840Y-86260009D01*
X60414452Y-86279445D01*
X60400476Y-86296476D01*
X60383445Y-86310452D01*
X60364009Y-86320840D01*
X60342928Y-86327236D01*
X60314860Y-86330000D01*
X58401140Y-86330000D01*
X58373072Y-86327236D01*
X58351991Y-86320840D01*
X58332555Y-86310452D01*
X58315524Y-86296476D01*
X58301548Y-86279445D01*
X58291160Y-86260009D01*
X58284764Y-86238928D01*
X58282000Y-86210860D01*
X58282000Y-85747140D01*
X58284764Y-85719072D01*
X58291160Y-85697991D01*
X58301548Y-85678555D01*
X58315524Y-85661524D01*
X58332555Y-85647548D01*
X58351991Y-85637160D01*
X58373072Y-85630764D01*
X58401140Y-85628000D01*
X60314860Y-85628000D01*
X60342928Y-85630764D01*
G37*
G36*
X69642928Y-85630764D02*
G01*
X69664009Y-85637160D01*
X69683445Y-85647548D01*
X69700476Y-85661524D01*
X69714452Y-85678555D01*
X69724840Y-85697991D01*
X69731236Y-85719072D01*
X69734000Y-85747140D01*
X69734000Y-86210860D01*
X69731236Y-86238928D01*
X69724840Y-86260009D01*
X69714452Y-86279445D01*
X69700476Y-86296476D01*
X69683445Y-86310452D01*
X69664009Y-86320840D01*
X69642928Y-86327236D01*
X69614860Y-86330000D01*
X67701140Y-86330000D01*
X67673072Y-86327236D01*
X67651991Y-86320840D01*
X67632555Y-86310452D01*
X67615524Y-86296476D01*
X67601548Y-86279445D01*
X67591160Y-86260009D01*
X67584764Y-86238928D01*
X67582000Y-86210860D01*
X67582000Y-85747140D01*
X67584764Y-85719072D01*
X67591160Y-85697991D01*
X67601548Y-85678555D01*
X67615524Y-85661524D01*
X67632555Y-85647548D01*
X67651991Y-85637160D01*
X67673072Y-85630764D01*
X67701140Y-85628000D01*
X69614860Y-85628000D01*
X69642928Y-85630764D01*
G37*
G36*
X60342928Y-84360764D02*
G01*
X60364009Y-84367160D01*
X60383445Y-84377548D01*
X60400476Y-84391524D01*
X60414452Y-84408555D01*
X60424840Y-84427991D01*
X60431236Y-84449072D01*
X60434000Y-84477140D01*
X60434000Y-84940860D01*
X60431236Y-84968928D01*
X60424840Y-84990009D01*
X60414452Y-85009445D01*
X60400476Y-85026476D01*
X60383445Y-85040452D01*
X60364009Y-85050840D01*
X60342928Y-85057236D01*
X60314860Y-85060000D01*
X58401140Y-85060000D01*
X58373072Y-85057236D01*
X58351991Y-85050840D01*
X58332555Y-85040452D01*
X58315524Y-85026476D01*
X58301548Y-85009445D01*
X58291160Y-84990009D01*
X58284764Y-84968928D01*
X58282000Y-84940860D01*
X58282000Y-84477140D01*
X58284764Y-84449072D01*
X58291160Y-84427991D01*
X58301548Y-84408555D01*
X58315524Y-84391524D01*
X58332555Y-84377548D01*
X58351991Y-84367160D01*
X58373072Y-84360764D01*
X58401140Y-84358000D01*
X60314860Y-84358000D01*
X60342928Y-84360764D01*
G37*
G36*
X69642928Y-84360764D02*
G01*
X69664009Y-84367160D01*
X69683445Y-84377548D01*
X69700476Y-84391524D01*
X69714452Y-84408555D01*
X69724840Y-84427991D01*
X69731236Y-84449072D01*
X69734000Y-84477140D01*
X69734000Y-84940860D01*
X69731236Y-84968928D01*
X69724840Y-84990009D01*
X69714452Y-85009445D01*
X69700476Y-85026476D01*
X69683445Y-85040452D01*
X69664009Y-85050840D01*
X69642928Y-85057236D01*
X69614860Y-85060000D01*
X67701140Y-85060000D01*
X67673072Y-85057236D01*
X67651991Y-85050840D01*
X67632555Y-85040452D01*
X67615524Y-85026476D01*
X67601548Y-85009445D01*
X67591160Y-84990009D01*
X67584764Y-84968928D01*
X67582000Y-84940860D01*
X67582000Y-84477140D01*
X67584764Y-84449072D01*
X67591160Y-84427991D01*
X67601548Y-84408555D01*
X67615524Y-84391524D01*
X67632555Y-84377548D01*
X67651991Y-84367160D01*
X67673072Y-84360764D01*
X67701140Y-84358000D01*
X69614860Y-84358000D01*
X69642928Y-84360764D01*
G37*
G36*
X69642928Y-83090764D02*
G01*
X69664009Y-83097160D01*
X69683445Y-83107548D01*
X69700476Y-83121524D01*
X69714452Y-83138555D01*
X69724840Y-83157991D01*
X69731236Y-83179072D01*
X69734000Y-83207140D01*
X69734000Y-83670860D01*
X69731236Y-83698928D01*
X69724840Y-83720009D01*
X69714452Y-83739445D01*
X69700476Y-83756476D01*
X69683445Y-83770452D01*
X69664009Y-83780840D01*
X69642928Y-83787236D01*
X69614860Y-83790000D01*
X67701140Y-83790000D01*
X67673072Y-83787236D01*
X67651991Y-83780840D01*
X67632555Y-83770452D01*
X67615524Y-83756476D01*
X67601548Y-83739445D01*
X67591160Y-83720009D01*
X67584764Y-83698928D01*
X67582000Y-83670860D01*
X67582000Y-83207140D01*
X67584764Y-83179072D01*
X67591160Y-83157991D01*
X67601548Y-83138555D01*
X67615524Y-83121524D01*
X67632555Y-83107548D01*
X67651991Y-83097160D01*
X67673072Y-83090764D01*
X67701140Y-83088000D01*
X69614860Y-83088000D01*
X69642928Y-83090764D01*
G37*
G36*
X60342928Y-83090764D02*
G01*
X60364009Y-83097160D01*
X60383445Y-83107548D01*
X60400476Y-83121524D01*
X60414452Y-83138555D01*
X60424840Y-83157991D01*
X60431236Y-83179072D01*
X60434000Y-83207140D01*
X60434000Y-83670860D01*
X60431236Y-83698928D01*
X60424840Y-83720009D01*
X60414452Y-83739445D01*
X60400476Y-83756476D01*
X60383445Y-83770452D01*
X60364009Y-83780840D01*
X60342928Y-83787236D01*
X60314860Y-83790000D01*
X58401140Y-83790000D01*
X58373072Y-83787236D01*
X58351991Y-83780840D01*
X58332555Y-83770452D01*
X58315524Y-83756476D01*
X58301548Y-83739445D01*
X58291160Y-83720009D01*
X58284764Y-83698928D01*
X58282000Y-83670860D01*
X58282000Y-83207140D01*
X58284764Y-83179072D01*
X58291160Y-83157991D01*
X58301548Y-83138555D01*
X58315524Y-83121524D01*
X58332555Y-83107548D01*
X58351991Y-83097160D01*
X58373072Y-83090764D01*
X58401140Y-83088000D01*
X60314860Y-83088000D01*
X60342928Y-83090764D01*
G37*
G36*
X69642928Y-81820764D02*
G01*
X69664009Y-81827160D01*
X69683445Y-81837548D01*
X69700476Y-81851524D01*
X69714452Y-81868555D01*
X69724840Y-81887991D01*
X69731236Y-81909072D01*
X69734000Y-81937140D01*
X69734000Y-82400860D01*
X69731236Y-82428928D01*
X69724840Y-82450009D01*
X69714452Y-82469445D01*
X69700476Y-82486476D01*
X69683445Y-82500452D01*
X69664009Y-82510840D01*
X69642928Y-82517236D01*
X69614860Y-82520000D01*
X67701140Y-82520000D01*
X67673072Y-82517236D01*
X67651991Y-82510840D01*
X67632555Y-82500452D01*
X67615524Y-82486476D01*
X67601548Y-82469445D01*
X67591160Y-82450009D01*
X67584764Y-82428928D01*
X67582000Y-82400860D01*
X67582000Y-81937140D01*
X67584764Y-81909072D01*
X67591160Y-81887991D01*
X67601548Y-81868555D01*
X67615524Y-81851524D01*
X67632555Y-81837548D01*
X67651991Y-81827160D01*
X67673072Y-81820764D01*
X67701140Y-81818000D01*
X69614860Y-81818000D01*
X69642928Y-81820764D01*
G37*
G36*
X60342928Y-81820764D02*
G01*
X60364009Y-81827160D01*
X60383445Y-81837548D01*
X60400476Y-81851524D01*
X60414452Y-81868555D01*
X60424840Y-81887991D01*
X60431236Y-81909072D01*
X60434000Y-81937140D01*
X60434000Y-82400860D01*
X60431236Y-82428928D01*
X60424840Y-82450009D01*
X60414452Y-82469445D01*
X60400476Y-82486476D01*
X60383445Y-82500452D01*
X60364009Y-82510840D01*
X60342928Y-82517236D01*
X60314860Y-82520000D01*
X58401140Y-82520000D01*
X58373072Y-82517236D01*
X58351991Y-82510840D01*
X58332555Y-82500452D01*
X58315524Y-82486476D01*
X58301548Y-82469445D01*
X58291160Y-82450009D01*
X58284764Y-82428928D01*
X58282000Y-82400860D01*
X58282000Y-81937140D01*
X58284764Y-81909072D01*
X58291160Y-81887991D01*
X58301548Y-81868555D01*
X58315524Y-81851524D01*
X58332555Y-81837548D01*
X58351991Y-81827160D01*
X58373072Y-81820764D01*
X58401140Y-81818000D01*
X60314860Y-81818000D01*
X60342928Y-81820764D01*
G37*
G36*
X61986000Y-79767000D02*
G01*
X60384000Y-79767000D01*
X60384000Y-74665000D01*
X61986000Y-74665000D01*
X61986000Y-79767000D01*
G37*
G36*
X67886000Y-79767000D02*
G01*
X66284000Y-79767000D01*
X66284000Y-74665000D01*
X67886000Y-74665000D01*
X67886000Y-79767000D01*
G37*
G36*
X72183499Y-78218445D02*
G01*
X72220995Y-78229820D01*
X72255554Y-78248292D01*
X72285847Y-78273153D01*
X72310708Y-78303446D01*
X72329180Y-78338005D01*
X72340555Y-78375501D01*
X72345000Y-78420638D01*
X72345000Y-79059362D01*
X72340555Y-79104499D01*
X72329180Y-79141995D01*
X72310708Y-79176554D01*
X72285847Y-79206847D01*
X72255554Y-79231708D01*
X72220995Y-79250180D01*
X72183499Y-79261555D01*
X72138362Y-79266000D01*
X71399638Y-79266000D01*
X71354501Y-79261555D01*
X71317005Y-79250180D01*
X71282446Y-79231708D01*
X71252153Y-79206847D01*
X71227292Y-79176554D01*
X71208820Y-79141995D01*
X71197445Y-79104499D01*
X71193000Y-79059362D01*
X71193000Y-78420638D01*
X71197445Y-78375501D01*
X71208820Y-78338005D01*
X71227292Y-78303446D01*
X71252153Y-78273153D01*
X71282446Y-78248292D01*
X71317005Y-78229820D01*
X71354501Y-78218445D01*
X71399638Y-78214000D01*
X72138362Y-78214000D01*
X72183499Y-78218445D01*
G37*
G36*
X73933499Y-78218445D02*
G01*
X73970995Y-78229820D01*
X74005554Y-78248292D01*
X74035847Y-78273153D01*
X74060708Y-78303446D01*
X74079180Y-78338005D01*
X74090555Y-78375501D01*
X74095000Y-78420638D01*
X74095000Y-79059362D01*
X74090555Y-79104499D01*
X74079180Y-79141995D01*
X74060708Y-79176554D01*
X74035847Y-79206847D01*
X74005554Y-79231708D01*
X73970995Y-79250180D01*
X73933499Y-79261555D01*
X73888362Y-79266000D01*
X73149638Y-79266000D01*
X73104501Y-79261555D01*
X73067005Y-79250180D01*
X73032446Y-79231708D01*
X73002153Y-79206847D01*
X72977292Y-79176554D01*
X72958820Y-79141995D01*
X72947445Y-79104499D01*
X72943000Y-79059362D01*
X72943000Y-78420638D01*
X72947445Y-78375501D01*
X72958820Y-78338005D01*
X72977292Y-78303446D01*
X73002153Y-78273153D01*
X73032446Y-78248292D01*
X73067005Y-78229820D01*
X73104501Y-78218445D01*
X73149638Y-78214000D01*
X73888362Y-78214000D01*
X73933499Y-78218445D01*
G37*
G36*
X51839395Y-75285546D02*
G01*
X52012466Y-75357234D01*
X52043082Y-75377691D01*
X52168227Y-75461310D01*
X52300690Y-75593773D01*
X52300691Y-75593775D01*
X52404766Y-75749534D01*
X52476454Y-75922605D01*
X52513000Y-76106333D01*
X52513000Y-76293667D01*
X52476454Y-76477395D01*
X52404766Y-76650466D01*
X52404765Y-76650467D01*
X52300690Y-76806227D01*
X52168227Y-76938690D01*
X52089818Y-76991081D01*
X52012466Y-77042766D01*
X51839395Y-77114454D01*
X51655667Y-77151000D01*
X51468333Y-77151000D01*
X51284605Y-77114454D01*
X51111534Y-77042766D01*
X51034182Y-76991081D01*
X50955773Y-76938690D01*
X50823310Y-76806227D01*
X50719235Y-76650467D01*
X50719234Y-76650466D01*
X50647546Y-76477395D01*
X50611000Y-76293667D01*
X50611000Y-76106333D01*
X50647546Y-75922605D01*
X50719234Y-75749534D01*
X50823309Y-75593775D01*
X50823310Y-75593773D01*
X50955773Y-75461310D01*
X51080918Y-75377691D01*
X51111534Y-75357234D01*
X51284605Y-75285546D01*
X51468333Y-75249000D01*
X51655667Y-75249000D01*
X51839395Y-75285546D01*
G37*
G36*
X72183499Y-75170445D02*
G01*
X72220995Y-75181820D01*
X72255554Y-75200292D01*
X72285847Y-75225153D01*
X72310708Y-75255446D01*
X72329180Y-75290005D01*
X72340555Y-75327501D01*
X72345000Y-75372638D01*
X72345000Y-76011362D01*
X72340555Y-76056499D01*
X72329180Y-76093995D01*
X72310708Y-76128554D01*
X72285847Y-76158847D01*
X72255554Y-76183708D01*
X72220995Y-76202180D01*
X72183499Y-76213555D01*
X72138362Y-76218000D01*
X71399638Y-76218000D01*
X71354501Y-76213555D01*
X71317005Y-76202180D01*
X71282446Y-76183708D01*
X71252153Y-76158847D01*
X71227292Y-76128554D01*
X71208820Y-76093995D01*
X71197445Y-76056499D01*
X71193000Y-76011362D01*
X71193000Y-75372638D01*
X71197445Y-75327501D01*
X71208820Y-75290005D01*
X71227292Y-75255446D01*
X71252153Y-75225153D01*
X71282446Y-75200292D01*
X71317005Y-75181820D01*
X71354501Y-75170445D01*
X71399638Y-75166000D01*
X72138362Y-75166000D01*
X72183499Y-75170445D01*
G37*
G36*
X73933499Y-75170445D02*
G01*
X73970995Y-75181820D01*
X74005554Y-75200292D01*
X74035847Y-75225153D01*
X74060708Y-75255446D01*
X74079180Y-75290005D01*
X74090555Y-75327501D01*
X74095000Y-75372638D01*
X74095000Y-76011362D01*
X74090555Y-76056499D01*
X74079180Y-76093995D01*
X74060708Y-76128554D01*
X74035847Y-76158847D01*
X74005554Y-76183708D01*
X73970995Y-76202180D01*
X73933499Y-76213555D01*
X73888362Y-76218000D01*
X73149638Y-76218000D01*
X73104501Y-76213555D01*
X73067005Y-76202180D01*
X73032446Y-76183708D01*
X73002153Y-76158847D01*
X72977292Y-76128554D01*
X72958820Y-76093995D01*
X72947445Y-76056499D01*
X72943000Y-76011362D01*
X72943000Y-75372638D01*
X72947445Y-75327501D01*
X72958820Y-75290005D01*
X72977292Y-75255446D01*
X73002153Y-75225153D01*
X73032446Y-75200292D01*
X73067005Y-75181820D01*
X73104501Y-75170445D01*
X73149638Y-75166000D01*
X73888362Y-75166000D01*
X73933499Y-75170445D01*
G37*
G36*
X57197499Y-74916445D02*
G01*
X57234995Y-74927820D01*
X57269554Y-74946292D01*
X57299847Y-74971153D01*
X57324708Y-75001446D01*
X57343180Y-75036005D01*
X57354555Y-75073501D01*
X57359000Y-75118638D01*
X57359000Y-75757362D01*
X57354555Y-75802499D01*
X57343180Y-75839995D01*
X57324708Y-75874554D01*
X57299847Y-75904847D01*
X57269554Y-75929708D01*
X57234995Y-75948180D01*
X57197499Y-75959555D01*
X57152362Y-75964000D01*
X56413638Y-75964000D01*
X56368501Y-75959555D01*
X56331005Y-75948180D01*
X56296446Y-75929708D01*
X56266153Y-75904847D01*
X56241292Y-75874554D01*
X56222820Y-75839995D01*
X56211445Y-75802499D01*
X56207000Y-75757362D01*
X56207000Y-75118638D01*
X56211445Y-75073501D01*
X56222820Y-75036005D01*
X56241292Y-75001446D01*
X56266153Y-74971153D01*
X56296446Y-74946292D01*
X56331005Y-74927820D01*
X56368501Y-74916445D01*
X56413638Y-74912000D01*
X57152362Y-74912000D01*
X57197499Y-74916445D01*
G37*
G36*
X58947499Y-74916445D02*
G01*
X58984995Y-74927820D01*
X59019554Y-74946292D01*
X59049847Y-74971153D01*
X59074708Y-75001446D01*
X59093180Y-75036005D01*
X59104555Y-75073501D01*
X59109000Y-75118638D01*
X59109000Y-75757362D01*
X59104555Y-75802499D01*
X59093180Y-75839995D01*
X59074708Y-75874554D01*
X59049847Y-75904847D01*
X59019554Y-75929708D01*
X58984995Y-75948180D01*
X58947499Y-75959555D01*
X58902362Y-75964000D01*
X58163638Y-75964000D01*
X58118501Y-75959555D01*
X58081005Y-75948180D01*
X58046446Y-75929708D01*
X58016153Y-75904847D01*
X57991292Y-75874554D01*
X57972820Y-75839995D01*
X57961445Y-75802499D01*
X57957000Y-75757362D01*
X57957000Y-75118638D01*
X57961445Y-75073501D01*
X57972820Y-75036005D01*
X57991292Y-75001446D01*
X58016153Y-74971153D01*
X58046446Y-74946292D01*
X58081005Y-74927820D01*
X58118501Y-74916445D01*
X58163638Y-74912000D01*
X58902362Y-74912000D01*
X58947499Y-74916445D01*
G37*
G36*
X52513000Y-74611000D02*
G01*
X50611000Y-74611000D01*
X50611000Y-72709000D01*
X52513000Y-72709000D01*
X52513000Y-74611000D01*
G37*
G36*
X72155499Y-73392445D02*
G01*
X72192995Y-73403820D01*
X72227554Y-73422292D01*
X72257847Y-73447153D01*
X72282708Y-73477446D01*
X72301180Y-73512005D01*
X72312555Y-73549501D01*
X72317000Y-73594638D01*
X72317000Y-74233362D01*
X72312555Y-74278499D01*
X72301180Y-74315995D01*
X72282708Y-74350554D01*
X72257847Y-74380847D01*
X72227554Y-74405708D01*
X72192995Y-74424180D01*
X72155499Y-74435555D01*
X72110362Y-74440000D01*
X71371638Y-74440000D01*
X71326501Y-74435555D01*
X71289005Y-74424180D01*
X71254446Y-74405708D01*
X71224153Y-74380847D01*
X71199292Y-74350554D01*
X71180820Y-74315995D01*
X71169445Y-74278499D01*
X71165000Y-74233362D01*
X71165000Y-73594638D01*
X71169445Y-73549501D01*
X71180820Y-73512005D01*
X71199292Y-73477446D01*
X71224153Y-73447153D01*
X71254446Y-73422292D01*
X71289005Y-73403820D01*
X71326501Y-73392445D01*
X71371638Y-73388000D01*
X72110362Y-73388000D01*
X72155499Y-73392445D01*
G37*
G36*
X70405499Y-73392445D02*
G01*
X70442995Y-73403820D01*
X70477554Y-73422292D01*
X70507847Y-73447153D01*
X70532708Y-73477446D01*
X70551180Y-73512005D01*
X70562555Y-73549501D01*
X70567000Y-73594638D01*
X70567000Y-74233362D01*
X70562555Y-74278499D01*
X70551180Y-74315995D01*
X70532708Y-74350554D01*
X70507847Y-74380847D01*
X70477554Y-74405708D01*
X70442995Y-74424180D01*
X70405499Y-74435555D01*
X70360362Y-74440000D01*
X69621638Y-74440000D01*
X69576501Y-74435555D01*
X69539005Y-74424180D01*
X69504446Y-74405708D01*
X69474153Y-74380847D01*
X69449292Y-74350554D01*
X69430820Y-74315995D01*
X69419445Y-74278499D01*
X69415000Y-74233362D01*
X69415000Y-73594638D01*
X69419445Y-73549501D01*
X69430820Y-73512005D01*
X69449292Y-73477446D01*
X69474153Y-73447153D01*
X69504446Y-73422292D01*
X69539005Y-73403820D01*
X69576501Y-73392445D01*
X69621638Y-73388000D01*
X70360362Y-73388000D01*
X70405499Y-73392445D01*
G37*
G36*
X70405499Y-71360445D02*
G01*
X70442995Y-71371820D01*
X70477554Y-71390292D01*
X70507847Y-71415153D01*
X70532708Y-71445446D01*
X70551180Y-71480005D01*
X70562555Y-71517501D01*
X70567000Y-71562638D01*
X70567000Y-72201362D01*
X70562555Y-72246499D01*
X70551180Y-72283995D01*
X70532708Y-72318554D01*
X70507847Y-72348847D01*
X70477554Y-72373708D01*
X70442995Y-72392180D01*
X70405499Y-72403555D01*
X70360362Y-72408000D01*
X69621638Y-72408000D01*
X69576501Y-72403555D01*
X69539005Y-72392180D01*
X69504446Y-72373708D01*
X69474153Y-72348847D01*
X69449292Y-72318554D01*
X69430820Y-72283995D01*
X69419445Y-72246499D01*
X69415000Y-72201362D01*
X69415000Y-71562638D01*
X69419445Y-71517501D01*
X69430820Y-71480005D01*
X69449292Y-71445446D01*
X69474153Y-71415153D01*
X69504446Y-71390292D01*
X69539005Y-71371820D01*
X69576501Y-71360445D01*
X69621638Y-71356000D01*
X70360362Y-71356000D01*
X70405499Y-71360445D01*
G37*
G36*
X72155499Y-71360445D02*
G01*
X72192995Y-71371820D01*
X72227554Y-71390292D01*
X72257847Y-71415153D01*
X72282708Y-71445446D01*
X72301180Y-71480005D01*
X72312555Y-71517501D01*
X72317000Y-71562638D01*
X72317000Y-72201362D01*
X72312555Y-72246499D01*
X72301180Y-72283995D01*
X72282708Y-72318554D01*
X72257847Y-72348847D01*
X72227554Y-72373708D01*
X72192995Y-72392180D01*
X72155499Y-72403555D01*
X72110362Y-72408000D01*
X71371638Y-72408000D01*
X71326501Y-72403555D01*
X71289005Y-72392180D01*
X71254446Y-72373708D01*
X71224153Y-72348847D01*
X71199292Y-72318554D01*
X71180820Y-72283995D01*
X71169445Y-72246499D01*
X71165000Y-72201362D01*
X71165000Y-71562638D01*
X71169445Y-71517501D01*
X71180820Y-71480005D01*
X71199292Y-71445446D01*
X71224153Y-71415153D01*
X71254446Y-71390292D01*
X71289005Y-71371820D01*
X71326501Y-71360445D01*
X71371638Y-71356000D01*
X72110362Y-71356000D01*
X72155499Y-71360445D01*
G37*
G36*
X59292499Y-70915445D02*
G01*
X59329995Y-70926820D01*
X59364554Y-70945292D01*
X59394847Y-70970153D01*
X59419708Y-71000446D01*
X59438180Y-71035005D01*
X59449555Y-71072501D01*
X59454000Y-71117638D01*
X59454000Y-71856362D01*
X59449555Y-71901499D01*
X59438180Y-71938995D01*
X59419708Y-71973554D01*
X59394847Y-72003847D01*
X59364554Y-72028708D01*
X59329995Y-72047180D01*
X59292499Y-72058555D01*
X59247362Y-72063000D01*
X58608638Y-72063000D01*
X58563501Y-72058555D01*
X58526005Y-72047180D01*
X58491446Y-72028708D01*
X58461153Y-72003847D01*
X58436292Y-71973554D01*
X58417820Y-71938995D01*
X58406445Y-71901499D01*
X58402000Y-71856362D01*
X58402000Y-71117638D01*
X58406445Y-71072501D01*
X58417820Y-71035005D01*
X58436292Y-71000446D01*
X58461153Y-70970153D01*
X58491446Y-70945292D01*
X58526005Y-70926820D01*
X58563501Y-70915445D01*
X58608638Y-70911000D01*
X59247362Y-70911000D01*
X59292499Y-70915445D01*
G37*
G36*
X65645512Y-69969927D02*
G01*
X65794812Y-69999624D01*
X65958784Y-70067544D01*
X66106354Y-70166147D01*
X66231853Y-70291646D01*
X66330456Y-70439216D01*
X66398376Y-70603188D01*
X66428073Y-70752488D01*
X66433000Y-70777258D01*
X66433000Y-70954742D01*
X66428073Y-70979512D01*
X66398376Y-71128812D01*
X66330456Y-71292784D01*
X66231853Y-71440354D01*
X66106354Y-71565853D01*
X65958784Y-71664456D01*
X65794812Y-71732376D01*
X65645512Y-71762073D01*
X65620742Y-71767000D01*
X65443258Y-71767000D01*
X65418488Y-71762073D01*
X65269188Y-71732376D01*
X65105216Y-71664456D01*
X64957646Y-71565853D01*
X64832147Y-71440354D01*
X64733544Y-71292784D01*
X64665624Y-71128812D01*
X64635927Y-70979512D01*
X64631000Y-70954742D01*
X64631000Y-70777258D01*
X64635927Y-70752488D01*
X64665624Y-70603188D01*
X64733544Y-70439216D01*
X64832147Y-70291646D01*
X64957646Y-70166147D01*
X65105216Y-70067544D01*
X65269188Y-69999624D01*
X65418488Y-69969927D01*
X65443258Y-69965000D01*
X65620742Y-69965000D01*
X65645512Y-69969927D01*
G37*
G36*
X63893000Y-71767000D02*
G01*
X62091000Y-71767000D01*
X62091000Y-69965000D01*
X63893000Y-69965000D01*
X63893000Y-71767000D01*
G37*
G36*
X74953395Y-69697546D02*
G01*
X75126466Y-69769234D01*
X75126467Y-69769235D01*
X75282227Y-69873310D01*
X75414690Y-70005773D01*
X75414691Y-70005775D01*
X75518766Y-70161534D01*
X75590454Y-70334605D01*
X75627000Y-70518333D01*
X75627000Y-70705667D01*
X75590454Y-70889395D01*
X75518766Y-71062466D01*
X75518765Y-71062467D01*
X75414690Y-71218227D01*
X75282227Y-71350690D01*
X75244318Y-71376020D01*
X75126466Y-71454766D01*
X74953395Y-71526454D01*
X74769667Y-71563000D01*
X74582333Y-71563000D01*
X74398605Y-71526454D01*
X74225534Y-71454766D01*
X74107682Y-71376020D01*
X74069773Y-71350690D01*
X73937310Y-71218227D01*
X73833235Y-71062467D01*
X73833234Y-71062466D01*
X73761546Y-70889395D01*
X73725000Y-70705667D01*
X73725000Y-70518333D01*
X73761546Y-70334605D01*
X73833234Y-70161534D01*
X73937309Y-70005775D01*
X73937310Y-70005773D01*
X74069773Y-69873310D01*
X74225533Y-69769235D01*
X74225534Y-69769234D01*
X74398605Y-69697546D01*
X74582333Y-69661000D01*
X74769667Y-69661000D01*
X74953395Y-69697546D01*
G37*
G36*
X78167000Y-71563000D02*
G01*
X76265000Y-71563000D01*
X76265000Y-69661000D01*
X78167000Y-69661000D01*
X78167000Y-71563000D01*
G37*
G36*
X53961512Y-69715927D02*
G01*
X54110812Y-69745624D01*
X54274784Y-69813544D01*
X54422354Y-69912147D01*
X54547853Y-70037646D01*
X54646456Y-70185216D01*
X54714376Y-70349188D01*
X54749000Y-70523259D01*
X54749000Y-70700741D01*
X54714376Y-70874812D01*
X54646456Y-71038784D01*
X54547853Y-71186354D01*
X54422354Y-71311853D01*
X54274784Y-71410456D01*
X54110812Y-71478376D01*
X53961512Y-71508073D01*
X53936742Y-71513000D01*
X53759258Y-71513000D01*
X53734488Y-71508073D01*
X53585188Y-71478376D01*
X53421216Y-71410456D01*
X53273646Y-71311853D01*
X53148147Y-71186354D01*
X53049544Y-71038784D01*
X52981624Y-70874812D01*
X52947000Y-70700741D01*
X52947000Y-70523259D01*
X52981624Y-70349188D01*
X53049544Y-70185216D01*
X53148147Y-70037646D01*
X53273646Y-69912147D01*
X53421216Y-69813544D01*
X53585188Y-69745624D01*
X53734488Y-69715927D01*
X53759258Y-69711000D01*
X53936742Y-69711000D01*
X53961512Y-69715927D01*
G37*
G36*
X52209000Y-71513000D02*
G01*
X50407000Y-71513000D01*
X50407000Y-69711000D01*
X52209000Y-69711000D01*
X52209000Y-71513000D01*
G37*
G36*
X56501512Y-69715927D02*
G01*
X56650812Y-69745624D01*
X56814784Y-69813544D01*
X56962354Y-69912147D01*
X57087853Y-70037646D01*
X57186456Y-70185216D01*
X57254376Y-70349188D01*
X57289000Y-70523259D01*
X57289000Y-70700741D01*
X57254376Y-70874812D01*
X57186456Y-71038784D01*
X57087853Y-71186354D01*
X56962354Y-71311853D01*
X56814784Y-71410456D01*
X56650812Y-71478376D01*
X56501512Y-71508073D01*
X56476742Y-71513000D01*
X56299258Y-71513000D01*
X56274488Y-71508073D01*
X56125188Y-71478376D01*
X55961216Y-71410456D01*
X55813646Y-71311853D01*
X55688147Y-71186354D01*
X55589544Y-71038784D01*
X55521624Y-70874812D01*
X55487000Y-70700741D01*
X55487000Y-70523259D01*
X55521624Y-70349188D01*
X55589544Y-70185216D01*
X55688147Y-70037646D01*
X55813646Y-69912147D01*
X55961216Y-69813544D01*
X56125188Y-69745624D01*
X56274488Y-69715927D01*
X56299258Y-69711000D01*
X56476742Y-69711000D01*
X56501512Y-69715927D01*
G37*
G36*
X59292499Y-69165445D02*
G01*
X59329995Y-69176820D01*
X59364554Y-69195292D01*
X59394847Y-69220153D01*
X59419708Y-69250446D01*
X59438180Y-69285005D01*
X59449555Y-69322501D01*
X59454000Y-69367638D01*
X59454000Y-70106362D01*
X59449555Y-70151499D01*
X59438180Y-70188995D01*
X59419708Y-70223554D01*
X59394847Y-70253847D01*
X59364554Y-70278708D01*
X59329995Y-70297180D01*
X59292499Y-70308555D01*
X59247362Y-70313000D01*
X58608638Y-70313000D01*
X58563501Y-70308555D01*
X58526005Y-70297180D01*
X58491446Y-70278708D01*
X58461153Y-70253847D01*
X58436292Y-70223554D01*
X58417820Y-70188995D01*
X58406445Y-70151499D01*
X58402000Y-70106362D01*
X58402000Y-69367638D01*
X58406445Y-69322501D01*
X58417820Y-69285005D01*
X58436292Y-69250446D01*
X58461153Y-69220153D01*
X58491446Y-69195292D01*
X58526005Y-69176820D01*
X58563501Y-69165445D01*
X58608638Y-69161000D01*
X59247362Y-69161000D01*
X59292499Y-69165445D01*
G37*
G36*
X70405499Y-69074445D02*
G01*
X70442995Y-69085820D01*
X70477554Y-69104292D01*
X70507847Y-69129153D01*
X70532708Y-69159446D01*
X70551180Y-69194005D01*
X70562555Y-69231501D01*
X70567000Y-69276638D01*
X70567000Y-69915362D01*
X70562555Y-69960499D01*
X70551180Y-69997995D01*
X70532708Y-70032554D01*
X70507847Y-70062847D01*
X70477554Y-70087708D01*
X70442995Y-70106180D01*
X70405499Y-70117555D01*
X70360362Y-70122000D01*
X69621638Y-70122000D01*
X69576501Y-70117555D01*
X69539005Y-70106180D01*
X69504446Y-70087708D01*
X69474153Y-70062847D01*
X69449292Y-70032554D01*
X69430820Y-69997995D01*
X69419445Y-69960499D01*
X69415000Y-69915362D01*
X69415000Y-69276638D01*
X69419445Y-69231501D01*
X69430820Y-69194005D01*
X69449292Y-69159446D01*
X69474153Y-69129153D01*
X69504446Y-69104292D01*
X69539005Y-69085820D01*
X69576501Y-69074445D01*
X69621638Y-69070000D01*
X70360362Y-69070000D01*
X70405499Y-69074445D01*
G37*
G36*
X72155499Y-69074445D02*
G01*
X72192995Y-69085820D01*
X72227554Y-69104292D01*
X72257847Y-69129153D01*
X72282708Y-69159446D01*
X72301180Y-69194005D01*
X72312555Y-69231501D01*
X72317000Y-69276638D01*
X72317000Y-69915362D01*
X72312555Y-69960499D01*
X72301180Y-69997995D01*
X72282708Y-70032554D01*
X72257847Y-70062847D01*
X72227554Y-70087708D01*
X72192995Y-70106180D01*
X72155499Y-70117555D01*
X72110362Y-70122000D01*
X71371638Y-70122000D01*
X71326501Y-70117555D01*
X71289005Y-70106180D01*
X71254446Y-70087708D01*
X71224153Y-70062847D01*
X71199292Y-70032554D01*
X71180820Y-69997995D01*
X71169445Y-69960499D01*
X71165000Y-69915362D01*
X71165000Y-69276638D01*
X71169445Y-69231501D01*
X71180820Y-69194005D01*
X71199292Y-69159446D01*
X71224153Y-69129153D01*
X71254446Y-69104292D01*
X71289005Y-69085820D01*
X71326501Y-69074445D01*
X71371638Y-69070000D01*
X72110362Y-69070000D01*
X72155499Y-69074445D01*
G37*
G36*
X57797817Y-66707696D02*
G01*
X57911104Y-66742062D01*
X58015511Y-66797869D01*
X58015513Y-66797870D01*
X58015512Y-66797870D01*
X58107027Y-66872973D01*
X58170711Y-66950572D01*
X58182131Y-66964488D01*
X58237938Y-67068895D01*
X58272304Y-67182182D01*
X58281000Y-67270481D01*
X58281000Y-67729518D01*
X58272304Y-67817818D01*
X58237938Y-67931105D01*
X58182131Y-68035512D01*
X58107027Y-68127027D01*
X58015512Y-68202131D01*
X57911105Y-68257938D01*
X57797818Y-68292304D01*
X57680000Y-68303907D01*
X57562183Y-68292304D01*
X57448896Y-68257938D01*
X57344489Y-68202131D01*
X57252974Y-68127027D01*
X57177869Y-68035512D01*
X57122062Y-67931105D01*
X57087696Y-67817818D01*
X57079000Y-67729519D01*
X57079000Y-67270482D01*
X57087696Y-67182183D01*
X57122062Y-67068896D01*
X57177869Y-66964489D01*
X57191338Y-66948077D01*
X57252973Y-66872973D01*
X57344487Y-66797870D01*
X57344486Y-66797870D01*
X57344488Y-66797869D01*
X57448895Y-66742062D01*
X57562182Y-66707696D01*
X57680000Y-66696093D01*
X57797817Y-66707696D01*
G37*
G36*
X55997817Y-66707696D02*
G01*
X56111104Y-66742062D01*
X56215511Y-66797869D01*
X56215513Y-66797870D01*
X56215512Y-66797870D01*
X56307027Y-66872973D01*
X56370711Y-66950572D01*
X56382131Y-66964488D01*
X56437938Y-67068895D01*
X56472304Y-67182182D01*
X56481000Y-67270481D01*
X56481000Y-67729518D01*
X56472304Y-67817818D01*
X56437938Y-67931105D01*
X56382131Y-68035512D01*
X56307027Y-68127027D01*
X56215512Y-68202131D01*
X56111105Y-68257938D01*
X55997818Y-68292304D01*
X55880000Y-68303907D01*
X55762183Y-68292304D01*
X55648896Y-68257938D01*
X55544489Y-68202131D01*
X55452974Y-68127027D01*
X55377869Y-68035512D01*
X55322062Y-67931105D01*
X55287696Y-67817818D01*
X55279000Y-67729519D01*
X55279000Y-67270482D01*
X55287696Y-67182183D01*
X55322062Y-67068896D01*
X55377869Y-66964489D01*
X55391338Y-66948077D01*
X55452973Y-66872973D01*
X55544487Y-66797870D01*
X55544486Y-66797870D01*
X55544488Y-66797869D01*
X55648895Y-66742062D01*
X55762182Y-66707696D01*
X55880000Y-66696093D01*
X55997817Y-66707696D01*
G37*
G36*
X73247818Y-66517696D02*
G01*
X73361105Y-66552062D01*
X73465512Y-66607869D01*
X73557027Y-66682973D01*
X73632131Y-66774488D01*
X73687938Y-66878895D01*
X73722304Y-66992182D01*
X73731000Y-67080482D01*
X73731000Y-67539519D01*
X73722304Y-67627818D01*
X73687938Y-67741105D01*
X73632131Y-67845512D01*
X73632130Y-67845513D01*
X73557027Y-67937027D01*
X73532689Y-67957000D01*
X73465511Y-68012131D01*
X73361104Y-68067938D01*
X73247817Y-68102304D01*
X73130000Y-68113907D01*
X73012182Y-68102304D01*
X72898895Y-68067938D01*
X72794488Y-68012131D01*
X72760772Y-67984461D01*
X72702973Y-67937027D01*
X72627870Y-67845512D01*
X72627869Y-67845511D01*
X72572062Y-67741104D01*
X72537696Y-67627817D01*
X72529000Y-67539518D01*
X72529000Y-67080481D01*
X72537696Y-66992182D01*
X72572062Y-66878895D01*
X72627869Y-66774488D01*
X72702974Y-66682973D01*
X72794489Y-66607869D01*
X72898896Y-66552062D01*
X73012183Y-66517696D01*
X73130000Y-66506093D01*
X73247818Y-66517696D01*
G37*
G36*
X75366195Y-66513524D02*
G01*
X75404461Y-66525133D01*
X75439733Y-66543986D01*
X75470646Y-66569354D01*
X75496014Y-66600267D01*
X75514867Y-66635539D01*
X75526476Y-66673805D01*
X75531000Y-66719744D01*
X75531000Y-67900256D01*
X75526476Y-67946195D01*
X75514867Y-67984461D01*
X75496014Y-68019733D01*
X75470646Y-68050646D01*
X75439733Y-68076014D01*
X75404461Y-68094867D01*
X75366195Y-68106476D01*
X75320256Y-68111000D01*
X74539744Y-68111000D01*
X74493805Y-68106476D01*
X74455539Y-68094867D01*
X74420267Y-68076014D01*
X74389354Y-68050646D01*
X74363986Y-68019733D01*
X74345133Y-67984461D01*
X74333524Y-67946195D01*
X74329000Y-67900256D01*
X74329000Y-66719744D01*
X74333524Y-66673805D01*
X74345133Y-66635539D01*
X74363986Y-66600267D01*
X74389354Y-66569354D01*
X74420267Y-66543986D01*
X74455539Y-66525133D01*
X74493805Y-66513524D01*
X74539744Y-66509000D01*
X75320256Y-66509000D01*
X75366195Y-66513524D01*
G37*
G36*
X65163000Y-67957000D02*
G01*
X63361000Y-67957000D01*
X63361000Y-66155000D01*
X65163000Y-66155000D01*
X65163000Y-67957000D01*
G37*
G36*
X53867499Y-65264445D02*
G01*
X53904995Y-65275820D01*
X53939554Y-65294292D01*
X53969847Y-65319153D01*
X53994708Y-65349446D01*
X54013180Y-65384005D01*
X54024555Y-65421501D01*
X54029000Y-65466638D01*
X54029000Y-66105362D01*
X54024555Y-66150499D01*
X54013180Y-66187995D01*
X53994708Y-66222554D01*
X53969847Y-66252847D01*
X53939554Y-66277708D01*
X53904995Y-66296180D01*
X53867499Y-66307555D01*
X53822362Y-66312000D01*
X53083638Y-66312000D01*
X53038501Y-66307555D01*
X53001005Y-66296180D01*
X52966446Y-66277708D01*
X52936153Y-66252847D01*
X52911292Y-66222554D01*
X52892820Y-66187995D01*
X52881445Y-66150499D01*
X52877000Y-66105362D01*
X52877000Y-65466638D01*
X52881445Y-65421501D01*
X52892820Y-65384005D01*
X52911292Y-65349446D01*
X52936153Y-65319153D01*
X52966446Y-65294292D01*
X53001005Y-65275820D01*
X53038501Y-65264445D01*
X53083638Y-65260000D01*
X53822362Y-65260000D01*
X53867499Y-65264445D01*
G37*
G36*
X52117499Y-65264445D02*
G01*
X52154995Y-65275820D01*
X52189554Y-65294292D01*
X52219847Y-65319153D01*
X52244708Y-65349446D01*
X52263180Y-65384005D01*
X52274555Y-65421501D01*
X52279000Y-65466638D01*
X52279000Y-66105362D01*
X52274555Y-66150499D01*
X52263180Y-66187995D01*
X52244708Y-66222554D01*
X52219847Y-66252847D01*
X52189554Y-66277708D01*
X52154995Y-66296180D01*
X52117499Y-66307555D01*
X52072362Y-66312000D01*
X51333638Y-66312000D01*
X51288501Y-66307555D01*
X51251005Y-66296180D01*
X51216446Y-66277708D01*
X51186153Y-66252847D01*
X51161292Y-66222554D01*
X51142820Y-66187995D01*
X51131445Y-66150499D01*
X51127000Y-66105362D01*
X51127000Y-65466638D01*
X51131445Y-65421501D01*
X51142820Y-65384005D01*
X51161292Y-65349446D01*
X51186153Y-65319153D01*
X51216446Y-65294292D01*
X51251005Y-65275820D01*
X51288501Y-65264445D01*
X51333638Y-65260000D01*
X52072362Y-65260000D01*
X52117499Y-65264445D01*
G37*
G36*
X69960499Y-65073445D02*
G01*
X69997995Y-65084820D01*
X70032554Y-65103292D01*
X70062847Y-65128153D01*
X70087708Y-65158446D01*
X70106180Y-65193005D01*
X70117555Y-65230501D01*
X70122000Y-65275638D01*
X70122000Y-66014362D01*
X70117555Y-66059499D01*
X70106180Y-66096995D01*
X70087708Y-66131554D01*
X70062847Y-66161847D01*
X70032554Y-66186708D01*
X69997995Y-66205180D01*
X69960499Y-66216555D01*
X69915362Y-66221000D01*
X69276638Y-66221000D01*
X69231501Y-66216555D01*
X69194005Y-66205180D01*
X69159446Y-66186708D01*
X69129153Y-66161847D01*
X69104292Y-66131554D01*
X69085820Y-66096995D01*
X69074445Y-66059499D01*
X69070000Y-66014362D01*
X69070000Y-65275638D01*
X69074445Y-65230501D01*
X69085820Y-65193005D01*
X69104292Y-65158446D01*
X69129153Y-65128153D01*
X69159446Y-65103292D01*
X69194005Y-65084820D01*
X69231501Y-65073445D01*
X69276638Y-65069000D01*
X69915362Y-65069000D01*
X69960499Y-65073445D01*
G37*
G36*
X61324499Y-65073445D02*
G01*
X61361995Y-65084820D01*
X61396554Y-65103292D01*
X61426847Y-65128153D01*
X61451708Y-65158446D01*
X61470180Y-65193005D01*
X61481555Y-65230501D01*
X61486000Y-65275638D01*
X61486000Y-66014362D01*
X61481555Y-66059499D01*
X61470180Y-66096995D01*
X61451708Y-66131554D01*
X61426847Y-66161847D01*
X61396554Y-66186708D01*
X61361995Y-66205180D01*
X61324499Y-66216555D01*
X61279362Y-66221000D01*
X60640638Y-66221000D01*
X60595501Y-66216555D01*
X60558005Y-66205180D01*
X60523446Y-66186708D01*
X60493153Y-66161847D01*
X60468292Y-66131554D01*
X60449820Y-66096995D01*
X60438445Y-66059499D01*
X60434000Y-66014362D01*
X60434000Y-65275638D01*
X60438445Y-65230501D01*
X60449820Y-65193005D01*
X60468292Y-65158446D01*
X60493153Y-65128153D01*
X60523446Y-65103292D01*
X60558005Y-65084820D01*
X60595501Y-65073445D01*
X60640638Y-65069000D01*
X61279362Y-65069000D01*
X61324499Y-65073445D01*
G37*
G36*
X64375512Y-63619927D02*
G01*
X64524812Y-63649624D01*
X64688784Y-63717544D01*
X64836354Y-63816147D01*
X64961853Y-63941646D01*
X65060456Y-64089216D01*
X65128376Y-64253188D01*
X65148451Y-64354115D01*
X65159935Y-64411847D01*
X65163000Y-64427259D01*
X65163000Y-64604741D01*
X65128376Y-64778812D01*
X65060456Y-64942784D01*
X64961853Y-65090354D01*
X64836354Y-65215853D01*
X64688784Y-65314456D01*
X64524812Y-65382376D01*
X64375512Y-65412073D01*
X64350742Y-65417000D01*
X64173258Y-65417000D01*
X64148488Y-65412073D01*
X63999188Y-65382376D01*
X63835216Y-65314456D01*
X63687646Y-65215853D01*
X63562147Y-65090354D01*
X63463544Y-64942784D01*
X63395624Y-64778812D01*
X63361000Y-64604741D01*
X63361000Y-64427259D01*
X63364066Y-64411847D01*
X63375549Y-64354115D01*
X63395624Y-64253188D01*
X63463544Y-64089216D01*
X63562147Y-63941646D01*
X63687646Y-63816147D01*
X63835216Y-63717544D01*
X63999188Y-63649624D01*
X64148488Y-63619927D01*
X64173258Y-63615000D01*
X64350742Y-63615000D01*
X64375512Y-63619927D01*
G37*
G36*
X61324499Y-63323445D02*
G01*
X61361995Y-63334820D01*
X61396554Y-63353292D01*
X61426847Y-63378153D01*
X61451708Y-63408446D01*
X61470180Y-63443005D01*
X61481555Y-63480501D01*
X61486000Y-63525638D01*
X61486000Y-64264362D01*
X61481555Y-64309499D01*
X61470180Y-64346995D01*
X61451708Y-64381554D01*
X61426847Y-64411847D01*
X61396554Y-64436708D01*
X61361995Y-64455180D01*
X61324499Y-64466555D01*
X61279362Y-64471000D01*
X60640638Y-64471000D01*
X60595501Y-64466555D01*
X60558005Y-64455180D01*
X60523446Y-64436708D01*
X60493153Y-64411847D01*
X60468292Y-64381554D01*
X60449820Y-64346995D01*
X60438445Y-64309499D01*
X60434000Y-64264362D01*
X60434000Y-63525638D01*
X60438445Y-63480501D01*
X60449820Y-63443005D01*
X60468292Y-63408446D01*
X60493153Y-63378153D01*
X60523446Y-63353292D01*
X60558005Y-63334820D01*
X60595501Y-63323445D01*
X60640638Y-63319000D01*
X61279362Y-63319000D01*
X61324499Y-63323445D01*
G37*
G36*
X69960499Y-63323445D02*
G01*
X69997995Y-63334820D01*
X70032554Y-63353292D01*
X70062847Y-63378153D01*
X70087708Y-63408446D01*
X70106180Y-63443005D01*
X70117555Y-63480501D01*
X70122000Y-63525638D01*
X70122000Y-64264362D01*
X70117555Y-64309499D01*
X70106180Y-64346995D01*
X70087708Y-64381554D01*
X70062847Y-64411847D01*
X70032554Y-64436708D01*
X69997995Y-64455180D01*
X69960499Y-64466555D01*
X69915362Y-64471000D01*
X69276638Y-64471000D01*
X69231501Y-64466555D01*
X69194005Y-64455180D01*
X69159446Y-64436708D01*
X69129153Y-64411847D01*
X69104292Y-64381554D01*
X69085820Y-64346995D01*
X69074445Y-64309499D01*
X69070000Y-64264362D01*
X69070000Y-63525638D01*
X69074445Y-63480501D01*
X69085820Y-63443005D01*
X69104292Y-63408446D01*
X69129153Y-63378153D01*
X69159446Y-63353292D01*
X69194005Y-63334820D01*
X69231501Y-63323445D01*
X69276638Y-63319000D01*
X69915362Y-63319000D01*
X69960499Y-63323445D01*
G37*
G36*
X57797817Y-62707696D02*
G01*
X57911104Y-62742062D01*
X58015511Y-62797869D01*
X58015513Y-62797870D01*
X58015512Y-62797870D01*
X58107027Y-62872973D01*
X58170711Y-62950572D01*
X58182131Y-62964488D01*
X58237938Y-63068895D01*
X58272304Y-63182182D01*
X58281000Y-63270481D01*
X58281000Y-63729518D01*
X58272304Y-63817818D01*
X58237938Y-63931105D01*
X58182131Y-64035512D01*
X58107027Y-64127027D01*
X58015512Y-64202131D01*
X57911105Y-64257938D01*
X57797818Y-64292304D01*
X57680000Y-64303907D01*
X57562183Y-64292304D01*
X57448896Y-64257938D01*
X57344489Y-64202131D01*
X57252974Y-64127027D01*
X57177869Y-64035512D01*
X57122062Y-63931105D01*
X57087696Y-63817818D01*
X57079000Y-63729519D01*
X57079000Y-63270482D01*
X57087696Y-63182183D01*
X57122062Y-63068896D01*
X57177869Y-62964489D01*
X57215510Y-62918623D01*
X57252973Y-62872973D01*
X57344487Y-62797870D01*
X57344486Y-62797870D01*
X57344488Y-62797869D01*
X57448895Y-62742062D01*
X57562182Y-62707696D01*
X57680000Y-62696093D01*
X57797817Y-62707696D01*
G37*
G36*
X56316195Y-62703524D02*
G01*
X56354461Y-62715133D01*
X56389733Y-62733986D01*
X56420646Y-62759354D01*
X56446014Y-62790267D01*
X56464867Y-62825539D01*
X56476476Y-62863805D01*
X56481000Y-62909744D01*
X56481000Y-64090256D01*
X56476476Y-64136195D01*
X56464867Y-64174461D01*
X56446014Y-64209733D01*
X56420646Y-64240646D01*
X56389733Y-64266014D01*
X56354461Y-64284867D01*
X56316195Y-64296476D01*
X56270256Y-64301000D01*
X55489744Y-64301000D01*
X55443805Y-64296476D01*
X55405539Y-64284867D01*
X55370267Y-64266014D01*
X55339354Y-64240646D01*
X55313986Y-64209733D01*
X55295133Y-64174461D01*
X55283524Y-64136195D01*
X55279000Y-64090256D01*
X55279000Y-62909744D01*
X55283524Y-62863805D01*
X55295133Y-62825539D01*
X55313986Y-62790267D01*
X55339354Y-62759354D01*
X55370267Y-62733986D01*
X55405539Y-62715133D01*
X55443805Y-62703524D01*
X55489744Y-62699000D01*
X56270256Y-62699000D01*
X56316195Y-62703524D01*
G37*
G36*
X75047818Y-62517696D02*
G01*
X75161105Y-62552062D01*
X75265512Y-62607869D01*
X75357027Y-62682973D01*
X75432131Y-62774488D01*
X75487938Y-62878895D01*
X75522304Y-62992182D01*
X75531000Y-63080482D01*
X75531000Y-63539519D01*
X75522304Y-63627818D01*
X75487938Y-63741105D01*
X75432131Y-63845512D01*
X75432130Y-63845513D01*
X75357027Y-63937027D01*
X75281923Y-63998662D01*
X75265511Y-64012131D01*
X75161104Y-64067938D01*
X75047817Y-64102304D01*
X74930000Y-64113907D01*
X74812182Y-64102304D01*
X74698895Y-64067938D01*
X74594488Y-64012131D01*
X74580572Y-64000711D01*
X74502973Y-63937027D01*
X74427870Y-63845512D01*
X74413066Y-63817816D01*
X74372062Y-63741104D01*
X74337696Y-63627817D01*
X74329000Y-63539518D01*
X74329000Y-63080481D01*
X74337696Y-62992182D01*
X74372062Y-62878895D01*
X74427869Y-62774488D01*
X74502974Y-62682973D01*
X74594489Y-62607869D01*
X74698896Y-62552062D01*
X74812183Y-62517696D01*
X74930000Y-62506093D01*
X75047818Y-62517696D01*
G37*
G36*
X73247818Y-62517696D02*
G01*
X73361105Y-62552062D01*
X73465512Y-62607869D01*
X73557027Y-62682973D01*
X73632131Y-62774488D01*
X73687938Y-62878895D01*
X73722304Y-62992182D01*
X73731000Y-63080482D01*
X73731000Y-63539519D01*
X73722304Y-63627818D01*
X73687938Y-63741105D01*
X73632131Y-63845512D01*
X73632130Y-63845513D01*
X73557027Y-63937027D01*
X73481923Y-63998662D01*
X73465511Y-64012131D01*
X73361104Y-64067938D01*
X73247817Y-64102304D01*
X73130000Y-64113907D01*
X73012182Y-64102304D01*
X72898895Y-64067938D01*
X72794488Y-64012131D01*
X72780572Y-64000711D01*
X72702973Y-63937027D01*
X72627870Y-63845512D01*
X72613066Y-63817816D01*
X72572062Y-63741104D01*
X72537696Y-63627817D01*
X72529000Y-63539518D01*
X72529000Y-63080481D01*
X72537696Y-62992182D01*
X72572062Y-62878895D01*
X72627869Y-62774488D01*
X72702974Y-62682973D01*
X72794489Y-62607869D01*
X72898896Y-62552062D01*
X73012183Y-62517696D01*
X73130000Y-62506093D01*
X73247818Y-62517696D01*
G37*
G36*
X64375512Y-61079927D02*
G01*
X64524812Y-61109624D01*
X64688784Y-61177544D01*
X64836354Y-61276147D01*
X64961853Y-61401646D01*
X65060456Y-61549216D01*
X65128376Y-61713188D01*
X65163000Y-61887259D01*
X65163000Y-62064741D01*
X65128376Y-62238812D01*
X65060456Y-62402784D01*
X64961853Y-62550354D01*
X64836354Y-62675853D01*
X64688784Y-62774456D01*
X64524812Y-62842376D01*
X64375512Y-62872073D01*
X64350742Y-62877000D01*
X64173258Y-62877000D01*
X64148488Y-62872073D01*
X63999188Y-62842376D01*
X63835216Y-62774456D01*
X63687646Y-62675853D01*
X63562147Y-62550354D01*
X63463544Y-62402784D01*
X63395624Y-62238812D01*
X63361000Y-62064741D01*
X63361000Y-61887259D01*
X63395624Y-61713188D01*
X63463544Y-61549216D01*
X63562147Y-61401646D01*
X63687646Y-61276147D01*
X63835216Y-61177544D01*
X63999188Y-61109624D01*
X64148488Y-61079927D01*
X64173258Y-61075000D01*
X64350742Y-61075000D01*
X64375512Y-61079927D01*
G37*
G36*
X70151499Y-59930445D02*
G01*
X70188995Y-59941820D01*
X70223554Y-59960292D01*
X70253847Y-59985153D01*
X70278708Y-60015446D01*
X70297180Y-60050005D01*
X70308555Y-60087501D01*
X70313000Y-60132638D01*
X70313000Y-60771362D01*
X70308555Y-60816499D01*
X70297180Y-60853995D01*
X70278708Y-60888554D01*
X70253847Y-60918847D01*
X70223554Y-60943708D01*
X70188995Y-60962180D01*
X70151499Y-60973555D01*
X70106362Y-60978000D01*
X69367638Y-60978000D01*
X69322501Y-60973555D01*
X69285005Y-60962180D01*
X69250446Y-60943708D01*
X69220153Y-60918847D01*
X69195292Y-60888554D01*
X69176820Y-60853995D01*
X69165445Y-60816499D01*
X69161000Y-60771362D01*
X69161000Y-60132638D01*
X69165445Y-60087501D01*
X69176820Y-60050005D01*
X69195292Y-60015446D01*
X69220153Y-59985153D01*
X69250446Y-59960292D01*
X69285005Y-59941820D01*
X69322501Y-59930445D01*
X69367638Y-59926000D01*
X70106362Y-59926000D01*
X70151499Y-59930445D01*
G37*
G36*
X71901499Y-59930445D02*
G01*
X71938995Y-59941820D01*
X71973554Y-59960292D01*
X72003847Y-59985153D01*
X72028708Y-60015446D01*
X72047180Y-60050005D01*
X72058555Y-60087501D01*
X72063000Y-60132638D01*
X72063000Y-60771362D01*
X72058555Y-60816499D01*
X72047180Y-60853995D01*
X72028708Y-60888554D01*
X72003847Y-60918847D01*
X71973554Y-60943708D01*
X71938995Y-60962180D01*
X71901499Y-60973555D01*
X71856362Y-60978000D01*
X71117638Y-60978000D01*
X71072501Y-60973555D01*
X71035005Y-60962180D01*
X71000446Y-60943708D01*
X70970153Y-60918847D01*
X70945292Y-60888554D01*
X70926820Y-60853995D01*
X70915445Y-60816499D01*
X70911000Y-60771362D01*
X70911000Y-60132638D01*
X70915445Y-60087501D01*
X70926820Y-60050005D01*
X70945292Y-60015446D01*
X70970153Y-59985153D01*
X71000446Y-59960292D01*
X71035005Y-59941820D01*
X71072501Y-59930445D01*
X71117638Y-59926000D01*
X71856362Y-59926000D01*
X71901499Y-59930445D01*
G37*
G36*
X66483000Y-59371000D02*
G01*
X64581000Y-59371000D01*
X64581000Y-57469000D01*
X66483000Y-57469000D01*
X66483000Y-59371000D01*
G37*
G36*
X63269395Y-57505546D02*
G01*
X63442466Y-57577234D01*
X63442467Y-57577235D01*
X63598227Y-57681310D01*
X63730690Y-57813773D01*
X63730691Y-57813775D01*
X63834766Y-57969534D01*
X63906454Y-58142605D01*
X63943000Y-58326333D01*
X63943000Y-58513667D01*
X63906454Y-58697395D01*
X63834766Y-58870466D01*
X63834765Y-58870467D01*
X63730690Y-59026227D01*
X63598227Y-59158690D01*
X63519818Y-59211081D01*
X63442466Y-59262766D01*
X63269395Y-59334454D01*
X63085667Y-59371000D01*
X62898333Y-59371000D01*
X62714605Y-59334454D01*
X62541534Y-59262766D01*
X62464182Y-59211081D01*
X62385773Y-59158690D01*
X62253310Y-59026227D01*
X62149235Y-58870467D01*
X62149234Y-58870466D01*
X62077546Y-58697395D01*
X62041000Y-58513667D01*
X62041000Y-58326333D01*
X62077546Y-58142605D01*
X62149234Y-57969534D01*
X62253309Y-57813775D01*
X62253310Y-57813773D01*
X62385773Y-57681310D01*
X62541533Y-57577235D01*
X62541534Y-57577234D01*
X62714605Y-57505546D01*
X62898333Y-57469000D01*
X63085667Y-57469000D01*
X63269395Y-57505546D01*
G37*
M02*
