M48
; DRILL file {KiCad (5.1.5)-3} date 3/11/2020 9:27:18 PM
; FORMAT={-:-/ absolute / inch / decimal}
; #@! TF.CreationDate,2020-03-11T21:27:18-07:00
; #@! TF.GenerationSoftware,Kicad,Pcbnew,(5.1.5)-3
; #@! TF.FileFunction,Plated,1,2,PTH
FMAT,2
INCH
T1C0.0157
T2C0.0276
T3C0.0280
T4C0.0315
T5C0.0335
T6C0.0354
T7C0.1600
%
G90
G05
T1
X5.73Y-3.61
X5.94Y-3.52
X6.08Y-2.91
T2
X5.8952Y-2.91
X5.97Y-2.91
X6.32Y-3.57
X6.32Y-3.6448
X6.02Y-3.74
X6.0948Y-3.74
X6.2452Y-3.35
X6.32Y-3.35
T3
X5.707Y-4.1308
X5.77Y-3.93
T4
X6.0216Y-3.44
X6.12Y-3.44
X5.59Y-3.52
X5.6884Y-3.52
T5
X5.6963Y-3.17
X6.09Y-3.17
X5.56Y-2.87
X5.56Y-3.2637
T7
X6.42Y-4.1
X5.42Y-4.1
T6
G00X5.7156Y-2.6931
M15
G01X5.7156Y-2.6302
M16
G05
G00X6.1644Y-2.6931
M15
G01X6.1644Y-2.6302
M16
G05
T0
M30
