G04 #@! TF.GenerationSoftware,KiCad,Pcbnew,(5.1.5)-3*
G04 #@! TF.CreationDate,2020-03-11T21:27:21-07:00*
G04 #@! TF.ProjectId,lab3,6c616233-2e6b-4696-9361-645f70636258,v01*
G04 #@! TF.SameCoordinates,Original*
G04 #@! TF.FileFunction,Legend,Top*
G04 #@! TF.FilePolarity,Positive*
%FSLAX46Y46*%
G04 Gerber Fmt 4.6, Leading zero omitted, Abs format (unit mm)*
G04 Created by KiCad (PCBNEW (5.1.5)-3) date 2020-03-11 21:27:21*
%MOMM*%
%LPD*%
G04 APERTURE LIST*
%ADD10C,0.120000*%
%ADD11C,0.150000*%
G04 APERTURE END LIST*
D10*
X147808000Y-98072000D02*
X147808000Y-106672000D01*
X147808000Y-98072000D02*
X143708000Y-98072000D01*
X147808000Y-106672000D02*
X143708000Y-106672000D01*
X143708000Y-98072000D02*
X143708000Y-106672000D01*
X153228095Y-95745359D02*
G75*
G02X153325133Y-94296000I-320095J749359D01*
G01*
X160207905Y-84340641D02*
G75*
G02X160110867Y-85790000I320095J-749359D01*
G01*
X151317905Y-73164641D02*
G75*
G02X151220867Y-74614000I320095J-749359D01*
G01*
X159778641Y-90998095D02*
G75*
G02X161228000Y-91095133I749359J320095D01*
G01*
X141224000Y-81898000D02*
X141224000Y-80518000D01*
X141224000Y-73898000D02*
X141224000Y-75278000D01*
X143144000Y-80518000D02*
X143144000Y-75278000D01*
X139304000Y-80518000D02*
X143144000Y-80518000D01*
X139304000Y-75278000D02*
X139304000Y-80518000D01*
X143144000Y-75278000D02*
X139304000Y-75278000D01*
X145686000Y-80518000D02*
X147066000Y-80518000D01*
X153686000Y-80518000D02*
X152306000Y-80518000D01*
X147066000Y-82438000D02*
X152306000Y-82438000D01*
X147066000Y-78598000D02*
X147066000Y-82438000D01*
X152306000Y-78598000D02*
X147066000Y-78598000D01*
X152306000Y-82438000D02*
X152306000Y-78598000D01*
X154827000Y-86456000D02*
X153569000Y-86456000D01*
X154827000Y-88296000D02*
X153569000Y-88296000D01*
X142607000Y-90328000D02*
X143865000Y-90328000D01*
X142607000Y-88488000D02*
X143865000Y-88488000D01*
D11*
X148223000Y-94235000D02*
X149973000Y-94235000D01*
X147598000Y-91185000D02*
X149973000Y-91185000D01*
D10*
X157021000Y-65556000D02*
X157021000Y-64506000D01*
X144731000Y-65556000D02*
X144731000Y-64506000D01*
X146476000Y-68726000D02*
X155276000Y-68726000D01*
X141899000Y-97420000D02*
X140549000Y-97420000D01*
X141899000Y-95620000D02*
X140324000Y-95620000D01*
D11*
X149026571Y-102695333D02*
X149026571Y-103028666D01*
X149550380Y-103028666D02*
X148550380Y-103028666D01*
X148550380Y-102552476D01*
X149550380Y-101647714D02*
X149550380Y-102219142D01*
X149550380Y-101933428D02*
X148550380Y-101933428D01*
X148693238Y-102028666D01*
X148788476Y-102123904D01*
X148836095Y-102219142D01*
X153691333Y-93528380D02*
X153358000Y-93052190D01*
X153119904Y-93528380D02*
X153119904Y-92528380D01*
X153500857Y-92528380D01*
X153596095Y-92576000D01*
X153643714Y-92623619D01*
X153691333Y-92718857D01*
X153691333Y-92861714D01*
X153643714Y-92956952D01*
X153596095Y-93004571D01*
X153500857Y-93052190D01*
X153119904Y-93052190D01*
X154548476Y-92861714D02*
X154548476Y-93528380D01*
X154310380Y-92480761D02*
X154072285Y-93195047D01*
X154691333Y-93195047D01*
X159411333Y-87462380D02*
X159078000Y-86986190D01*
X158839904Y-87462380D02*
X158839904Y-86462380D01*
X159220857Y-86462380D01*
X159316095Y-86510000D01*
X159363714Y-86557619D01*
X159411333Y-86652857D01*
X159411333Y-86795714D01*
X159363714Y-86890952D01*
X159316095Y-86938571D01*
X159220857Y-86986190D01*
X158839904Y-86986190D01*
X159744666Y-86462380D02*
X160363714Y-86462380D01*
X160030380Y-86843333D01*
X160173238Y-86843333D01*
X160268476Y-86890952D01*
X160316095Y-86938571D01*
X160363714Y-87033809D01*
X160363714Y-87271904D01*
X160316095Y-87367142D01*
X160268476Y-87414761D01*
X160173238Y-87462380D01*
X159887523Y-87462380D01*
X159792285Y-87414761D01*
X159744666Y-87367142D01*
X150521333Y-76286380D02*
X150188000Y-75810190D01*
X149949904Y-76286380D02*
X149949904Y-75286380D01*
X150330857Y-75286380D01*
X150426095Y-75334000D01*
X150473714Y-75381619D01*
X150521333Y-75476857D01*
X150521333Y-75619714D01*
X150473714Y-75714952D01*
X150426095Y-75762571D01*
X150330857Y-75810190D01*
X149949904Y-75810190D01*
X150902285Y-75381619D02*
X150949904Y-75334000D01*
X151045142Y-75286380D01*
X151283238Y-75286380D01*
X151378476Y-75334000D01*
X151426095Y-75381619D01*
X151473714Y-75476857D01*
X151473714Y-75572095D01*
X151426095Y-75714952D01*
X150854666Y-76286380D01*
X151473714Y-76286380D01*
X162900380Y-91794666D02*
X162424190Y-92128000D01*
X162900380Y-92366095D02*
X161900380Y-92366095D01*
X161900380Y-91985142D01*
X161948000Y-91889904D01*
X161995619Y-91842285D01*
X162090857Y-91794666D01*
X162233714Y-91794666D01*
X162328952Y-91842285D01*
X162376571Y-91889904D01*
X162424190Y-91985142D01*
X162424190Y-92366095D01*
X162900380Y-90842285D02*
X162900380Y-91413714D01*
X162900380Y-91128000D02*
X161900380Y-91128000D01*
X162043238Y-91223238D01*
X162138476Y-91318476D01*
X162186095Y-91413714D01*
X144676380Y-78064666D02*
X144676380Y-78540857D01*
X143676380Y-78540857D01*
X143771619Y-77778952D02*
X143724000Y-77731333D01*
X143676380Y-77636095D01*
X143676380Y-77398000D01*
X143724000Y-77302761D01*
X143771619Y-77255142D01*
X143866857Y-77207523D01*
X143962095Y-77207523D01*
X144104952Y-77255142D01*
X144676380Y-77826571D01*
X144676380Y-77207523D01*
X149519333Y-83970380D02*
X149043142Y-83970380D01*
X149043142Y-82970380D01*
X150376476Y-83970380D02*
X149805047Y-83970380D01*
X150090761Y-83970380D02*
X150090761Y-82970380D01*
X149995523Y-83113238D01*
X149900285Y-83208476D01*
X149805047Y-83256095D01*
X154031333Y-89783142D02*
X153983714Y-89830761D01*
X153840857Y-89878380D01*
X153745619Y-89878380D01*
X153602761Y-89830761D01*
X153507523Y-89735523D01*
X153459904Y-89640285D01*
X153412285Y-89449809D01*
X153412285Y-89306952D01*
X153459904Y-89116476D01*
X153507523Y-89021238D01*
X153602761Y-88926000D01*
X153745619Y-88878380D01*
X153840857Y-88878380D01*
X153983714Y-88926000D01*
X154031333Y-88973619D01*
X154412285Y-88973619D02*
X154459904Y-88926000D01*
X154555142Y-88878380D01*
X154793238Y-88878380D01*
X154888476Y-88926000D01*
X154936095Y-88973619D01*
X154983714Y-89068857D01*
X154983714Y-89164095D01*
X154936095Y-89306952D01*
X154364666Y-89878380D01*
X154983714Y-89878380D01*
X143069333Y-87715142D02*
X143021714Y-87762761D01*
X142878857Y-87810380D01*
X142783619Y-87810380D01*
X142640761Y-87762761D01*
X142545523Y-87667523D01*
X142497904Y-87572285D01*
X142450285Y-87381809D01*
X142450285Y-87238952D01*
X142497904Y-87048476D01*
X142545523Y-86953238D01*
X142640761Y-86858000D01*
X142783619Y-86810380D01*
X142878857Y-86810380D01*
X143021714Y-86858000D01*
X143069333Y-86905619D01*
X144021714Y-87810380D02*
X143450285Y-87810380D01*
X143736000Y-87810380D02*
X143736000Y-86810380D01*
X143640761Y-86953238D01*
X143545523Y-87048476D01*
X143450285Y-87096095D01*
X148336095Y-95972380D02*
X148336095Y-96781904D01*
X148383714Y-96877142D01*
X148431333Y-96924761D01*
X148526571Y-96972380D01*
X148717047Y-96972380D01*
X148812285Y-96924761D01*
X148859904Y-96877142D01*
X148907523Y-96781904D01*
X148907523Y-95972380D01*
X149907523Y-96972380D02*
X149336095Y-96972380D01*
X149621809Y-96972380D02*
X149621809Y-95972380D01*
X149526571Y-96115238D01*
X149431333Y-96210476D01*
X149336095Y-96258095D01*
X142328380Y-67939333D02*
X143042666Y-67939333D01*
X143185523Y-67986952D01*
X143280761Y-68082190D01*
X143328380Y-68225047D01*
X143328380Y-68320285D01*
X142423619Y-67510761D02*
X142376000Y-67463142D01*
X142328380Y-67367904D01*
X142328380Y-67129809D01*
X142376000Y-67034571D01*
X142423619Y-66986952D01*
X142518857Y-66939333D01*
X142614095Y-66939333D01*
X142756952Y-66986952D01*
X143328380Y-67558380D01*
X143328380Y-66939333D01*
X164790380Y-97258095D02*
X163790380Y-97258095D01*
X163790380Y-97020000D01*
X163838000Y-96877142D01*
X163933238Y-96781904D01*
X164028476Y-96734285D01*
X164218952Y-96686666D01*
X164361809Y-96686666D01*
X164552285Y-96734285D01*
X164647523Y-96781904D01*
X164742761Y-96877142D01*
X164790380Y-97020000D01*
X164790380Y-97258095D01*
X164790380Y-95734285D02*
X164790380Y-96305714D01*
X164790380Y-96020000D02*
X163790380Y-96020000D01*
X163933238Y-96115238D01*
X164028476Y-96210476D01*
X164076095Y-96305714D01*
X140485904Y-100147380D02*
X140485904Y-99147380D01*
X140724000Y-99147380D01*
X140866857Y-99195000D01*
X140962095Y-99290238D01*
X141009714Y-99385476D01*
X141057333Y-99575952D01*
X141057333Y-99718809D01*
X141009714Y-99909285D01*
X140962095Y-100004523D01*
X140866857Y-100099761D01*
X140724000Y-100147380D01*
X140485904Y-100147380D01*
X141438285Y-99242619D02*
X141485904Y-99195000D01*
X141581142Y-99147380D01*
X141819238Y-99147380D01*
X141914476Y-99195000D01*
X141962095Y-99242619D01*
X142009714Y-99337857D01*
X142009714Y-99433095D01*
X141962095Y-99575952D01*
X141390666Y-100147380D01*
X142009714Y-100147380D01*
X137334666Y-107392380D02*
X137334666Y-108106666D01*
X137287047Y-108249523D01*
X137191809Y-108344761D01*
X137048952Y-108392380D01*
X136953714Y-108392380D01*
X138334666Y-108392380D02*
X137763238Y-108392380D01*
X138048952Y-108392380D02*
X138048952Y-107392380D01*
X137953714Y-107535238D01*
X137858476Y-107630476D01*
X137763238Y-107678095D01*
X162734666Y-107392380D02*
X162734666Y-108106666D01*
X162687047Y-108249523D01*
X162591809Y-108344761D01*
X162448952Y-108392380D01*
X162353714Y-108392380D01*
X163115619Y-107392380D02*
X163734666Y-107392380D01*
X163401333Y-107773333D01*
X163544190Y-107773333D01*
X163639428Y-107820952D01*
X163687047Y-107868571D01*
X163734666Y-107963809D01*
X163734666Y-108201904D01*
X163687047Y-108297142D01*
X163639428Y-108344761D01*
X163544190Y-108392380D01*
X163258476Y-108392380D01*
X163163238Y-108344761D01*
X163115619Y-108297142D01*
M02*
